<svg width="97" height="96" viewBox="0 0 97 96" fill="none" xmlns="http://www.w3.org/2000/svg">
<g id="baby-stroller">
<path id="Vector" d="M30.9805 80.22H79.1455" stroke="#13277E" stroke-width="4.5" stroke-linecap="round" stroke-linejoin="round"/>
<path id="Vector_2" d="M32.8102 70.9653H77.1202C79.6906 70.9648 82.184 70.0876 84.1885 68.4785C86.193 66.8694 87.5887 64.6248 88.1452 62.1153L92.6452 41.9253H17.2852L21.7852 62.1153C22.3416 64.6248 23.7373 66.8694 25.7418 68.4785C27.7463 70.0876 30.2397 70.9648 32.8102 70.9653Z" fill="#2B8AFC" stroke="#13277E" stroke-width="4.5" stroke-linecap="round" stroke-linejoin="round"/>
<path id="Vector_3" d="M59.465 9.86966C59.4601 9.4348 59.5498 9.00407 59.7279 8.60731C59.9059 8.21055 60.1681 7.85724 60.4963 7.57188C60.8245 7.28651 61.2108 7.07591 61.6284 6.95466C62.0461 6.8334 62.4851 6.8044 62.915 6.86966C71.2363 8.2383 78.7983 12.5253 84.246 18.9626C89.6938 25.3999 92.6713 33.5666 92.645 41.9997H59.465V9.86966Z" fill="#2B8AFC" stroke="#13277E" stroke-width="4.5" stroke-linecap="round" stroke-linejoin="round"/>
<path id="Vector_4" d="M4.36914 21.12H11.5391C11.888 21.1122 12.2286 21.2263 12.5024 21.4426C12.7761 21.6589 12.966 21.9639 13.0391 22.305L17.2841 42" stroke="#13277E" stroke-width="4.5" stroke-linecap="round" stroke-linejoin="round"/>
<path id="Vector_5" d="M30.8166 89.1451C35.8368 89.1451 39.9066 85.0754 39.9066 80.0551C39.9066 75.0348 35.8368 70.9651 30.8166 70.9651C25.7963 70.9651 21.7266 75.0348 21.7266 80.0551C21.7266 85.0754 25.7963 89.1451 30.8166 89.1451Z" fill="#FFFAF0" stroke="#13277E" stroke-width="4.5" stroke-linecap="round" stroke-linejoin="round"/>
<path id="Vector_6" d="M78.8166 89.1451C83.8368 89.1451 87.9066 85.0754 87.9066 80.0551C87.9066 75.0348 83.8368 70.9651 78.8166 70.9651C73.7963 70.9651 69.7266 75.0348 69.7266 80.0551C69.7266 85.0754 73.7963 89.1451 78.8166 89.1451Z" fill="#FFFAF0" stroke="#13277E" stroke-width="4.5" stroke-linecap="round" stroke-linejoin="round"/>
</g>
</svg>
