<svg width="97" height="96" viewBox="0 0 97 96" fill="none" xmlns="http://www.w3.org/2000/svg">
<g id="balcony">
<path id="Vector" d="M78.5 82.5C78.1022 82.5 77.7206 82.342 77.4393 82.0607C77.158 81.7794 77 81.3978 77 81V69C77 68.6022 77.158 68.2206 77.4393 67.9393C77.7206 67.658 78.1022 67.5 78.5 67.5C78.8978 67.5 79.2794 67.658 79.5607 67.9393C79.842 68.2206 80 68.6022 80 69V81C80 81.3978 79.842 81.7794 79.5607 82.0607C79.2794 82.342 78.8978 82.5 78.5 82.5ZM78.5 64.5C78.1022 64.5 77.7206 64.342 77.4393 64.0607C77.158 63.7794 77 63.3978 77 63V51C77 50.6022 77.158 50.2206 77.4393 49.9393C77.7206 49.658 78.1022 49.5 78.5 49.5C78.8978 49.5 79.2794 49.658 79.5607 49.9393C79.842 50.2206 80 50.6022 80 51V63C80 63.3978 79.842 63.7794 79.5607 64.0607C79.2794 64.342 78.8978 64.5 78.5 64.5ZM66.5 82.5C66.1022 82.5 65.7206 82.342 65.4393 82.0607C65.158 81.7794 65 81.3978 65 81V69C65 68.6022 65.158 68.2206 65.4393 67.9393C65.7206 67.658 66.1022 67.5 66.5 67.5C66.8978 67.5 67.2794 67.658 67.5607 67.9393C67.842 68.2206 68 68.6022 68 69V81C68 81.3978 67.842 81.7794 67.5607 82.0607C67.2794 82.342 66.8978 82.5 66.5 82.5ZM66.5 64.5C66.1022 64.5 65.7206 64.342 65.4393 64.0607C65.158 63.7794 65 63.3978 65 63V51C65 50.6022 65.158 50.2206 65.4393 49.9393C65.7206 49.658 66.1022 49.5 66.5 49.5C66.8978 49.5 67.2794 49.658 67.5607 49.9393C67.842 50.2206 68 50.6022 68 51V63C68 63.3978 67.842 63.7794 67.5607 64.0607C67.2794 64.342 66.8978 64.5 66.5 64.5ZM54.5 82.5C54.1022 82.5 53.7206 82.342 53.4393 82.0607C53.158 81.7794 53 81.3978 53 81V69C53 68.6022 53.158 68.2206 53.4393 67.9393C53.7206 67.658 54.1022 67.5 54.5 67.5C54.8978 67.5 55.2794 67.658 55.5607 67.9393C55.842 68.2206 56 68.6022 56 69V81C56 81.3978 55.842 81.7794 55.5607 82.0607C55.2794 82.342 54.8978 82.5 54.5 82.5ZM54.5 64.5C54.1022 64.5 53.7206 64.342 53.4393 64.0607C53.158 63.7794 53 63.3978 53 63V51C53 50.6022 53.158 50.2206 53.4393 49.9393C53.7206 49.658 54.1022 49.5 54.5 49.5C54.8978 49.5 55.2794 49.658 55.5607 49.9393C55.842 50.2206 56 50.6022 56 51V63C56 63.3978 55.842 63.7794 55.5607 64.0607C55.2794 64.342 54.8978 64.5 54.5 64.5ZM42.5 82.5C42.1022 82.5 41.7206 82.342 41.4393 82.0607C41.158 81.7794 41 81.3978 41 81V69C41 68.6022 41.158 68.2206 41.4393 67.9393C41.7206 67.658 42.1022 67.5 42.5 67.5C42.8978 67.5 43.2794 67.658 43.5607 67.9393C43.842 68.2206 44 68.6022 44 69V81C44 81.3978 43.842 81.7794 43.5607 82.0607C43.2794 82.342 42.8978 82.5 42.5 82.5ZM42.5 64.5C42.1022 64.5 41.7206 64.342 41.4393 64.0607C41.158 63.7794 41 63.3978 41 63V51C41 50.6022 41.158 50.2206 41.4393 49.9393C41.7206 49.658 42.1022 49.5 42.5 49.5C42.8978 49.5 43.2794 49.658 43.5607 49.9393C43.842 50.2206 44 50.6022 44 51V63C44 63.3978 43.842 63.7794 43.5607 64.0607C43.2794 64.342 42.8978 64.5 42.5 64.5ZM30.5 82.5C30.1022 82.5 29.7206 82.342 29.4393 82.0607C29.158 81.7794 29 81.3978 29 81V69C29 68.6022 29.158 68.2206 29.4393 67.9393C29.7206 67.658 30.1022 67.5 30.5 67.5C30.8978 67.5 31.2794 67.658 31.5607 67.9393C31.842 68.2206 32 68.6022 32 69V81C32 81.3978 31.842 81.7794 31.5607 82.0607C31.2794 82.342 30.8978 82.5 30.5 82.5ZM30.5 64.5C30.1022 64.5 29.7206 64.342 29.4393 64.0607C29.158 63.7794 29 63.3978 29 63V51C29 50.6022 29.158 50.2206 29.4393 49.9393C29.7206 49.658 30.1022 49.5 30.5 49.5C30.8978 49.5 31.2794 49.658 31.5607 49.9393C31.842 50.2206 32 50.6022 32 51V63C32 63.3978 31.842 63.7794 31.5607 64.0607C31.2794 64.342 30.8978 64.5 30.5 64.5ZM18.5 82.5C18.1022 82.5 17.7206 82.342 17.4393 82.0607C17.158 81.7794 17 81.3978 17 81V69C17 68.6022 17.158 68.2206 17.4393 67.9393C17.7206 67.658 18.1022 67.5 18.5 67.5C18.8978 67.5 19.2794 67.658 19.5607 67.9393C19.842 68.2206 20 68.6022 20 69V81C20 81.3978 19.842 81.7794 19.5607 82.0607C19.2794 82.342 18.8978 82.5 18.5 82.5ZM18.5 64.5C18.1022 64.5 17.7206 64.342 17.4393 64.0607C17.158 63.7794 17 63.3978 17 63V51C17 50.6022 17.158 50.2206 17.4393 49.9393C17.7206 49.658 18.1022 49.5 18.5 49.5C18.8978 49.5 19.2794 49.658 19.5607 49.9393C19.842 50.2206 20 50.6022 20 51V63C20 63.3978 19.842 63.7794 19.5607 64.0607C19.2794 64.342 18.8978 64.5 18.5 64.5Z" fill="#B4CDE1"/>
<path id="Vector_2" d="M63.5 7.5V9C63.5 10.5913 62.8679 12.1174 61.7426 13.2426C60.6174 14.3679 59.0913 15 57.5 15H48.5V13.5C48.5 11.9087 49.1321 10.3826 50.2574 9.25736C51.3826 8.13214 52.9087 7.5 54.5 7.5H63.5ZM48.5 13.5V15H39.5C37.9087 15 36.3826 14.3679 35.2574 13.2426C34.1321 12.1174 33.5 10.5913 33.5 9V7.5H42.5C44.0913 7.5 45.6174 8.13214 46.7426 9.25736C47.8679 10.3826 48.5 11.9087 48.5 13.5ZM66.5 21C66.5 23.3869 65.5518 25.6761 63.864 27.364C62.1761 29.0518 59.8869 30 57.5 30H48.5C48.5 27.6131 49.4482 25.3239 51.136 23.636C52.8239 21.9482 55.1131 21 57.5 21H66.5ZM48.5 30H39.5C37.1131 30 34.8239 29.0518 33.136 27.364C31.4482 25.6761 30.5 23.3869 30.5 21H39.5C41.8869 21 44.1761 21.9482 45.864 23.636C47.5518 25.3239 48.5 27.6131 48.5 30Z" fill="#0074FF"/>
<path id="Vector_3" d="M90.5 81V87C90.5 87.7956 90.1839 88.5587 89.6213 89.1213C89.0587 89.6839 88.2956 90 87.5 90H9.5C8.70435 90 7.94129 89.6839 7.37868 89.1213C6.81607 88.5587 6.5 87.7956 6.5 87V81H90.5Z" fill="#647499"/>
<path id="Vector_4" d="M90.5004 81V87H18.5004C16.641 86.9979 14.8279 86.4199 13.3103 85.3455C11.7927 84.2711 10.6452 82.7531 10.0254 81H90.5004Z" fill="#96A1C3"/>
<path id="Vector_5" d="M48.5 39C48.1022 39 47.7206 38.842 47.4393 38.5607C47.158 38.2794 47 37.8978 47 37.5V15C47 14.6022 47.158 14.2206 47.4393 13.9393C47.7206 13.658 48.1022 13.5 48.5 13.5C48.8978 13.5 49.2794 13.658 49.5607 13.9393C49.842 14.2206 50 14.6022 50 15V37.5C50 37.8978 49.842 38.2794 49.5607 38.5607C49.2794 38.842 48.8978 39 48.5 39Z" fill="#B4CDE1"/>
<path id="Vector_6" d="M18.5 70.5C17.61 70.5 16.74 70.2361 15.9999 69.7416C15.2599 69.2471 14.6831 68.5443 14.3425 67.7221C14.0019 66.8998 13.9128 65.995 14.0865 65.1221C14.2601 64.2492 14.6887 63.4474 15.318 62.818C15.9474 62.1887 16.7492 61.7601 17.6221 61.5865C18.495 61.4128 19.3998 61.502 20.2221 61.8425C21.0443 62.1831 21.7471 62.7599 22.2416 63.4999C22.7361 64.24 23 65.11 23 66C23 67.1935 22.5259 68.3381 21.682 69.182C20.8381 70.0259 19.6935 70.5 18.5 70.5ZM18.5 64.5C18.2033 64.5 17.9133 64.588 17.6666 64.7528C17.42 64.9176 17.2277 65.1519 17.1142 65.426C17.0007 65.7001 16.9709 66.0017 17.0288 66.2926C17.0867 66.5836 17.2296 66.8509 17.4393 67.0607C17.6491 67.2704 17.9164 67.4133 18.2074 67.4712C18.4983 67.5291 18.7999 67.4994 19.074 67.3858C19.3481 67.2723 19.5824 67.08 19.7472 66.8334C19.912 66.5867 20 66.2967 20 66C20 65.6022 19.842 65.2206 19.5607 64.9393C19.2794 64.658 18.8978 64.5 18.5 64.5Z" fill="url(#paint0_linear_5817_35799)"/>
<path id="Vector_7" d="M30.5 70.5C29.61 70.5 28.74 70.2361 27.9999 69.7416C27.2599 69.2471 26.6831 68.5443 26.3425 67.7221C26.0019 66.8998 25.9128 65.995 26.0865 65.1221C26.2601 64.2492 26.6887 63.4474 27.318 62.818C27.9474 62.1887 28.7492 61.7601 29.6221 61.5865C30.495 61.4128 31.3998 61.502 32.2221 61.8425C33.0443 62.1831 33.7472 62.7599 34.2416 63.4999C34.7361 64.24 35 65.11 35 66C35 67.1935 34.5259 68.3381 33.682 69.182C32.8381 70.0259 31.6935 70.5 30.5 70.5ZM30.5 64.5C30.2033 64.5 29.9133 64.588 29.6666 64.7528C29.42 64.9176 29.2277 65.1519 29.1142 65.426C29.0007 65.7001 28.9709 66.0017 29.0288 66.2926C29.0867 66.5836 29.2296 66.8509 29.4393 67.0607C29.6491 67.2704 29.9164 67.4133 30.2074 67.4712C30.4983 67.5291 30.7999 67.4994 31.074 67.3858C31.3481 67.2723 31.5824 67.08 31.7472 66.8334C31.912 66.5867 32 66.2967 32 66C32 65.6022 31.842 65.2206 31.5607 64.9393C31.2794 64.658 30.8978 64.5 30.5 64.5Z" fill="url(#paint1_linear_5817_35799)"/>
<path id="Vector_8" d="M42.5 70.5C41.61 70.5 40.74 70.2361 39.9999 69.7416C39.2599 69.2471 38.6831 68.5443 38.3425 67.7221C38.0019 66.8998 37.9128 65.995 38.0865 65.1221C38.2601 64.2492 38.6887 63.4474 39.318 62.818C39.9474 62.1887 40.7492 61.7601 41.6221 61.5865C42.495 61.4128 43.3998 61.502 44.2221 61.8425C45.0443 62.1831 45.7472 62.7599 46.2416 63.4999C46.7361 64.24 47 65.11 47 66C47 67.1935 46.5259 68.3381 45.682 69.182C44.8381 70.0259 43.6935 70.5 42.5 70.5ZM42.5 64.5C42.2033 64.5 41.9133 64.588 41.6666 64.7528C41.42 64.9176 41.2277 65.1519 41.1142 65.426C41.0007 65.7001 40.9709 66.0017 41.0288 66.2926C41.0867 66.5836 41.2296 66.8509 41.4393 67.0607C41.6491 67.2704 41.9164 67.4133 42.2074 67.4712C42.4983 67.5291 42.7999 67.4994 43.074 67.3858C43.3481 67.2723 43.5824 67.08 43.7472 66.8334C43.912 66.5867 44 66.2967 44 66C44 65.6022 43.842 65.2206 43.5607 64.9393C43.2794 64.658 42.8978 64.5 42.5 64.5Z" fill="url(#paint2_linear_5817_35799)"/>
<path id="Vector_9" d="M54.5 70.5C53.61 70.5 52.74 70.2361 51.9999 69.7416C51.2599 69.2471 50.6831 68.5443 50.3425 67.7221C50.002 66.8998 49.9128 65.995 50.0865 65.1221C50.2601 64.2492 50.6887 63.4474 51.318 62.818C51.9474 62.1887 52.7492 61.7601 53.6221 61.5865C54.495 61.4128 55.3998 61.502 56.2221 61.8425C57.0443 62.1831 57.7471 62.7599 58.2416 63.4999C58.7361 64.24 59 65.11 59 66C59 67.1935 58.5259 68.3381 57.682 69.182C56.8381 70.0259 55.6935 70.5 54.5 70.5ZM54.5 64.5C54.2033 64.5 53.9133 64.588 53.6666 64.7528C53.42 64.9176 53.2277 65.1519 53.1142 65.426C53.0007 65.7001 52.9709 66.0017 53.0288 66.2926C53.0867 66.5836 53.2296 66.8509 53.4393 67.0607C53.6491 67.2704 53.9164 67.4133 54.2074 67.4712C54.4983 67.5291 54.7999 67.4994 55.074 67.3858C55.3481 67.2723 55.5824 67.08 55.7472 66.8334C55.912 66.5867 56 66.2967 56 66C56 65.6022 55.842 65.2206 55.5607 64.9393C55.2794 64.658 54.8978 64.5 54.5 64.5Z" fill="url(#paint3_linear_5817_35799)"/>
<path id="Vector_10" d="M66.5 70.5C65.61 70.5 64.74 70.2361 63.9999 69.7416C63.2599 69.2471 62.6831 68.5443 62.3425 67.7221C62.002 66.8998 61.9128 65.995 62.0865 65.1221C62.2601 64.2492 62.6887 63.4474 63.318 62.818C63.9474 62.1887 64.7492 61.7601 65.6221 61.5865C66.495 61.4128 67.3998 61.502 68.2221 61.8425C69.0443 62.1831 69.7471 62.7599 70.2416 63.4999C70.7361 64.24 71 65.11 71 66C71 67.1935 70.5259 68.3381 69.682 69.182C68.8381 70.0259 67.6935 70.5 66.5 70.5ZM66.5 64.5C66.2033 64.5 65.9133 64.588 65.6666 64.7528C65.42 64.9176 65.2277 65.1519 65.1142 65.426C65.0007 65.7001 64.9709 66.0017 65.0288 66.2926C65.0867 66.5836 65.2296 66.8509 65.4393 67.0607C65.6491 67.2704 65.9164 67.4133 66.2074 67.4712C66.4983 67.5291 66.7999 67.4994 67.074 67.3858C67.3481 67.2723 67.5824 67.08 67.7472 66.8334C67.912 66.5867 68 66.2967 68 66C68 65.6022 67.842 65.2206 67.5607 64.9393C67.2794 64.658 66.8978 64.5 66.5 64.5Z" fill="url(#paint4_linear_5817_35799)"/>
<path id="Vector_11" d="M78.5 70.5C77.61 70.5 76.74 70.2361 75.9999 69.7416C75.2599 69.2471 74.6831 68.5443 74.3425 67.7221C74.002 66.8998 73.9128 65.995 74.0865 65.1221C74.2601 64.2492 74.6887 63.4474 75.318 62.818C75.9474 62.1887 76.7492 61.7601 77.6221 61.5865C78.495 61.4128 79.3998 61.502 80.2221 61.8425C81.0443 62.1831 81.7471 62.7599 82.2416 63.4999C82.7361 64.24 83 65.11 83 66C83 67.1935 82.5259 68.3381 81.682 69.182C80.8381 70.0259 79.6935 70.5 78.5 70.5ZM78.5 64.5C78.2033 64.5 77.9133 64.588 77.6666 64.7528C77.42 64.9176 77.2277 65.1519 77.1142 65.426C77.0007 65.7001 76.9709 66.0017 77.0288 66.2926C77.0867 66.5836 77.2296 66.8509 77.4393 67.0607C77.6491 67.2704 77.9164 67.4133 78.2074 67.4712C78.4983 67.5291 78.7999 67.4994 79.074 67.3858C79.3481 67.2723 79.5824 67.08 79.7472 66.8334C79.912 66.5867 80 66.2967 80 66C80 65.6022 79.842 65.2206 79.5607 64.9393C79.2794 64.658 78.8978 64.5 78.5 64.5Z" fill="url(#paint5_linear_5817_35799)"/>
<path id="Vector_12" d="M59.8411 37.875L57.1861 48L56.3911 51H40.6111L37.1611 37.875C37.1027 37.6494 37.0977 37.4133 37.1465 37.1855C37.1952 36.9576 37.2964 36.7442 37.442 36.5622C37.5876 36.3803 37.7735 36.2347 37.9851 36.1371C38.1968 36.0395 38.4282 35.9926 38.6611 36H58.4011C58.629 36.0019 58.8534 36.0557 59.0574 36.1573C59.2614 36.2589 59.4396 36.4056 59.5784 36.5863C59.7172 36.7671 59.813 36.9771 59.8585 37.2004C59.904 37.4236 59.8981 37.6544 59.8411 37.875Z" fill="#96A1C3"/>
<path id="Vector_13" d="M59.8409 37.875L57.1859 48H48.9359C47.4112 48.0004 45.9293 47.4958 44.7217 46.565C43.5141 45.6342 42.6487 44.3296 42.2609 42.855L40.4609 36H58.4609C58.6837 36.0107 58.9013 36.0709 59.0978 36.1763C59.2943 36.2817 59.4649 36.4295 59.5971 36.6091C59.7293 36.7887 59.8198 36.9956 59.8619 37.2145C59.9041 37.4335 59.8969 37.6591 59.8409 37.875Z" fill="#CCD3EB"/>
<path id="Vector_14" d="M84.5 52.5H12.5C12.1022 52.5 11.7206 52.342 11.4393 52.0607C11.158 51.7794 11 51.3978 11 51C11 50.6022 11.158 50.2206 11.4393 49.9393C11.7206 49.658 12.1022 49.5 12.5 49.5H84.5C84.8978 49.5 85.2794 49.658 85.5607 49.9393C85.842 50.2206 86 50.6022 86 51C86 51.3978 85.842 51.7794 85.5607 52.0607C85.2794 52.342 84.8978 52.5 84.5 52.5Z" fill="#B4CDE1"/>
<path id="Vector_15" d="M90.5 79.5H80V70.23C80.8687 69.9147 81.6193 69.3396 82.1497 68.5828C82.6802 67.826 82.9647 66.9242 82.9647 66C82.9647 65.0758 82.6802 64.174 82.1497 63.4172C81.6193 62.6604 80.8687 62.0853 80 61.77V52.5H84.5C84.8978 52.5 85.2794 52.342 85.5607 52.0607C85.842 51.7794 86 51.3978 86 51C86 50.6022 85.842 50.2206 85.5607 49.9393C85.2794 49.658 84.8978 49.5 84.5 49.5H58.34L61.34 38.265C61.458 37.8178 61.471 37.3494 61.3779 36.8963C61.2849 36.4433 61.0884 36.0179 60.8037 35.6534C60.5191 35.2888 60.154 34.9951 59.737 34.795C59.3201 34.5949 58.8625 34.4939 58.4 34.5H50V31.5H57.5C60.2848 31.5 62.9555 30.3938 64.9246 28.4246C66.8938 26.4555 68 23.7848 68 21C68 20.6022 67.842 20.2206 67.5607 19.9393C67.2794 19.658 66.8978 19.5 66.5 19.5H57.5C56.1021 19.5018 54.7187 19.7826 53.4308 20.3261C52.1429 20.8696 50.9765 21.6648 50 22.665V15H57.5C59.4891 15 61.3968 14.2098 62.8033 12.8033C64.2098 11.3968 65 9.48912 65 7.5V6C65 5.60218 64.842 5.22064 64.5607 4.93934C64.2794 4.65804 63.8978 4.5 63.5 4.5H54.5C53.3357 4.5 52.1873 4.77109 51.1459 5.2918C50.1045 5.8125 49.1986 6.56853 48.5 7.5C47.8014 6.56853 46.8955 5.8125 45.8541 5.2918C44.8127 4.77109 43.6643 4.5 42.5 4.5H33.5C33.1022 4.5 32.7206 4.65804 32.4393 4.93934C32.158 5.22064 32 5.60218 32 6V7.5C32 9.48912 32.7902 11.3968 34.1967 12.8033C35.6032 14.2098 37.5109 15 39.5 15H47V22.665C46.0235 21.6648 44.8571 20.8696 43.5692 20.3261C42.2813 19.7826 40.8979 19.5018 39.5 19.5H30.5C30.1022 19.5 29.7206 19.658 29.4393 19.9393C29.158 20.2206 29 20.6022 29 21C29 23.7848 30.1062 26.4555 32.0754 28.4246C34.0445 30.3938 36.7152 31.5 39.5 31.5H47V34.5H38.6C38.1413 34.5009 37.689 34.6069 37.2777 34.81C36.8664 35.0131 36.5072 35.3077 36.2276 35.6713C35.948 36.0349 35.7555 36.4578 35.6649 36.9074C35.5743 37.3571 35.588 37.8215 35.705 38.265L38.705 49.5H12.5C12.1022 49.5 11.7206 49.658 11.4393 49.9393C11.158 50.2206 11 50.6022 11 51C11 51.3978 11.158 51.7794 11.4393 52.0607C11.7206 52.342 12.1022 52.5 12.5 52.5H17V61.77C16.1313 62.0853 15.3807 62.6604 14.8503 63.4172C14.3198 64.174 14.0353 65.0758 14.0353 66C14.0353 66.9242 14.3198 67.826 14.8503 68.5828C15.3807 69.3396 16.1313 69.9147 17 70.23V79.5H6.5C6.10218 79.5 5.72064 79.658 5.43934 79.9393C5.15804 80.2206 5 80.6022 5 81V87C5 88.1935 5.47411 89.3381 6.31802 90.182C7.16193 91.0259 8.30653 91.5 9.5 91.5H60.5C60.8978 91.5 61.2794 91.342 61.5607 91.0607C61.842 90.7794 62 90.3978 62 90C62 89.6022 61.842 89.2206 61.5607 88.9393C61.2794 88.658 60.8978 88.5 60.5 88.5H9.5C9.10218 88.5 8.72064 88.342 8.43934 88.0607C8.15804 87.7794 8 87.3978 8 87V82.5H89V87C89 87.3978 88.842 87.7794 88.5607 88.0607C88.2794 88.342 87.8978 88.5 87.5 88.5H74C73.6022 88.5 73.2206 88.658 72.9393 88.9393C72.658 89.2206 72.5 89.6022 72.5 90C72.5 90.3978 72.658 90.7794 72.9393 91.0607C73.2206 91.342 73.6022 91.5 74 91.5H87.5C88.6935 91.5 89.8381 91.0259 90.682 90.182C91.5259 89.3381 92 88.1935 92 87V81C92 80.6022 91.842 80.2206 91.5607 79.9393C91.2794 79.658 90.8978 79.5 90.5 79.5ZM57.5 22.5H64.85C64.5042 24.194 63.5837 25.7166 62.2444 26.81C60.905 27.9033 59.229 28.5004 57.5 28.5H50.15C50.4958 26.806 51.4163 25.2834 52.7556 24.19C54.095 23.0967 55.771 22.4996 57.5 22.5ZM39.5 28.5C37.771 28.5004 36.095 27.9033 34.7556 26.81C33.4163 25.7166 32.4958 24.194 32.15 22.5H39.5C41.229 22.4996 42.905 23.0967 44.2444 24.19C45.5837 25.2834 46.5042 26.806 46.85 28.5H39.5ZM54.5 7.5H62C62 8.69347 61.5259 9.83807 60.682 10.682C59.8381 11.5259 58.6935 12 57.5 12H50C50 10.8065 50.4741 9.66193 51.318 8.81802C52.1619 7.97411 53.3065 7.5 54.5 7.5ZM35 7.5H42.5C43.6935 7.5 44.8381 7.97411 45.682 8.81802C46.5259 9.66193 47 10.8065 47 12H39.5C38.3065 12 37.1619 11.5259 36.318 10.682C35.4741 9.83807 35 8.69347 35 7.5ZM78.5 67.5C78.2033 67.5 77.9133 67.412 77.6666 67.2472C77.42 67.0824 77.2277 66.8481 77.1142 66.574C77.0007 66.2999 76.9709 65.9983 77.0288 65.7074C77.0867 65.4164 77.2296 65.1491 77.4393 64.9393C77.6491 64.7296 77.9164 64.5867 78.2074 64.5288C78.4983 64.4709 78.7999 64.5007 79.074 64.6142C79.3481 64.7277 79.5824 64.92 79.7472 65.1666C79.912 65.4133 80 65.7033 80 66C80 66.3978 79.842 66.7794 79.5607 67.0607C79.2794 67.342 78.8978 67.5 78.5 67.5ZM77 61.77C76.1313 62.0853 75.3807 62.6604 74.8503 63.4172C74.3198 64.174 74.0353 65.0758 74.0353 66C74.0353 66.9242 74.3198 67.826 74.8503 68.5828C75.3807 69.3396 76.1313 69.9147 77 70.23V79.5H68V70.23C68.8687 69.9147 69.6193 69.3396 70.1497 68.5828C70.6802 67.826 70.9647 66.9242 70.9647 66C70.9647 65.0758 70.6802 64.174 70.1497 63.4172C69.6193 62.6604 68.8687 62.0853 68 61.77V52.5H77V61.77ZM30.5 64.5C30.7967 64.5 31.0867 64.588 31.3334 64.7528C31.58 64.9176 31.7723 65.1519 31.8858 65.426C31.9993 65.7001 32.0291 66.0017 31.9712 66.2926C31.9133 66.5836 31.7704 66.8509 31.5607 67.0607C31.3509 67.2704 31.0836 67.4133 30.7926 67.4712C30.5017 67.5291 30.2001 67.4993 29.926 67.3858C29.6519 67.2723 29.4176 67.08 29.2528 66.8334C29.088 66.5867 29 66.2967 29 66C29 65.6022 29.158 65.2206 29.4393 64.9393C29.7206 64.658 30.1022 64.5 30.5 64.5ZM32 70.23C32.8687 69.9147 33.6193 69.3396 34.1497 68.5828C34.6802 67.826 34.9647 66.9242 34.9647 66C34.9647 65.0758 34.6802 64.174 34.1497 63.4172C33.6193 62.6604 32.8687 62.0853 32 61.77V52.5H41V61.77C40.1313 62.0853 39.3807 62.6604 38.8503 63.4172C38.3198 64.174 38.0353 65.0758 38.0353 66C38.0353 66.9242 38.3198 67.826 38.8503 68.5828C39.3807 69.3396 40.1313 69.9147 41 70.23V79.5H32V70.23ZM42.5 67.5C42.2033 67.5 41.9133 67.412 41.6666 67.2472C41.42 67.0824 41.2277 66.8481 41.1142 66.574C41.0007 66.2999 40.9709 65.9983 41.0288 65.7074C41.0867 65.4164 41.2296 65.1491 41.4393 64.9393C41.6491 64.7296 41.9164 64.5867 42.2074 64.5288C42.4983 64.4709 42.7999 64.5007 43.074 64.6142C43.3481 64.7277 43.5824 64.92 43.7472 65.1666C43.912 65.4133 44 65.7033 44 66C44 66.3978 43.842 66.7794 43.5607 67.0607C43.2794 67.342 42.8978 67.5 42.5 67.5ZM44 70.23C44.8687 69.9147 45.6193 69.3396 46.1497 68.5828C46.6802 67.826 46.9647 66.9242 46.9647 66C46.9647 65.0758 46.6802 64.174 46.1497 63.4172C45.6193 62.6604 44.8687 62.0853 44 61.77V52.5H53V61.77C52.1313 62.0853 51.3807 62.6604 50.8503 63.4172C50.3198 64.174 50.0353 65.0758 50.0353 66C50.0353 66.9242 50.3198 67.826 50.8503 68.5828C51.3807 69.3396 52.1313 69.9147 53 70.23V79.5H44V70.23ZM54.5 67.5C54.2033 67.5 53.9133 67.412 53.6666 67.2472C53.42 67.0824 53.2277 66.8481 53.1142 66.574C53.0007 66.2999 52.9709 65.9983 53.0288 65.7074C53.0867 65.4164 53.2296 65.1491 53.4393 64.9393C53.6491 64.7296 53.9164 64.5867 54.2074 64.5288C54.4983 64.4709 54.7999 64.5007 55.074 64.6142C55.3481 64.7277 55.5824 64.92 55.7472 65.1666C55.912 65.4133 56 65.7033 56 66C56 66.3978 55.842 66.7794 55.5607 67.0607C55.2794 67.342 54.8978 67.5 54.5 67.5ZM56 70.23C56.8687 69.9147 57.6193 69.3396 58.1497 68.5828C58.6802 67.826 58.9647 66.9242 58.9647 66C58.9647 65.0758 58.6802 64.174 58.1497 63.4172C57.6193 62.6604 56.8687 62.0853 56 61.77V52.5H65V61.77C64.1313 62.0853 63.3807 62.6604 62.8503 63.4172C62.3198 64.174 62.0353 65.0758 62.0353 66C62.0353 66.9242 62.3198 67.826 62.8503 68.5828C63.3807 69.3396 64.1313 69.9147 65 70.23V79.5H56V70.23ZM66.5 67.5C66.2033 67.5 65.9133 67.412 65.6666 67.2472C65.42 67.0824 65.2277 66.8481 65.1142 66.574C65.0007 66.2999 64.9709 65.9983 65.0288 65.7074C65.0867 65.4164 65.2296 65.1491 65.4393 64.9393C65.6491 64.7296 65.9164 64.5867 66.2074 64.5288C66.4983 64.4709 66.7999 64.5007 67.074 64.6142C67.3481 64.7277 67.5824 64.92 67.7472 65.1666C67.912 65.4133 68 65.7033 68 66C68 66.3978 67.842 66.7794 67.5607 67.0607C67.2794 67.342 66.8978 67.5 66.5 67.5ZM38.6 37.5H58.4L55.235 49.5H41.735L38.6 37.5ZM18.5 64.5C18.7967 64.5 19.0867 64.588 19.3334 64.7528C19.58 64.9176 19.7723 65.1519 19.8858 65.426C19.9994 65.7001 20.0291 66.0017 19.9712 66.2926C19.9133 66.5836 19.7704 66.8509 19.5607 67.0607C19.3509 67.2704 19.0836 67.4133 18.7926 67.4712C18.5017 67.5291 18.2001 67.4993 17.926 67.3858C17.6519 67.2723 17.4176 67.08 17.2528 66.8334C17.088 66.5867 17 66.2967 17 66C17 65.6022 17.158 65.2206 17.4393 64.9393C17.7206 64.658 18.1022 64.5 18.5 64.5ZM20 70.23C20.8687 69.9147 21.6193 69.3396 22.1497 68.5828C22.6802 67.826 22.9647 66.9242 22.9647 66C22.9647 65.0758 22.6802 64.174 22.1497 63.4172C21.6193 62.6604 20.8687 62.0853 20 61.77V52.5H29V61.77C28.1313 62.0853 27.3807 62.6604 26.8503 63.4172C26.3198 64.174 26.0353 65.0758 26.0353 66C26.0353 66.9242 26.3198 67.826 26.8503 68.5828C27.3807 69.3396 28.1313 69.9147 29 70.23V79.5H20V70.23Z" fill="#033C59"/>
<path id="Vector_16" d="M68 88.5H66.5C66.1022 88.5 65.7206 88.658 65.4393 88.9393C65.158 89.2206 65 89.6022 65 90C65 90.3978 65.158 90.7794 65.4393 91.0607C65.7206 91.342 66.1022 91.5 66.5 91.5H68C68.3978 91.5 68.7794 91.342 69.0607 91.0607C69.342 90.7794 69.5 90.3978 69.5 90C69.5 89.6022 69.342 89.2206 69.0607 88.9393C68.7794 88.658 68.3978 88.5 68 88.5Z" fill="#033C59"/>
<path id="Vector_17" d="M18.5 67.5C19.3284 67.5 20 66.8284 20 66C20 65.1716 19.3284 64.5 18.5 64.5C17.6716 64.5 17 65.1716 17 66C17 66.8284 17.6716 67.5 18.5 67.5Z" fill="#0074FF"/>
<path id="Vector_18" d="M30.5 67.5C31.3284 67.5 32 66.8284 32 66C32 65.1716 31.3284 64.5 30.5 64.5C29.6716 64.5 29 65.1716 29 66C29 66.8284 29.6716 67.5 30.5 67.5Z" fill="#0074FF"/>
<path id="Vector_19" d="M42.5 67.5C43.3284 67.5 44 66.8284 44 66C44 65.1716 43.3284 64.5 42.5 64.5C41.6716 64.5 41 65.1716 41 66C41 66.8284 41.6716 67.5 42.5 67.5Z" fill="#0074FF"/>
<path id="Vector_20" d="M54.5 67.5C55.3284 67.5 56 66.8284 56 66C56 65.1716 55.3284 64.5 54.5 64.5C53.6716 64.5 53 65.1716 53 66C53 66.8284 53.6716 67.5 54.5 67.5Z" fill="#0074FF"/>
<path id="Vector_21" d="M66.5 67.5C67.3284 67.5 68 66.8284 68 66C68 65.1716 67.3284 64.5 66.5 64.5C65.6716 64.5 65 65.1716 65 66C65 66.8284 65.6716 67.5 66.5 67.5Z" fill="#0074FF"/>
<path id="Vector_22" d="M78.5 67.5C79.3284 67.5 80 66.8284 80 66C80 65.1716 79.3284 64.5 78.5 64.5C77.6716 64.5 77 65.1716 77 66C77 66.8284 77.6716 67.5 78.5 67.5Z" fill="#0074FF"/>
</g>
<defs>
<linearGradient id="paint0_linear_5817_35799" x1="15.32" y1="69.18" x2="21.68" y2="62.82" gradientUnits="userSpaceOnUse">
<stop stop-color="#54A5FF"/>
<stop offset="1" stop-color="#8AD3FE"/>
</linearGradient>
<linearGradient id="paint1_linear_5817_35799" x1="27.32" y1="69.18" x2="33.68" y2="62.82" gradientUnits="userSpaceOnUse">
<stop stop-color="#54A5FF"/>
<stop offset="1" stop-color="#8AD3FE"/>
</linearGradient>
<linearGradient id="paint2_linear_5817_35799" x1="39.32" y1="69.18" x2="45.68" y2="62.82" gradientUnits="userSpaceOnUse">
<stop stop-color="#54A5FF"/>
<stop offset="1" stop-color="#8AD3FE"/>
</linearGradient>
<linearGradient id="paint3_linear_5817_35799" x1="51.32" y1="69.18" x2="57.68" y2="62.82" gradientUnits="userSpaceOnUse">
<stop stop-color="#54A5FF"/>
<stop offset="1" stop-color="#8AD3FE"/>
</linearGradient>
<linearGradient id="paint4_linear_5817_35799" x1="63.32" y1="69.18" x2="69.68" y2="62.82" gradientUnits="userSpaceOnUse">
<stop stop-color="#54A5FF"/>
<stop offset="1" stop-color="#8AD3FE"/>
</linearGradient>
<linearGradient id="paint5_linear_5817_35799" x1="75.32" y1="69.18" x2="81.68" y2="62.82" gradientUnits="userSpaceOnUse">
<stop stop-color="#54A5FF"/>
<stop offset="1" stop-color="#8AD3FE"/>
</linearGradient>
</defs>
</svg>
