<svg width="97" height="96" viewBox="0 0 97 96" fill="none" xmlns="http://www.w3.org/2000/svg">
<g id="bathroom" clipPath="url(#clip0_5817_35990)">
<path id="Vector" d="M44.482 13.6481V27.5117C44.482 29.1705 43.1372 30.5152 41.4784 30.5152H36.6286C34.9697 30.5152 33.625 29.1705 33.625 27.5117V13.6481C33.625 11.9893 34.9697 10.6445 36.6286 10.6445H41.4784C43.1374 10.6447 44.482 11.9895 44.482 13.6481Z" fill="#FA8AA2"/>
<path id="Vector_2" opacity="0.1" d="M39.7993 30.517H36.6294C34.9756 30.517 33.6172 29.1783 33.6172 27.5048V13.6448C33.6172 11.9911 34.9756 10.6523 36.6294 10.6523H39.7993C38.1455 10.6523 36.8068 11.9911 36.8068 13.6448V27.5048C36.8066 29.1783 38.1453 30.517 39.7993 30.517Z" fill="black"/>
<path id="Vector_3" d="M95.75 55.7575C95.75 57.5736 94.2776 59.0462 92.4612 59.0462H4.53875C2.72263 59.0462 1.25 57.5738 1.25 55.7575C1.25 53.9414 2.72244 52.4688 4.53875 52.4688H92.4612C94.2776 52.4689 95.75 53.9412 95.75 55.7575Z" fill="#13277E"/>
<path id="Vector_4" opacity="0.1" d="M95.7498 55.7566C95.7498 56.3669 95.5921 56.9179 95.2773 57.4103C94.7458 56.4259 93.6826 55.7566 92.462 55.7566H4.53781C3.31719 55.7566 2.25425 56.4259 1.7225 57.4103C1.40769 56.9181 1.25 56.3669 1.25 55.7566C1.25 53.9451 2.72656 52.4688 4.53781 52.4688H92.462C94.2731 52.4688 95.7498 53.9453 95.7498 55.7566Z" fill="black"/>
<path id="Vector_5" d="M75.3981 89.2441H21.6055V90.5223C21.6055 92.6968 23.3683 94.4598 25.543 94.4598H71.461C73.6354 94.4598 75.3985 92.697 75.3985 90.5223V89.2441H75.3981Z" fill="#13277E"/>
<path id="Vector_6" d="M91.6995 59.0449C88.473 62.6298 86.6877 67.2822 86.6878 72.1052V77.5922C86.6878 84.0276 81.4708 89.2448 75.0352 89.2448H21.9648C15.5295 89.2448 10.3123 84.0278 10.3123 77.5922V72.1052C10.3123 67.2824 8.52691 62.6299 5.30078 59.0449H91.6995Z" fill="#FEFEFE"/>
<path id="Vector_7" opacity="0.1" d="M86.3015 71.957C84.9907 76.9475 80.4533 80.642 75.0397 80.642H21.9623C16.5487 80.642 12.0113 76.9475 10.7005 71.957H10.3008C10.3012 72.0041 10.3072 72.0506 10.3072 72.0977V77.5903C10.3072 84.0281 15.5243 89.2455 21.9623 89.2455H75.0397C81.4775 89.2455 86.6948 84.0283 86.6948 77.5903V72.0977C86.6948 72.0504 86.7008 72.0041 86.7014 71.957H86.3015Z" fill="black"/>
<path id="Vector_8" d="M75.6381 29.5557C75.5781 29.6817 75.4939 29.7946 75.3902 29.888C75.2865 29.9814 75.1655 30.0534 75.034 30.1C74.9025 30.1466 74.7631 30.1668 74.6237 30.1595C74.4844 30.1522 74.3479 30.1176 74.222 30.0575L61.6951 24.0851C61.5691 24.025 61.4562 23.9408 61.3628 23.8371C61.2695 23.7335 61.1974 23.6124 61.1508 23.4809C61.1042 23.3494 61.084 23.21 61.0913 23.0707C61.0986 22.9313 61.1333 22.7948 61.1933 22.6689C63.095 18.68 67.8704 16.988 71.8595 18.89C75.848 20.7916 77.54 25.5669 75.6381 29.5557Z" fill="#37D0F9"/>
<path id="Vector_9" opacity="0.1" d="M75.4507 22.328C75.3328 22.2494 75.2145 22.1904 75.0966 22.1311C73.9744 21.5995 72.7931 21.3436 71.6512 21.3436C68.7966 21.3436 66.06 22.8595 64.6425 25.4979L61.6894 24.0804C61.1578 23.8244 60.9412 23.1944 61.1972 22.6629C62.5556 19.7885 65.4298 18.1152 68.4225 18.1152C69.5841 18.1152 70.7456 18.3515 71.8481 18.883C73.4424 19.6505 74.6829 20.8711 75.4507 22.328Z" fill="black"/>
<path id="Vector_10" d="M34.2679 52.4629V75.4684C34.2679 77.2174 32.8502 78.6349 31.1012 78.6349H18.8657C17.1167 78.6349 15.6992 77.2172 15.6992 75.4684V52.4629H34.2679Z" fill="#FACB00"/>
<path id="Vector_11" opacity="0.1" d="M15.6992 52.4688H34.2645V57.8828H15.6992V52.4688Z" fill="black"/>
<path id="Vector_12" d="M27.4545 16.1182V28.2952C27.4545 29.5213 26.4603 30.5154 25.2343 30.5154H13.4272C12.2012 30.5154 11.207 29.5213 11.207 28.2952V16.1182C11.207 13.0899 13.662 10.6348 16.6905 10.6348H21.9712C24.9997 10.6348 27.4545 13.0895 27.4545 16.1182Z" fill="#72B505"/>
<path id="Vector_13" opacity="0.1" d="M27.4536 16.1256V28.2925C27.4536 29.5131 26.4692 30.5172 25.2289 30.5172H20.7992C22.0198 30.5172 23.0239 29.5131 23.0239 28.2925V16.1256C23.0239 13.0936 20.5629 10.6328 17.5312 10.6328H21.9808C24.9926 10.6326 27.4536 13.0937 27.4536 16.1256Z" fill="black"/>
<path id="Vector_14" d="M41.3038 7.4953V10.6451H36.7969V7.4953C36.7969 7.17072 36.9258 6.85944 37.1553 6.62993C37.3848 6.40042 37.6961 6.27148 38.0207 6.27148H40.0798C40.2405 6.27144 40.3997 6.30306 40.5482 6.36454C40.6967 6.42602 40.8317 6.51616 40.9454 6.62981C41.059 6.74346 41.1492 6.87839 41.2107 7.02689C41.2722 7.17539 41.3038 7.33456 41.3038 7.4953Z" fill="#13277E"/>
<path id="Vector_15" d="M95.75 93.7111H74.8863C75.6657 92.8736 76.1467 91.7551 76.1467 90.5236V89.9394C82.466 89.3748 87.4376 84.057 87.4376 77.5931V72.1063C87.4376 67.569 89.081 63.2146 92.0534 59.7958H92.4612C94.6876 59.7958 96.4998 57.9841 96.4998 55.7572C96.4998 53.5303 94.6878 51.7186 92.4612 51.7186H85.337V21.2056C85.337 17.199 82.0771 13.9395 78.0708 13.9395C75.3264 13.9395 72.8229 15.5098 71.5822 17.964C67.3559 16.3192 62.4984 18.1888 60.5159 22.3466C60.0845 23.2496 60.4672 24.3311 61.3713 24.7629L73.8986 30.7351C74.8059 31.1688 75.8851 30.7798 76.3141 29.8798C78.2746 25.769 76.7484 20.9056 72.9288 18.6157C73.9115 16.6824 75.8962 15.4398 78.0703 15.4398C81.2497 15.4398 83.8366 18.0268 83.8366 21.2062V51.7192C4.20688 51.7136 14.7479 51.7192 4.53819 51.7192C2.31163 51.7188 0.5 53.5305 0.5 55.7574C0.5 57.9843 2.31162 59.796 4.53856 59.796H4.94675C7.91919 63.2146 9.56206 67.5686 9.56206 72.1065V77.5933C9.56206 84.0568 14.5342 89.3748 20.8533 89.9396V90.5238C20.8533 91.7553 21.3343 92.8739 22.1137 93.7113H1.25C1.05109 93.7113 0.860322 93.7903 0.71967 93.931C0.579018 94.0717 0.5 94.2624 0.5 94.4613C0.5 94.6602 0.579018 94.851 0.71967 94.9917C0.860322 95.1323 1.05109 95.2113 1.25 95.2113H95.7496C96.1642 95.2113 96.4996 94.8755 96.4996 94.4613C96.4997 94.3628 96.4803 94.2653 96.4427 94.1743C96.405 94.0833 96.3498 94.0006 96.2802 93.931C96.2106 93.8613 96.1279 93.806 96.037 93.7683C95.946 93.7306 95.8485 93.7112 95.75 93.7111ZM74.9607 29.2333C74.9607 29.2336 74.96 29.234 74.96 29.234C74.9425 29.271 74.9179 29.3042 74.8875 29.3317C74.8571 29.3592 74.8216 29.3803 74.783 29.394C74.7444 29.4077 74.7034 29.4136 74.6625 29.4113C74.6216 29.4091 74.5816 29.3988 74.5447 29.381L62.0167 23.4086C61.942 23.3729 61.8846 23.309 61.857 23.2309C61.8294 23.1529 61.8339 23.0671 61.8695 22.9923C63.6967 19.1608 68.3922 17.8411 71.6546 19.6318C75.1957 21.3991 76.6638 25.6614 74.9607 29.2333ZM92.4612 53.2186C93.8609 53.2186 94.9998 54.3577 94.9998 55.7572C94.9998 57.1569 93.8607 58.2958 92.4612 58.2958H35.0176V53.2186H92.4612ZM33.5176 53.214V75.4696C33.5176 76.8022 32.4337 77.8863 31.1009 77.8863H18.8652C17.5327 77.8863 16.4486 76.8024 16.4486 75.4696V53.214H33.5176ZM4.53875 58.2958C3.13906 58.2958 2.00019 57.1567 2.00019 55.7572C2.00019 54.3575 3.13925 53.2186 4.53875 53.2186H14.9486V58.2958H4.53875ZM21.9648 88.4956C15.9532 88.4956 11.0623 83.6051 11.0623 77.5931V72.1063C11.0623 67.6342 9.59375 63.3213 6.89731 59.7958H14.9486V75.4695C14.9486 77.6291 16.7056 79.386 18.8651 79.386H31.1007C33.2604 79.386 35.0172 77.6289 35.0172 75.4695V59.7958H90.1027C87.3985 63.3297 85.9346 67.6564 85.9374 72.1063V77.5931C85.9374 83.6047 81.047 88.4956 75.0352 88.4956H21.9648ZM74.6465 90.5236C74.6465 92.2811 73.2168 93.7111 71.459 93.7111H25.5412C23.7837 93.7111 22.3537 92.2811 22.3537 90.5236V89.9956H74.6469V90.5236H74.6465Z" fill="black"/>
<path id="Vector_16" d="M63.062 27.3231C62.9731 27.2806 62.8767 27.256 62.7783 27.2508C62.6799 27.2457 62.5814 27.2599 62.4886 27.2929C62.3957 27.3258 62.3102 27.3768 62.2371 27.4428C62.1639 27.5088 62.1045 27.5887 62.0623 27.6777L61.5562 28.7393C61.5114 28.8285 61.4848 28.9257 61.4781 29.0252C61.4713 29.1248 61.4845 29.2247 61.5168 29.3191C61.5492 29.4135 61.6 29.5005 61.6664 29.575C61.7328 29.6495 61.8134 29.71 61.9035 29.7529C61.9936 29.7958 62.0913 29.8204 62.191 29.825C62.2907 29.8297 62.3903 29.8145 62.484 29.7802C62.5777 29.7458 62.6636 29.6932 62.7367 29.6252C62.8098 29.5573 62.8685 29.4754 62.9096 29.3845L63.4157 28.3229C63.5013 28.1434 63.5122 27.9373 63.4458 27.7498C63.3795 27.5623 63.2415 27.4088 63.062 27.3231ZM59.919 33.9149C60.0079 33.9572 60.1043 33.9817 60.2027 33.9868C60.301 33.9919 60.3994 33.9776 60.4923 33.9447C60.5851 33.9117 60.6706 33.8609 60.7437 33.7949C60.8169 33.729 60.8764 33.6492 60.9187 33.5603L61.4248 32.4987C61.4696 32.4095 61.4962 32.3123 61.5029 32.2128C61.5097 32.1132 61.4965 32.0133 61.4642 31.9189C61.4318 31.8245 61.381 31.7375 61.3146 31.663C61.2482 31.5885 61.1676 31.528 61.0775 31.4851C60.9874 31.4422 60.8897 31.4176 60.79 31.4129C60.6903 31.4083 60.5907 31.4235 60.497 31.4578C60.4033 31.4921 60.3174 31.5448 60.2443 31.6128C60.1712 31.6807 60.1125 31.7625 60.0714 31.8535L59.5653 32.9151C59.5229 33.004 59.4984 33.1003 59.4932 33.1987C59.488 33.297 59.5022 33.3954 59.535 33.4883C59.5679 33.5811 59.6187 33.6666 59.6845 33.7398C59.7504 33.813 59.8301 33.8725 59.919 33.9149ZM57.9275 38.0901C58.107 38.1758 58.3131 38.1866 58.5006 38.1203C58.6881 38.054 58.8416 37.9159 58.9273 37.7365L59.4341 36.6749C59.4766 36.586 59.5012 36.4897 59.5064 36.3913C59.5116 36.293 59.4974 36.1945 59.4646 36.1017C59.4317 36.0088 59.3809 35.9234 59.315 35.8502C59.2491 35.777 59.1694 35.7175 59.0805 35.6751C58.9916 35.6326 58.8953 35.608 58.7969 35.6027C58.6985 35.5974 58.6001 35.6116 58.5072 35.6445C58.4144 35.6773 58.3289 35.7282 58.2557 35.7941C58.1825 35.8601 58.123 35.9398 58.0807 36.0287L57.5739 37.0904C57.5314 37.1792 57.5068 37.2756 57.5016 37.3739C57.4964 37.4723 57.5106 37.5707 57.5434 37.6636C57.5763 37.7564 57.6271 37.8419 57.693 37.9151C57.7589 37.9883 57.8386 38.0478 57.9275 38.0901ZM55.937 42.2663C56.026 42.3087 56.1224 42.3331 56.2207 42.3382C56.3191 42.3433 56.4175 42.329 56.5103 42.2961C56.6032 42.2632 56.6886 42.2123 56.7618 42.1463C56.835 42.0804 56.8944 42.0007 56.9368 41.9117L57.4428 40.8501C57.4853 40.7613 57.5098 40.6649 57.515 40.5666C57.5202 40.4682 57.5059 40.3698 57.4731 40.277C57.4403 40.1842 57.3895 40.0987 57.3236 40.0255C57.2577 39.9523 57.1781 39.8928 57.0892 39.8504C57.0003 39.8078 56.9039 39.7832 56.8055 39.778C56.7071 39.7728 56.6086 39.787 56.5157 39.82C56.4228 39.8529 56.3373 39.9039 56.2642 39.97C56.1911 40.036 56.1317 40.1159 56.0895 40.2049L55.5834 41.2666C55.5409 41.3554 55.5163 41.4518 55.5111 41.5501C55.5059 41.6485 55.5201 41.7469 55.5529 41.8398C55.5858 41.9326 55.6366 42.0181 55.7025 42.0913C55.7684 42.1645 55.8481 42.2239 55.937 42.2663ZM65.9593 31.2668C65.8704 31.2242 65.774 31.1996 65.6756 31.1944C65.5771 31.1892 65.4786 31.2035 65.3858 31.2364C65.2929 31.2694 65.2074 31.3203 65.1342 31.3864C65.0611 31.4524 65.0017 31.5323 64.9595 31.6214L64.4535 32.683C64.4087 32.7722 64.3821 32.8694 64.3753 32.9689C64.3686 33.0685 64.3817 33.1684 64.4141 33.2628C64.4464 33.3572 64.4973 33.4442 64.5637 33.5187C64.6301 33.5932 64.7107 33.6536 64.8007 33.6966C64.8908 33.7395 64.9886 33.7641 65.0882 33.7687C65.1879 33.7734 65.2875 33.7582 65.3812 33.7238C65.4749 33.6895 65.5608 33.6369 65.6339 33.5689C65.707 33.501 65.7658 33.4191 65.8068 33.3282L66.3129 32.2666C66.3554 32.1777 66.3799 32.0813 66.3851 31.983C66.3903 31.8847 66.3761 31.7863 66.3432 31.6934C66.3104 31.6006 66.2596 31.5151 66.1937 31.4419C66.1278 31.3687 66.0482 31.3092 65.9593 31.2668ZM63.9686 35.443C63.8797 35.4005 63.7834 35.3759 63.685 35.3707C63.5867 35.3655 63.4883 35.3797 63.3954 35.4125C63.3025 35.4454 63.2171 35.4962 63.1439 35.5621C63.0707 35.628 63.0112 35.7077 62.9688 35.7966L62.462 36.8582C62.4195 36.9471 62.395 37.0435 62.3897 37.1418C62.3845 37.2402 62.3987 37.3386 62.4316 37.4314C62.4644 37.5243 62.5152 37.6098 62.5811 37.683C62.647 37.7562 62.7267 37.8156 62.8157 37.858C62.9951 37.9436 63.2013 37.9545 63.3887 37.8882C63.5762 37.8219 63.7297 37.6838 63.8154 37.5044L64.3222 36.4427C64.3648 36.3539 64.3893 36.2575 64.3946 36.1592C64.3998 36.0608 64.3856 35.9624 64.3528 35.8695C64.3199 35.7767 64.2691 35.6912 64.2032 35.618C64.1372 35.5448 64.0575 35.4853 63.9686 35.443ZM61.9772 39.6186C61.8883 39.5761 61.7918 39.5516 61.6934 39.5464C61.595 39.5412 61.4966 39.5555 61.4037 39.5885C61.3108 39.6214 61.2254 39.6723 61.1522 39.7383C61.0791 39.8044 61.0197 39.8842 60.9774 39.9732L60.4713 41.0348C60.4265 41.124 60.4 41.2212 60.3932 41.3207C60.3864 41.4203 60.3996 41.5202 60.4319 41.6146C60.4643 41.709 60.5151 41.796 60.5815 41.8705C60.6479 41.945 60.7285 42.0055 60.8186 42.0484C60.9087 42.0913 61.0064 42.1159 61.1061 42.1205C61.2058 42.1252 61.3054 42.11 61.3991 42.0757C61.4928 42.0413 61.5787 41.9887 61.6518 41.9207C61.7249 41.8528 61.7837 41.7709 61.8247 41.68L62.3308 40.6184C62.3733 40.5295 62.3978 40.4332 62.403 40.3348C62.4083 40.2365 62.394 40.1381 62.3612 40.0452C62.3283 39.9524 62.2775 39.8669 62.2116 39.7937C62.1457 39.7205 62.0661 39.661 61.9772 39.6186ZM69.6954 33.4508C69.7843 33.4932 69.8807 33.5176 69.9791 33.5227C70.0775 33.5278 70.1759 33.5135 70.2687 33.4806C70.3616 33.4477 70.447 33.3968 70.5202 33.3308C70.5933 33.2649 70.6528 33.1852 70.6952 33.0962L71.2012 32.0346C71.246 31.9455 71.2726 31.8483 71.2794 31.7487C71.2861 31.6491 71.273 31.5492 71.2406 31.4548C71.2083 31.3604 71.1574 31.2734 71.091 31.199C71.0246 31.1245 70.944 31.064 70.8539 31.021C70.7639 30.9781 70.6661 30.9536 70.5664 30.9489C70.4668 30.9442 70.3672 30.9595 70.2735 30.9938C70.1798 31.0281 70.0938 31.0808 70.0208 31.1487C69.9477 31.2166 69.8889 31.2985 69.8478 31.3894L69.3418 32.4511C69.2993 32.5399 69.2748 32.6363 69.2695 32.7346C69.2643 32.833 69.2785 32.9314 69.3114 33.0242C69.3442 33.1171 69.395 33.2025 69.4609 33.2757C69.5268 33.3489 69.6065 33.4084 69.6954 33.4508ZM68.856 35.2109C68.7671 35.1683 68.6707 35.1437 68.5722 35.1385C68.4738 35.1333 68.3753 35.1475 68.2824 35.1805C68.1896 35.2134 68.1041 35.2644 68.0309 35.3305C67.9578 35.3965 67.8984 35.4764 67.8562 35.5654L67.3502 36.6271C67.3053 36.7162 67.2788 36.8134 67.272 36.913C67.2652 37.0125 67.2784 37.1124 67.3108 37.2068C67.3431 37.3012 67.394 37.3882 67.4604 37.4627C67.5268 37.5372 67.6074 37.5977 67.6974 37.6406C67.7875 37.6836 67.8852 37.7081 67.9849 37.7128C68.0846 37.7175 68.1842 37.7022 68.2779 37.6679C68.3716 37.6336 68.4575 37.5809 68.5306 37.513C68.6037 37.445 68.6625 37.3632 68.7035 37.2722L69.2096 36.2106C69.2521 36.1218 69.2766 36.0254 69.2818 35.9271C69.2871 35.8287 69.2728 35.7303 69.24 35.6374C69.2072 35.5446 69.1563 35.4591 69.0904 35.3859C69.0245 35.3127 68.9449 35.2533 68.856 35.2109ZM66.8653 39.3865C66.7764 39.3439 66.68 39.3194 66.5816 39.3142C66.4831 39.309 66.3847 39.3232 66.2918 39.3562C66.1989 39.3891 66.1134 39.4401 66.0403 39.5061C65.9671 39.5722 65.9078 39.652 65.8655 39.7411L65.3595 40.8027C65.3147 40.8918 65.2881 40.989 65.2813 41.0886C65.2745 41.1882 65.2877 41.2881 65.3201 41.3825C65.3524 41.4769 65.4033 41.5639 65.4697 41.6384C65.5361 41.7128 65.6167 41.7733 65.7067 41.8163C65.7968 41.8592 65.8946 41.8837 65.9942 41.8884C66.0939 41.8931 66.1935 41.8778 66.2872 41.8435C66.3809 41.8092 66.4668 41.7566 66.5399 41.6886C66.613 41.6207 66.6718 41.5388 66.7128 41.4479L67.2189 40.3862C67.2614 40.2974 67.2859 40.201 67.2911 40.1027C67.2963 40.0043 67.2821 39.9059 67.2492 39.8131C67.2164 39.7203 67.1656 39.6348 67.0997 39.5616C67.0338 39.4884 66.9542 39.4289 66.8653 39.3865ZM64.8746 43.5623C64.7857 43.5199 64.6893 43.4954 64.5909 43.4903C64.4925 43.4852 64.3941 43.4995 64.3013 43.5324C64.2084 43.5654 64.123 43.6163 64.0498 43.6822C63.9766 43.7482 63.9172 43.8279 63.8748 43.9169L63.3688 44.9785C63.324 45.0677 63.2974 45.1649 63.2906 45.2644C63.2839 45.364 63.297 45.4639 63.3294 45.5583C63.3617 45.6527 63.4126 45.7397 63.479 45.8142C63.5454 45.8887 63.626 45.9491 63.716 45.9921C63.8061 46.035 63.9039 46.0596 64.0035 46.0642C64.1032 46.0689 64.2028 46.0537 64.2965 46.0193C64.3902 45.985 64.4762 45.9324 64.5492 45.8644C64.6223 45.7965 64.6811 45.7146 64.7222 45.6237L65.2282 44.5621C65.2707 44.4732 65.2952 44.3768 65.3004 44.2785C65.3056 44.1802 65.2914 44.0818 65.2586 43.9889C65.2257 43.8961 65.1749 43.8106 65.109 43.7374C65.0431 43.6642 64.9635 43.6047 64.8746 43.5623ZM5.41778 31.2646H50.2728C50.6874 31.2646 51.0228 30.9287 51.0228 30.5146C51.0228 30.1004 50.6874 29.7646 50.2728 29.7646H44.4602C44.9372 29.1351 45.2312 28.3598 45.2312 27.5108V13.6472C45.2312 11.7758 43.8502 10.2332 42.056 9.95237V7.49406C42.056 6.40562 41.1705 5.52025 40.0822 5.52025H38.0233C36.9348 5.52025 36.0495 6.40581 36.0495 7.49406V9.95275C34.2555 10.2334 32.8743 11.776 32.8743 13.6476V27.5112C32.8743 28.3602 33.1683 29.1351 33.6453 29.7649H27.8013C28.052 29.3296 28.2063 28.8319 28.2063 28.2946V16.1176C28.2063 12.9349 25.8069 10.3062 22.7231 9.934V7.28556C22.7231 6.31019 21.93 5.51706 20.9546 5.51706H20.0825V2.28906H23.0304L25.4304 3.66569C25.603 3.76449 25.8078 3.79075 25.9998 3.73868C26.1918 3.68662 26.3553 3.56049 26.4543 3.388C26.5532 3.21536 26.5794 3.01056 26.5273 2.81858C26.4753 2.6266 26.3491 2.46313 26.1767 2.36406L23.6032 0.88825C23.4895 0.823307 23.3608 0.789121 23.2299 0.789062H17.2507C17.0518 0.789063 16.861 0.86808 16.7204 1.00873C16.5797 1.14938 16.5007 1.34015 16.5007 1.53906C16.5007 1.73797 16.5797 1.92874 16.7204 2.06939C16.861 2.21004 17.0518 2.28906 17.2507 2.28906H18.5823V5.51725H17.6763C17.4425 5.51719 17.2111 5.56349 16.9953 5.65348C16.7795 5.74348 16.5837 5.87537 16.4192 6.04153C16.2548 6.2077 16.1249 6.40483 16.0371 6.62152C15.9493 6.83821 15.9054 7.07016 15.9078 7.30394L15.9347 9.93494C12.8552 10.3103 10.4595 12.9374 10.4595 16.1176V28.2946C10.4595 28.8319 10.6138 29.3296 10.8645 29.7649H5.41778C5.21892 29.7649 5.0282 29.8439 4.88758 29.9845C4.74697 30.1252 4.66797 30.3159 4.66797 30.5147C4.66797 30.7136 4.74697 30.9043 4.88758 31.0449C5.0282 31.1856 5.21892 31.2646 5.41778 31.2646ZM37.5498 7.49406C37.5499 7.36838 37.5999 7.24787 37.6888 7.159C37.7777 7.07013 37.8982 7.02016 38.0238 7.02006H40.0828C40.2085 7.02016 40.329 7.07013 40.4178 7.159C40.5067 7.24787 40.5567 7.36838 40.5568 7.49406V9.89406H37.55V7.49406H37.5498ZM34.3749 13.6472C34.3749 12.4049 35.3855 11.3939 36.6283 11.3939H41.478C42.7203 11.3939 43.7317 12.4045 43.7317 13.6472V27.5108C43.7317 28.7532 42.7207 29.7646 41.478 29.7646H36.6283C35.3859 29.7646 34.3749 28.7536 34.3749 27.5108V13.6472ZM17.6771 7.01706H20.955C21.1029 7.01706 21.2233 7.13744 21.2233 7.28537V9.88412H17.435L17.4088 7.28837C17.4084 7.25289 17.4151 7.21769 17.4284 7.1848C17.4417 7.15191 17.4614 7.12199 17.4864 7.09676C17.5113 7.07153 17.541 7.0515 17.5737 7.03782C17.6065 7.02414 17.6416 7.01708 17.6771 7.01706ZM11.9595 16.1176C11.9595 13.5076 14.0827 11.3843 16.6927 11.3843H21.9735C24.5835 11.3843 26.7067 13.5076 26.7067 16.1176V28.2946C26.7067 29.1053 26.0471 29.7649 25.2367 29.7649H13.4293C12.6189 29.7649 11.9593 29.1053 11.9593 28.2946L11.9595 16.1176Z" fill="black"/>
<path id="Vector_17" d="M39.0508 26.1491C39.2497 26.1491 39.4405 26.07 39.5811 25.9294C39.7218 25.7887 39.8008 25.598 39.8008 25.3991V15.7578C39.8008 15.5589 39.7218 15.3681 39.5811 15.2275C39.4405 15.0868 39.2497 15.0078 39.0508 15.0078C38.8519 15.0078 38.6611 15.0868 38.5205 15.2275C38.3798 15.3681 38.3008 15.5589 38.3008 15.7578V25.3991C38.3008 25.598 38.3799 25.7887 38.5205 25.9293C38.6611 26.07 38.8519 26.149 39.0508 26.1491Z" fill="black"/>
</g>
<defs>
<clipPath id="clip0_5817_35990">
<rect width="96" height="96" fill="white" transform="translate(0.5)"/>
</clipPath>
</defs>
</svg>
