<svg width="97" height="96" viewBox="0 0 97 96" fill="none" xmlns="http://www.w3.org/2000/svg">
<g id="carpet">
<path id="Vector" d="M15.929 13.5H65.048H73.952H92V91.5H15.5" fill="#EA9206"/>
<path id="Vector_2" d="M24.5 85.5H80C80 83.9087 80.6321 82.3826 81.7574 81.2574C82.8826 80.1321 84.4087 79.5 86 79.5V25.5C84.4087 25.5 82.8826 24.8679 81.7574 23.7426C80.6321 22.6174 80 21.0913 80 19.5H26L24.5 85.5Z" fill="#C63C53"/>
<path id="Vector_3" d="M26 25.5C33.1608 25.5 40.0284 28.3446 45.0919 33.4081C50.1554 38.4716 53 45.3392 53 52.5C53 59.6608 50.1554 66.5284 45.0919 71.5919C40.0284 76.6554 33.1608 79.5 26 79.5" fill="#F4A634"/>
<path id="Vector_4" d="M26 31.5C31.5695 31.5 36.911 33.7125 40.8492 37.6508C44.7875 41.589 47 46.9305 47 52.5C47 58.0695 44.7875 63.411 40.8492 67.3492C36.911 71.2875 31.5695 73.5 26 73.5" fill="#EA9206"/>
<path id="Vector_5" d="M26 37.5C29.9782 37.5 33.7936 39.0804 36.6066 41.8934C39.4196 44.7064 41 48.5218 41 52.5C41 56.4782 39.4196 60.2936 36.6066 63.1066C33.7936 65.9196 29.9782 67.5 26 67.5V37.5Z" fill="#F4A634"/>
<path id="Vector_6" d="M26 43.5C28.3869 43.5 30.6761 44.4482 32.364 46.136C34.0518 47.8239 35 50.1131 35 52.5C35 54.8869 34.0518 57.1761 32.364 58.864C30.6761 60.5518 28.3869 61.5 26 61.5" fill="#EA9206"/>
<path id="Vector_7" d="M74 19.5H59V85.5H74V19.5Z" fill="#C63C53"/>
<path id="Vector_8" d="M75.5 87H57.5V18H75.5V87ZM60.5 84H72.5V21H60.5V84Z" fill="#EA9206"/>
<path id="Vector_9" d="M73.227 85.2856L58.227 76.2856C58.0052 76.1522 57.8217 75.9638 57.6943 75.7385C57.5669 75.5133 57.5 75.2589 57.5 75.0001C57.5 74.7413 57.5669 74.4869 57.6943 74.2617C57.8217 74.0364 58.0052 73.848 58.227 73.7146L71.085 66.0001L58.227 58.2856C58.0052 58.1522 57.8217 57.9638 57.6943 57.7385C57.5669 57.5133 57.5 57.2589 57.5 57.0001C57.5 56.7413 57.5669 56.4869 57.6943 56.2617C57.8217 56.0364 58.0052 55.848 58.227 55.7146L71.085 48.0001L58.227 40.2856C58.0052 40.1522 57.8217 39.9638 57.6943 39.7385C57.5669 39.5133 57.5 39.2589 57.5 39.0001C57.5 38.7413 57.5669 38.4869 57.6943 38.2617C57.8217 38.0364 58.0052 37.848 58.227 37.7146L71.085 30.0001L58.227 22.2856L59.772 19.7146L74.772 28.7146C74.9938 28.848 75.1773 29.0364 75.3047 29.2617C75.4321 29.4869 75.4991 29.7413 75.4991 30.0001C75.4991 30.2589 75.4321 30.5133 75.3047 30.7385C75.1773 30.9638 74.9938 31.1522 74.772 31.2856L61.914 39.0001L74.772 46.7146C74.9938 46.848 75.1773 47.0364 75.3047 47.2617C75.4321 47.4869 75.4991 47.7413 75.4991 48.0001C75.4991 48.2589 75.4321 48.5133 75.3047 48.7385C75.1773 48.9638 74.9938 49.1522 74.772 49.2856L61.914 57.0001L74.772 64.7146C74.9938 64.848 75.1773 65.0364 75.3047 65.2617C75.4321 65.4869 75.4991 65.7413 75.4991 66.0001C75.4991 66.2589 75.4321 66.5133 75.3047 66.7385C75.1773 66.9638 74.9938 67.1522 74.772 67.2856L61.914 75.0001L74.772 82.7146L73.227 85.2856Z" fill="#EA9206"/>
<path id="Vector_10" d="M26 15V81H5V15C5 12.2152 6.10625 9.54451 8.07538 7.57538C10.0445 5.60625 12.7152 4.5 15.5 4.5C18.2848 4.5 20.9555 5.60625 22.9246 7.57538C24.8938 9.54451 26 12.2152 26 15Z" fill="#DD4759"/>
<path id="Vector_11" d="M15.5 91.5C21.299 91.5 26 86.799 26 81C26 75.201 21.299 70.5 15.5 70.5C9.70101 70.5 5 75.201 5 81C5 86.799 9.70101 91.5 15.5 91.5Z" fill="#FFA500"/>
<path id="Vector_12" d="M15.5 85.5C17.9853 85.5 20 83.4853 20 81C20 78.5147 17.9853 76.5 15.5 76.5C13.0147 76.5 11 78.5147 11 81C11 83.4853 13.0147 85.5 15.5 85.5Z" fill="#CC424C"/>
<path id="Vector_13" d="M26 15V21.75C26.0089 30.1626 24.1261 38.4696 20.4911 46.0564C16.8561 53.6431 11.5619 60.3156 5 65.58V15C5 12.2152 6.10625 9.54451 8.07538 7.57538C10.0445 5.60625 12.7152 4.5 15.5 4.5C18.2848 4.5 20.9555 5.60625 22.9246 7.57538C24.8938 9.54451 26 12.2152 26 15Z" fill="#E8526B"/>
<path id="Vector_14" d="M15.5 75C14.3133 75 13.1533 75.3519 12.1666 76.0112C11.1799 76.6705 10.4109 77.6075 9.95673 78.7039C9.5026 79.8003 9.38378 81.0067 9.61529 82.1705C9.8468 83.3344 10.4182 84.4035 11.2574 85.2426C12.0965 86.0818 13.1656 86.6532 14.3295 86.8847C15.4933 87.1162 16.6997 86.9974 17.7961 86.5433C18.8925 86.0892 19.8295 85.3201 20.4888 84.3334C21.1481 83.3467 21.5 82.1867 21.5 81C21.5 79.4087 20.8679 77.8826 19.7426 76.7574C18.6174 75.6321 17.0913 75 15.5 75ZM15.5 84C14.9067 84 14.3266 83.8241 13.8333 83.4944C13.3399 83.1648 12.9554 82.6962 12.7284 82.148C12.5013 81.5999 12.4419 80.9967 12.5576 80.4147C12.6734 79.8328 12.9591 79.2982 13.3787 78.8787C13.7982 78.4591 14.3328 78.1734 14.9147 78.0576C15.4967 77.9419 16.0999 78.0013 16.6481 78.2284C17.1962 78.4554 17.6648 78.8399 17.9944 79.3333C18.3241 79.8266 18.5 80.4067 18.5 81C18.5 81.7956 18.1839 82.5587 17.6213 83.1213C17.0587 83.6839 16.2957 84 15.5 84Z" fill="#13277E"/>
<path id="Vector_15" d="M92 12H73.952V15H90.5V90H23.411C24.3891 89.1392 25.2218 88.1262 25.877 87H80C80.3978 87 80.7794 86.842 81.0607 86.5606C81.342 86.2793 81.5 85.8978 81.5 85.5C81.5 84.3065 81.9741 83.1619 82.818 82.318C83.6619 81.4741 84.8065 81 86 81C86.3978 81 86.7794 80.842 87.0607 80.5606C87.342 80.2793 87.5 79.8978 87.5 79.5V25.5C87.5 25.1022 87.342 24.7206 87.0607 24.4393C86.7794 24.158 86.3978 24 86 24C84.8065 24 83.6619 23.5259 82.818 22.682C81.9741 21.8381 81.5 20.6935 81.5 19.5C81.5 19.1022 81.342 18.7206 81.0607 18.4393C80.7794 18.158 80.3978 18 80 18H27.5V15H65.048V12H27.1055C26.3768 9.17244 24.6414 6.7079 22.225 5.06866C19.8086 3.42941 16.8772 2.72808 13.9805 3.09621C11.0839 3.46434 8.42107 4.87665 6.49153 7.06821C4.56199 9.25978 3.49831 12.08 3.5 15V81C3.50358 84.1815 4.769 87.2317 7.01867 89.4813C9.26833 91.731 12.3185 92.9964 15.5 93H92C92.3978 93 92.7794 92.842 93.0607 92.5606C93.342 92.2793 93.5 91.8978 93.5 91.5V13.5C93.5 13.1022 93.342 12.7206 93.0607 12.4393C92.7794 12.158 92.3978 12 92 12ZM36.5 52.5C36.4952 49.9777 35.5834 47.5414 33.931 45.6357C32.2787 43.73 29.9961 42.4822 27.5 42.12V39.0885C30.7915 39.4672 33.8287 41.0432 36.0335 43.5162C38.2384 45.9893 39.4567 49.1868 39.4567 52.5C39.4567 55.8132 38.2384 59.0107 36.0335 61.4837C33.8287 63.9568 30.7915 65.5327 27.5 65.9115V62.88C29.9961 62.5178 32.2787 61.27 33.931 59.3643C35.5834 57.4586 36.4952 55.0222 36.5 52.5ZM27.5 59.85V45.15C29.1954 45.4943 30.7197 46.4141 31.8146 47.7536C32.9094 49.0931 33.5075 50.77 33.5075 52.5C33.5075 54.23 32.9094 55.9069 31.8146 57.2464C30.7197 58.5859 29.1954 59.5057 27.5 59.85ZM42.5 52.5C42.4946 48.386 40.9538 44.4221 38.1794 41.3844C35.405 38.3467 31.5967 36.4539 27.5 36.0765V33.0765C32.3982 33.447 36.9756 35.6543 40.3154 39.2564C43.6553 42.8585 45.5111 47.5893 45.5111 52.5015C45.5111 57.4137 43.6553 62.1445 40.3154 65.7466C36.9756 69.3486 32.3982 71.556 27.5 71.9265V68.9265C31.5972 68.549 35.4059 66.6558 38.1804 63.6174C40.9549 60.5791 42.4953 56.6145 42.5 52.5ZM48.5 52.5C48.4912 46.7975 46.3182 41.3109 42.4202 37.1486C38.5222 32.9864 33.1897 30.4588 27.5 30.0765V27.0765C33.995 27.4432 40.1034 30.2817 44.5718 35.0096C49.0402 39.7375 51.5299 45.9961 51.5299 52.5015C51.5299 59.0068 49.0402 65.2655 44.5718 69.9934C40.1034 74.7212 33.995 77.5597 27.5 77.9265V74.9265C33.1902 74.5442 38.5232 72.0161 42.4213 67.8533C46.3193 63.6904 48.4919 58.203 48.5 52.5ZM72.5 63.351L61.9145 57L72.5 50.649V63.351ZM60.5 54.351V41.649L71.0855 48L60.5 54.351ZM60.5 59.649L71.0855 66L60.5 72.351V59.649ZM72.5 68.649V81.351L61.9145 75L72.5 68.649ZM72.5 45.351L61.9145 39L72.5 32.649V45.351ZM60.5 36.351V23.649L71.0855 30L60.5 36.351ZM60.5 77.649L71.084 84H60.5V77.649ZM84.5 26.85V78.15C83.0597 78.4463 81.7379 79.1584 80.6982 80.1981C79.6584 81.2379 78.9463 82.5597 78.65 84H75.5V21H78.65C78.9463 22.4403 79.6584 23.7621 80.6982 24.8018C81.7379 25.8416 83.0597 26.5537 84.5 26.85ZM72.5 27.3525L61.916 21H72.5V27.3525ZM57.5 21V84H27.1055C27.3638 83.0208 27.4964 82.0127 27.5 81V80.9235C34.7914 80.5564 41.6628 77.4015 46.6937 72.111C51.7245 66.8205 54.53 59.7991 54.53 52.4985C54.53 45.1979 51.7245 38.1765 46.6937 32.886C41.6628 27.5955 34.7914 24.4406 27.5 24.0735V21H57.5ZM6.5 15C6.5 12.613 7.44821 10.3239 9.13604 8.63603C10.8239 6.9482 13.1131 5.99999 15.5 5.99999C17.8869 5.99999 20.1761 6.9482 21.864 8.63603C23.5518 10.3239 24.5 12.613 24.5 15V73.089C23.3784 71.8047 21.995 70.7754 20.4427 70.0701C18.8903 69.3648 17.205 68.9999 15.5 68.9999C13.795 68.9999 12.1097 69.3648 10.5573 70.0701C9.00498 70.7754 7.62156 71.8047 6.5 73.089V15ZM6.5 81C6.5 79.22 7.02784 77.4799 8.01678 75.9999C9.00571 74.5198 10.4113 73.3663 12.0559 72.6851C13.7004 72.0039 15.51 71.8256 17.2558 72.1729C19.0016 72.5202 20.6053 73.3773 21.864 74.636C23.1226 75.8947 23.9798 77.4983 24.3271 79.2442C24.6743 80.99 24.4961 82.7996 23.8149 84.4441C23.1337 86.0887 21.9802 87.4943 20.5001 88.4832C19.0201 89.4721 17.28 90 15.5 90C13.1138 89.9976 10.826 89.0486 9.13867 87.3613C7.45136 85.674 6.50238 83.3862 6.5 81Z" fill="#13277E"/>
<path id="Vector_16" d="M70.9509 12H68.0469V15H70.9509V12Z" fill="#13277E"/>
</g>
</svg>
