<svg width="97" height="96" viewBox="0 0 97 96" fill="none" xmlns="http://www.w3.org/2000/svg">
<g id="hanger">
<g id="Layer 2">
<path id="Vector" d="M36.5 87H24.5C22.6442 86.9977 20.865 86.2595 19.5527 84.9473C18.2405 83.635 17.5023 81.8558 17.5 80V74C17.5 73.2044 17.8161 72.4413 18.3787 71.8787C18.9413 71.3161 19.7044 71 20.5 71C21.2956 71 22.0587 71.3161 22.6213 71.8787C23.1839 72.4413 23.5 73.2044 23.5 74V80C23.5005 80.2651 23.606 80.5191 23.7935 80.7065C23.9809 80.894 24.2349 80.9995 24.5 81H36.5C37.2956 81 38.0587 81.3161 38.6213 81.8787C39.1839 82.4413 39.5 83.2044 39.5 84C39.5 84.7956 39.1839 85.5587 38.6213 86.1213C38.0587 86.6839 37.2956 87 36.5 87ZM72.5 87H60.5C59.7044 87 58.9413 86.6839 58.3787 86.1213C57.8161 85.5587 57.5 84.7956 57.5 84C57.5 83.2044 57.8161 82.4413 58.3787 81.8787C58.9413 81.3161 59.7044 81 60.5 81H72.5C72.7651 80.9995 73.0191 80.894 73.2065 80.7065C73.394 80.5191 73.4995 80.2651 73.5 80V74C73.5 73.2044 73.8161 72.4413 74.3787 71.8787C74.9413 71.3161 75.7044 71 76.5 71C77.2956 71 78.0587 71.3161 78.6213 71.8787C79.1839 72.4413 79.5 73.2044 79.5 74V80C79.4977 81.8558 78.7595 83.635 77.4473 84.9473C76.135 86.2595 74.3558 86.9977 72.5 87Z" fill="#FFE082"/>
<path id="Vector_2" d="M48.4939 41C47.6983 40.9997 46.9353 40.6836 46.3728 40.121C45.8102 39.5585 45.4941 38.7955 45.4939 38V31.42C45.5086 31.2257 45.4702 31.0312 45.3829 30.8571C45.2955 30.683 45.1624 30.5359 44.9979 30.4317C43.0783 29.7885 41.3734 28.628 40.071 27.0781C38.7686 25.5282 37.9191 23.649 37.6161 21.6473C37.3131 19.6456 37.5683 17.5991 38.3537 15.7332C39.1391 13.8672 40.4242 12.2542 42.0674 11.0717C43.7106 9.8892 45.6483 9.18306 47.6671 9.03106C49.6858 8.87905 51.7074 9.28707 53.5092 10.2102C55.3109 11.1333 56.823 12.5357 57.879 14.263C58.9349 15.9903 59.4937 17.9755 59.4939 20C59.4939 20.7956 59.1778 21.5587 58.6152 22.1213C58.0526 22.6839 57.2895 23 56.4939 23C55.6982 23 54.9352 22.6839 54.3726 22.1213C53.8099 21.5587 53.4939 20.7956 53.4939 20C53.4932 19.08 53.2388 18.178 52.7586 17.3934C52.2783 16.6087 51.5909 15.9717 50.772 15.5526C49.9531 15.1334 49.0344 14.9483 48.117 15.0177C47.1997 15.087 46.3192 15.4081 45.5726 15.9456C44.826 16.4831 44.2422 17.2161 43.8853 18.0641C43.5285 18.912 43.4125 19.842 43.5502 20.7516C43.6878 21.6612 44.0737 22.5152 44.6655 23.2196C45.2572 23.924 46.0318 24.4514 46.904 24.744C48.2727 25.2346 49.4524 26.1432 50.2762 27.3414C51.0999 28.5395 51.5259 29.9663 51.4939 31.42V38C51.4937 38.7955 51.1775 39.5585 50.615 40.121C50.0524 40.6836 49.2895 40.9997 48.4939 41Z" fill="#1B1464"/>
<path id="Vector_3" d="M77.185 77H19.81C17.6347 76.9994 15.5085 76.3539 13.7001 75.1451C11.8917 73.9363 10.4822 72.2186 9.64979 70.2089C8.81741 68.1992 8.59951 65.9879 9.02364 63.8544C9.44777 61.721 10.4949 59.7611 12.0326 58.2226L32.6185 37.6367C34.31 35.9547 36.5964 35.0073 38.9818 35H58.0131C60.3985 35.0073 62.6849 35.9547 64.3764 37.6367L84.9623 58.2226C86.5 59.7611 87.5471 61.721 87.9713 63.8544C88.3954 65.9879 88.1775 68.1992 87.3451 70.2089C86.5128 72.2185 85.1033 73.9363 83.2948 75.1451C81.4864 76.3539 79.3602 76.9994 77.185 77ZM38.9818 41C38.1867 41.0024 37.4246 41.3182 36.8607 41.8789L16.2748 62.4648C15.576 63.1642 15.1002 64.0551 14.9076 65.0247C14.7149 65.9944 14.814 66.9995 15.1923 67.9129C15.5706 68.8263 16.2112 69.6071 17.0331 70.1565C17.855 70.706 18.8213 70.9995 19.81 71H77.185C78.1736 70.9995 79.1399 70.706 79.9618 70.1565C80.7837 69.6071 81.4243 68.8263 81.8026 67.9129C82.1809 66.9995 82.28 65.9944 82.0873 65.0247C81.8947 64.055 81.4189 63.1642 80.7201 62.4648L60.1342 41.8789C59.5703 41.3182 58.8082 41.0024 58.0131 41H38.9818Z" fill="#1B1464"/>
</g>
</g>
</svg>
