<svg width="97" height="96" viewBox="0 0 97 96" fill="none" xmlns="http://www.w3.org/2000/svg">
<g id="ozone-layer" clipPath="url(#clip0_5817_35573)">
<g id="36. Ozon">
<path id="Vector" d="M76.4904 47.9991C76.4904 55.4252 73.5404 62.5471 68.2894 67.7981C63.0384 73.0491 55.9165 75.9991 48.4904 75.9991C22.1304 75.9991 10.4904 42.8191 30.8104 26.3191C34.9141 22.9775 39.8808 20.8673 45.1348 20.2331C50.3888 19.5988 55.7149 20.4665 60.4959 22.7356C65.2769 25.0047 69.317 28.5823 72.1478 33.0536C74.9786 37.525 76.4844 42.707 76.4904 47.9991Z" fill="#2B8AFC"/>
<path id="Vector_2" d="M76.498 48.0017C76.498 83.1217 24.498 77.8217 24.498 44.0017C24.498 8.80174 76.498 14.0017 76.498 48.0017Z" fill="#2B8AFC"/>
<path id="Vector_3" d="M49.709 27.3C47.269 30.96 43.709 27.3 41.189 28.52C38.669 29.74 41.729 32.52 42.409 35.82C43.629 41.92 37.529 39.48 35.089 40.7C32.009 42.22 34.529 47.68 31.449 49.22C26.429 51.76 23.109 46.18 21.709 40.7C20.809 38.14 29.309 20.12 48.329 20C48.949 20 51.589 24.46 49.709 27.3Z" fill="#9DCC6B"/>
<path id="Vector_4" d="M47.713 23.2981C45.273 26.9581 41.713 23.2981 39.193 24.5181C36.673 25.7381 39.733 28.5181 40.413 31.8181C41.633 37.9181 35.533 35.4781 33.093 36.6981C30.013 38.2181 32.533 43.6781 29.453 45.2181C28.9095 45.495 28.3018 45.6215 27.6929 45.5845C27.0841 45.5475 26.4962 45.3483 25.9902 45.0076C25.4842 44.6669 25.0786 44.197 24.8154 43.6468C24.5521 43.0965 24.4408 42.4858 24.493 41.8781C25.053 34.5581 28.933 27.8781 31.053 26.0381C35.9573 22.1768 42.0112 20.065 48.253 20.0381C48.495 21.1539 48.3018 22.3199 47.713 23.2981Z" fill="#B5E08C"/>
<path id="Vector_5" d="M38.7532 53.9991C40.7373 54.6509 42.4521 55.9369 43.6332 57.6591C44.8332 60.0991 48.5732 57.6591 49.6332 60.0991C50.6932 62.5391 48.9332 63.9991 46.4932 64.4391C45.6108 64.6333 44.8202 65.1206 44.25 65.8215C43.6798 66.5224 43.3638 67.3957 43.3532 68.2991C43.2332 69.3991 41.3532 70.6391 39.9132 66.2991C38.6932 62.6391 34.9132 62.2991 33.9132 60.2991C32.9132 58.2991 33.8932 52.8591 38.7532 53.9991Z" fill="#9DCC6B"/>
<path id="Vector_6" d="M46.4896 64.44C45.617 64.6531 44.838 65.1456 44.2711 65.8424C43.7043 66.5393 43.3807 67.4023 43.3496 68.3C43.2296 69.44 41.3496 70.56 39.9096 66.3C38.6896 62.64 34.9096 62.3 33.9096 60.3C33.4276 59.2978 33.32 58.1562 33.6061 57.0815C33.8922 56.0069 34.5531 55.0699 35.4696 54.44C38.2296 52.96 42.5496 55.68 43.6496 57.86C44.7496 60.04 48.5896 57.86 49.6496 60.24C49.6896 60.6 51.6496 63.32 46.4896 64.44ZM69.1896 47.68C68.3296 50.26 70.4096 56.2 67.9696 59.86C66.5896 61.86 63.2296 63.26 61.9696 61.86C61.4395 61.0164 61.1466 60.0453 61.122 59.0492C61.0974 58.0531 61.3418 57.0688 61.8296 56.2C62.8296 53.68 63.0296 50.2 59.3896 48.9C55.7496 47.6 52.0896 50.12 50.8696 44.04C50.1096 40.26 53.8096 38.66 55.7296 36.72C59.3896 33.08 55.7296 31.86 56.9496 28.2C57.6896 26 60.6296 24.68 62.8496 24C66.1145 25.9635 68.9443 28.5726 71.1658 31.6677C73.3874 34.7627 74.9539 38.2785 75.7696 42C74.3263 42.4124 72.9901 43.1341 71.8538 44.115C70.7175 45.0958 69.8084 46.3124 69.1896 47.68Z" fill="#9DCC6B"/>
<path id="Vector_7" d="M75.8292 42.001C74.3703 42.4147 73.0198 43.143 71.8726 44.1346C70.7255 45.1263 69.8095 46.3573 69.1892 47.741C68.4492 49.961 69.8892 54.681 68.7492 58.281C65.1892 59.441 64.4892 55.721 65.8892 52.281C66.8892 49.761 67.0892 46.281 63.4492 44.981C59.8092 43.681 56.1492 46.201 54.9292 40.121C54.3092 37.001 56.0092 37.261 57.1092 35.061C57.1092 34.861 58.6292 34.001 59.7892 32.801C63.2492 29.361 60.1692 28.081 60.8692 24.801C61.5179 24.4972 62.1861 24.2367 62.8692 24.021C66.1393 25.9782 68.9755 28.5824 71.204 31.6741C73.4324 34.7657 75.0063 38.2798 75.8292 42.001Z" fill="#B5E08C"/>
<path id="Vector_8" d="M48.4981 88C40.5868 88 32.8532 85.6541 26.2753 81.2588C19.6973 76.8635 14.5704 70.6164 11.5429 63.3074C8.51538 55.9983 7.72324 47.9556 9.26665 40.1964C10.8101 32.4372 14.6197 25.3098 20.2138 19.7157C25.8079 14.1216 32.9352 10.312 40.6945 8.76861C48.4537 7.2252 56.4964 8.01733 63.8054 11.0448C71.1144 14.0723 77.3616 19.1992 81.7568 25.7772C86.1521 32.3552 88.4981 40.0888 88.4981 48C88.4981 58.6087 84.2838 68.7828 76.7823 76.2843C69.2809 83.7857 59.1067 88 48.4981 88ZM48.4981 12C41.3779 12 34.4177 14.1114 28.4975 18.0671C22.5774 22.0228 17.9632 27.6453 15.2384 34.2234C12.5136 40.8016 11.8007 48.04 13.1898 55.0233C14.5789 62.0066 18.0075 68.4212 23.0422 73.4559C28.0769 78.4905 34.4915 81.9192 41.4748 83.3083C48.4581 84.6974 55.6965 83.9844 62.2747 81.2597C68.8528 78.5349 74.4752 73.9207 78.431 68.0005C82.3867 62.0804 84.4981 55.1201 84.4981 48C84.4981 38.4522 80.7052 29.2955 73.9539 22.5442C67.2026 15.7929 58.0459 12 48.4981 12Z" fill="#2B8AFC"/>
<path id="Vector_9" d="M44.4925 93.86C44.5111 93.3296 44.7396 92.8282 45.1278 92.4663C45.32 92.2871 45.5456 92.1475 45.7918 92.0555C46.038 91.9634 46.2999 91.9208 46.5625 91.93C46.8251 91.9392 47.0834 92 47.3225 92.109C47.5617 92.218 47.777 92.3731 47.9562 92.5653C48.1354 92.7575 48.275 92.9831 48.3671 93.2293C48.4591 93.4755 48.5017 93.7374 48.4925 94C48.4739 94.5304 48.2454 95.0318 47.8572 95.3937C47.469 95.7557 46.9529 95.9486 46.4225 95.93C45.8921 95.9114 45.3907 95.6829 45.0288 95.2947C44.6668 94.9065 44.4739 94.3904 44.4925 93.86ZM54.7325 95.58C54.3611 95.58 53.997 95.4766 53.681 95.2813C53.3651 95.086 53.1098 94.8066 52.9436 94.4744C52.7775 94.1422 52.7072 93.7703 52.7406 93.4004C52.7739 93.0305 52.9096 92.6771 53.1325 92.38C53.8325 91.42 54.3525 91.78 58.3525 90.9C58.751 90.7935 59.1727 90.8128 59.5598 90.9553C59.9469 91.0978 60.2804 91.3565 60.5148 91.696C60.7491 92.0355 60.8727 92.4391 60.8688 92.8515C60.8648 93.264 60.7334 93.6651 60.4925 94C59.6525 95.14 55.3325 95.58 54.7125 95.58H54.7325ZM38.3325 94.86C36.7713 94.5846 35.2335 94.1902 33.7325 93.68C33.2469 93.5012 32.8495 93.1411 32.6239 92.6754C32.3982 92.2098 32.3618 91.6747 32.5223 91.1828C32.6828 90.6908 33.0278 90.2803 33.4847 90.0373C33.9416 89.7944 34.4749 89.738 34.9725 89.88C38.8525 91.12 39.3725 90.76 40.0125 91.88C40.1819 92.1811 40.2704 92.521 40.2693 92.8665C40.2683 93.212 40.1777 93.5514 40.0065 93.8515C39.8353 94.1516 39.5893 94.4022 39.2924 94.579C38.9955 94.7557 38.6579 94.8526 38.3125 94.86H38.3325ZM66.6325 92.3C66.3032 92.3017 65.9787 92.222 65.6876 92.0681C65.3965 91.9142 65.1479 91.6908 64.9639 91.4177C64.7799 91.1447 64.6662 90.8304 64.6328 90.5029C64.5994 90.1753 64.6474 89.8446 64.7725 89.54C64.9101 89.2052 65.1359 88.9139 65.426 88.6974C65.7161 88.4808 66.0595 88.3471 66.4196 88.3104C66.7798 88.2736 67.1431 88.3354 67.4709 88.4889C67.7987 88.6425 68.0787 88.8821 68.281 89.1823C68.4833 89.4825 68.6003 89.832 68.6196 90.1935C68.6389 90.555 68.5597 90.9149 68.3905 91.2349C68.2213 91.5549 67.9684 91.823 67.6588 92.0106C67.3492 92.1982 66.9945 92.2982 66.6325 92.3ZM24.9925 87.6C25.2613 87.1705 25.6831 86.859 26.1727 86.7285C26.6623 86.5979 27.1832 86.6581 27.6301 86.8968C28.0771 87.1355 28.4168 87.535 28.5805 88.0145C28.7443 88.494 28.72 89.0178 28.5125 89.48C28.2437 89.9095 27.8219 90.221 27.3323 90.3516C26.8427 90.4821 26.3218 90.4219 25.8749 90.1832C25.4279 89.9445 25.0883 89.5451 24.9245 89.0656C24.7607 88.5861 24.785 88.0623 24.9925 87.6ZM73.8525 88.38C73.5525 88.3861 73.2551 88.3246 72.9821 88.2001C72.7091 88.0756 72.4676 87.8913 72.2756 87.6608C72.0835 87.4303 71.9457 87.1596 71.8725 86.8686C71.7993 86.5777 71.7924 86.274 71.8525 85.98C72.1525 84.7 72.7525 84.92 75.8525 82.38C76.2689 82.0299 76.8073 81.8596 77.3493 81.9065C77.8913 81.9534 78.3924 82.2136 78.7425 82.63C79.0926 83.0464 79.2629 83.5848 79.216 84.1268C79.1692 84.6688 78.9089 85.1699 78.4925 85.52C75.7725 87.64 74.6125 88.38 73.8525 88.38ZM19.8525 86C18.7725 86 17.6525 84.92 15.3725 82.74C14.9879 82.374 14.7645 81.8702 14.7514 81.3395C14.7383 80.8088 14.9365 80.2946 15.3025 79.91C15.6685 79.5254 16.1723 79.302 16.703 79.2889C17.2337 79.2758 17.7479 79.474 18.1325 79.84C21.0725 82.66 21.7125 82.52 21.8525 83.84C21.8746 84.1158 21.8393 84.3932 21.7488 84.6546C21.6582 84.916 21.5144 85.1558 21.3264 85.3588C21.1385 85.5618 20.9104 85.7236 20.6567 85.834C20.403 85.9444 20.1292 86.0009 19.8525 86ZM81.1525 78.38C81.1354 78.1174 81.1703 77.8539 81.255 77.6047C81.3397 77.3556 81.4727 77.1255 81.6464 76.9277C81.82 76.7299 82.0309 76.5683 82.267 76.452C82.5032 76.3357 82.7599 76.2671 83.0225 76.25C83.2852 76.2329 83.5486 76.2678 83.7978 76.3525C84.047 76.4372 84.277 76.5702 84.4748 76.7439C84.6726 76.9175 84.8342 77.1284 84.9505 77.3645C85.0668 77.6007 85.1354 77.8574 85.1525 78.12C85.187 78.6504 85.0093 79.1728 84.6586 79.5723C84.308 79.9718 83.8129 80.2155 83.2825 80.25C82.7521 80.2845 82.2297 80.1068 81.8302 79.7561C81.4308 79.4055 81.187 78.9104 81.1525 78.38ZM10.1325 73.48C12.1325 72.02 14.6925 75.12 12.4925 76.72C12.2798 76.875 12.0386 76.9865 11.7827 77.0483C11.5269 77.11 11.2614 77.1208 11.0014 77.0799C10.7414 77.0391 10.492 76.9474 10.2674 76.8101C10.0428 76.6729 9.84746 76.4927 9.6925 76.28C9.53755 76.0673 9.42601 75.8261 9.36425 75.5702C9.3025 75.3144 9.29175 75.0489 9.33261 74.7889C9.37346 74.5289 9.46513 74.2795 9.60238 74.0549C9.73963 73.8303 9.91976 73.635 10.1325 73.48ZM86.1325 72.06C85.8325 70.8 86.5125 70.64 88.1325 67.08C88.3048 66.7264 88.5776 66.4315 88.9167 66.2322C89.2558 66.0328 89.6461 65.9379 90.0389 65.9592C90.4316 65.9806 90.8093 66.1173 91.1248 66.3522C91.4403 66.5871 91.6795 66.9098 91.8125 67.28C92.2325 68.48 91.4325 69.7 89.6925 72.6C89.4831 72.9339 89.1796 73.1985 88.8203 73.3605C88.461 73.5225 88.0619 73.5747 87.673 73.5106C87.2841 73.4465 86.9228 73.2689 86.6345 73.0002C86.3462 72.7314 86.1437 72.3835 86.0525 72L86.1325 72.06ZM7.0725 70C5.3325 70 4.7925 68 3.5725 64.92C3.3842 64.4241 3.40063 63.8736 3.61817 63.3898C3.83571 62.9059 4.23655 62.5283 4.7325 62.34C5.22846 62.1517 5.7789 62.1681 6.26275 62.3857C6.74659 62.6032 7.1242 63.0041 7.3125 63.5C7.7725 64.72 8.29251 65.94 8.87251 67.12C9.02206 67.4252 9.09136 67.7635 9.07386 68.103C9.05636 68.4424 8.95265 68.7718 8.77251 69.06C8.59237 69.3482 8.34174 69.5858 8.0443 69.7503C7.74685 69.9147 7.41239 70.0007 7.0725 70ZM92.8525 62.2C89.9325 62.2 90.4125 57.46 93.3725 58.2C93.9082 58.269 94.3946 58.5479 94.7247 58.9755C95.0548 59.4031 95.2015 59.9443 95.1325 60.48C95.0636 61.0157 94.7846 61.5021 94.357 61.8322C93.9294 62.1623 93.3882 62.309 92.8525 62.24V62.2ZM3.2325 58.2C2.8538 58.1938 2.48463 58.0802 2.16796 57.8724C1.8513 57.6646 1.60015 57.3712 1.44373 57.0262C1.28731 56.6813 1.23207 56.299 1.28441 55.9239C1.33676 55.5487 1.49455 55.1962 1.73943 54.9072C1.98431 54.6183 2.3062 54.4048 2.66766 54.2916C3.02911 54.1785 3.41528 54.1703 3.78121 54.268C4.14715 54.3657 4.47781 54.5653 4.73474 54.8436C4.99166 55.1219 5.16428 55.4674 5.2325 55.84C5.30308 56.1381 5.30422 56.4485 5.23584 56.7471C5.16747 57.0457 5.0314 57.3247 4.83814 57.5624C4.64487 57.8001 4.39959 57.9902 4.1212 58.1181C3.84281 58.246 3.53876 58.3082 3.2325 58.3V58.2ZM94.3125 54.02C94.0187 54.0205 93.7284 53.9562 93.4622 53.8318C93.196 53.7073 92.9606 53.5258 92.7725 53.3C91.9725 52.36 92.4925 51.9 92.4925 47.9C92.4794 47.6374 92.5181 47.3747 92.6065 47.127C92.6949 46.8794 92.8312 46.6515 93.0076 46.4565C93.3639 46.0627 93.8621 45.8265 94.3925 45.8C94.9229 45.7735 95.4422 45.9588 95.836 46.3151C96.2298 46.6714 96.466 47.1696 96.4925 47.7C96.4925 50.54 96.9125 54.12 94.3125 54.12V54.02ZM0.492505 48C0.492505 45.1 0.172505 41.8 2.8325 42C5.4925 42.2 4.4925 45.2 4.4925 48C4.4925 48.5304 4.28179 49.0391 3.90672 49.4142C3.53165 49.7893 3.02294 50 2.4925 50C1.96207 50 1.45336 49.7893 1.07829 49.4142C0.703218 49.0391 0.492505 48.5304 0.492505 48ZM93.7325 41.6C93.2589 41.6077 92.798 41.4471 92.4317 41.1468C92.0655 40.8465 91.8177 40.4259 91.7325 39.96C91.6588 39.5571 91.7106 39.1413 91.8809 38.7688C92.0512 38.3963 92.3318 38.085 92.6847 37.8771C93.0376 37.6692 93.4458 37.5746 93.8541 37.6062C94.2625 37.6378 94.6513 37.794 94.968 38.0537C95.2848 38.3134 95.5141 38.6641 95.6251 39.0584C95.7361 39.4527 95.7233 39.8715 95.5885 40.2583C95.4538 40.6451 95.2035 40.9812 94.8716 41.2211C94.5397 41.4611 94.142 41.5933 93.7325 41.6ZM2.1725 35.34C2.32449 34.8442 2.66311 34.4268 3.11692 34.1759C3.57074 33.925 4.10427 33.8602 4.60498 33.9951C5.10568 34.13 5.53442 34.4541 5.80074 34.899C6.06707 35.344 6.15017 35.875 6.0325 36.38C5.88051 36.8758 5.5419 37.2932 5.08809 37.5441C4.63427 37.795 4.10074 37.8598 3.60003 37.7249C3.09933 37.59 2.67059 37.2659 2.40426 36.821C2.13794 36.376 2.05484 35.845 2.1725 35.34ZM91.5125 33.66C89.6525 33.66 89.7325 32.16 88.0725 28.76C87.8391 28.2826 87.8049 27.7321 87.9775 27.2295C88.15 26.7269 88.5151 26.3134 88.9925 26.08C89.4699 25.8466 90.0205 25.8124 90.523 25.985C91.0256 26.1575 91.4391 26.5226 91.6725 27C92.2725 28.26 92.8525 29.58 93.3725 31C93.4772 31.2993 93.5092 31.6191 93.4659 31.9332C93.4226 32.2472 93.3053 32.5465 93.1237 32.8063C92.942 33.0661 92.7012 33.279 92.421 33.4274C92.1409 33.5759 91.8295 33.6556 91.5125 33.66ZM5.0925 28.8C4.7125 27.6 5.5125 26.4 7.2125 23.48C7.41365 23.1391 7.71143 22.8655 8.06815 22.6939C8.42487 22.5223 8.82448 22.4605 9.21638 22.5162C9.60829 22.5718 9.97485 22.7426 10.2697 23.0067C10.5645 23.2709 10.7743 23.6165 10.8725 24C11.2125 25.24 10.4725 25.46 8.87251 29C8.71697 29.3872 8.44424 29.716 8.0925 29.9404C7.74077 30.1649 7.32765 30.2737 6.91099 30.2517C6.49433 30.2296 6.095 30.0778 5.76891 29.8175C5.44283 29.5572 5.20632 29.2014 5.0925 28.8ZM84.4925 19.2C84.9222 18.887 85.4585 18.7576 85.9836 18.8401C86.5087 18.9226 86.9796 19.2104 87.2925 19.64C87.6055 20.0697 87.7349 20.606 87.6524 21.1311C87.5699 21.6562 87.2822 22.127 86.8525 22.44C86.4229 22.753 85.8865 22.8824 85.3614 22.7999C84.8363 22.7174 84.3655 22.4297 84.0525 22C83.7396 21.5704 83.6101 21.034 83.6926 20.5089C83.7751 19.9838 84.0629 19.513 84.4925 19.2ZM13.7725 19.82C13.3165 19.82 12.8742 19.6641 12.5189 19.3782C12.1636 19.0923 11.9166 18.6936 11.819 18.2482C11.7214 17.8027 11.7789 17.3373 11.9821 16.929C12.1852 16.5207 12.5218 16.1941 12.936 16.0034C13.3503 15.8126 13.8172 15.7692 14.2595 15.8802C14.7018 15.9912 15.0929 16.25 15.368 16.6138C15.643 16.9775 15.7855 17.4244 15.7717 17.8802C15.758 18.336 15.5889 18.7735 15.2925 19.12C15.4925 19.12 14.6525 19.82 13.7725 19.82ZM80.1525 16.64C78.9525 16.64 79.0125 16.06 75.8125 13.5C75.3961 13.1711 75.1274 12.6903 75.0655 12.1633C75.0036 11.6364 75.1536 11.1064 75.4825 10.69C75.8114 10.2736 76.2922 10.0049 76.8192 9.94303C77.3461 9.88114 77.8761 10.0311 78.2925 10.36C80.5725 12.2 82.1525 13.36 82.1525 14.6C82.1578 14.866 82.11 15.1304 82.0119 15.3777C81.9138 15.6249 81.7673 15.8502 81.5811 16.0401C81.3948 16.2301 81.1725 16.381 80.9272 16.484C80.6819 16.587 80.4186 16.6401 80.1525 16.64ZM19.7125 14.1C19.301 14.0936 18.9015 13.9603 18.5685 13.7185C18.2355 13.4766 17.9852 13.138 17.8518 12.7486C17.7184 12.3593 17.7083 11.9383 17.823 11.543C17.9376 11.1477 18.1714 10.7975 18.4925 10.54C19.6125 9.64 20.7725 8.8 21.9525 8C22.3954 7.70561 22.9371 7.59922 23.4585 7.70424C23.9798 7.80926 24.4381 8.11709 24.7325 8.56C25.0269 9.00291 25.1333 9.54463 25.0283 10.066C24.9232 10.5873 24.6154 11.0456 24.1725 11.34C20.9325 13.46 20.8925 14.1 19.7125 14.1ZM70.1525 9.4C66.7325 9.4 68.1525 4.1 71.0925 5.64C71.4835 5.85104 71.7931 6.18628 71.9725 6.59281C72.1518 6.99935 72.1907 7.45403 72.0829 7.8851C71.9751 8.31616 71.7269 8.69907 71.3773 8.97338C71.0278 9.2477 70.5968 9.3978 70.1525 9.4ZM30.2925 7.74C29.866 7.70301 29.4625 7.53012 29.1416 7.24675C28.8206 6.96338 28.5991 6.5845 28.5095 6.16582C28.42 5.74715 28.4671 5.31079 28.6441 4.92092C28.821 4.53105 29.1184 4.20825 29.4925 4C32.4925 2.66 33.5725 7.74 30.2925 7.74ZM62.4925 6.2C61.9125 6.2 61.1525 5.76 58.0725 5.06C57.5558 4.9452 57.1056 4.63022 56.8207 4.1841C56.5358 3.73798 56.4393 3.1971 56.5525 2.68C57.1525 0.0600002 60.3725 1.42 63.0925 2.28C63.5583 2.41548 63.959 2.71566 64.22 3.12463C64.481 3.5336 64.5844 4.02348 64.511 4.50303C64.4376 4.98258 64.1924 5.4191 63.821 5.73129C63.4497 6.04348 62.9775 6.21006 62.4925 6.2ZM38.1125 5.18C37.7589 5.16891 37.4145 5.06421 37.1146 4.87659C36.8146 4.68896 36.5698 4.42513 36.4051 4.112C36.2404 3.79888 36.1617 3.44766 36.1771 3.0942C36.1924 2.74073 36.3013 2.39767 36.4925 2.1C37.1525 1.06 38.4925 0.94 41.9725 0.44C42.5029 0.368392 43.0401 0.51043 43.4658 0.834868C43.8915 1.15931 44.1709 1.63957 44.2425 2.17C44.3141 2.70043 44.1721 3.23759 43.8476 3.6633C43.5232 4.089 43.0429 4.36839 42.5125 4.44C39.5525 4.82 38.5925 5.18 38.1125 5.18ZM50.4925 4C49.9621 4 49.4534 3.78929 49.0783 3.41421C48.7032 3.03914 48.4925 2.53043 48.4925 2C48.4925 1.46957 48.7032 0.960859 49.0783 0.585787C49.4534 0.210714 49.9621 0 50.4925 0C51.0229 0 51.5316 0.210714 51.9067 0.585787C52.2818 0.960859 52.4925 1.46957 52.4925 2C52.4925 2.53043 52.2818 3.03914 51.9067 3.41421C51.5316 3.78929 51.0229 4 50.4925 4Z" fill="#2B8AFC"/>
<path id="Vector_10" d="M46.4945 64.4386C44.9145 64.7586 43.4945 66.9786 41.9145 62.2586C40.4545 57.8786 35.5145 58.6186 35.3945 54.2586C36.4397 53.7441 37.6427 53.651 38.7545 53.9986C43.3145 55.5186 43.1545 57.7986 44.5145 58.5786C45.8745 59.3586 47.0945 58.7186 48.3345 58.9986C50.1745 59.5186 51.8345 63.2786 46.4945 64.4386Z" fill="#B5E08C"/>
<path id="Vector_11" d="M77.7382 41.4013C67.7182 5.46128 18.4982 13.7413 18.4982 48.0013C18.4829 52.2304 19.3618 56.4149 21.0775 60.2804C22.7931 64.1459 25.3066 67.605 28.4531 70.4307C31.5997 73.2565 35.3081 75.385 39.3351 76.6767C43.3621 77.9684 47.6167 78.3941 51.8198 77.9258C56.0229 77.4576 60.0795 76.1059 63.7235 73.9596C67.3675 71.8132 70.5165 68.9207 72.964 65.4717C75.4114 62.0227 77.102 58.0953 77.9248 53.947C78.7476 49.7987 78.684 45.5233 77.7382 41.4013ZM73.4582 40.7613C62.6382 45.9613 69.4582 54.0413 66.3182 58.7613C65.6297 59.6734 64.6092 60.277 63.4782 60.4413C62.1982 58.4413 65.9582 54.6413 63.9182 50.2813C62.5382 47.2813 59.5782 46.5813 56.3182 46.4613C54.0582 46.4613 53.4382 46.3613 52.8982 43.6413C52.0782 39.6413 61.3182 38.8813 59.0582 31.2413C58.4382 29.2413 58.5382 27.7213 62.6382 26.2213C67.8721 29.6133 71.7123 34.7737 73.4582 40.7613ZM47.4782 22.0013C48.0782 23.0213 48.9182 24.8413 48.0582 26.1413C46.6182 28.2813 43.5982 25.0213 40.2982 26.6813C36.9982 28.3413 38.5182 31.5613 39.3582 33.3013C42.9582 40.8213 38.3182 36.8013 34.2182 38.8413C30.1182 40.8813 31.9782 46.7213 30.4982 47.4213C26.9382 49.2213 24.6382 44.2613 23.6182 40.2813C25.2131 35.1389 28.3651 30.6184 32.639 27.344C36.9129 24.0696 42.098 22.2028 47.4782 22.0013ZM48.4982 74.0013C45.0653 74.0014 41.6663 73.3217 38.4974 72.0013C35.3285 70.681 32.4525 68.7461 30.0352 66.3084C27.618 63.8708 25.7075 60.9785 24.4139 57.7986C23.1203 54.6187 22.4692 51.2141 22.4982 47.7813C25.2382 51.7813 29.1982 52.5813 32.3182 51.0013C34.8782 49.7413 35.0982 47.0013 35.2582 45.1213C35.4982 42.2213 35.5582 42.3413 38.0382 42.2613C42.8982 42.1013 45.2982 40.2613 44.3582 35.4413C43.8488 33.658 43.1794 31.9243 42.3582 30.2613C44.0382 30.2613 48.4582 32.7813 51.3782 28.4213C51.9463 27.5099 52.2944 26.4789 52.395 25.4097C52.4957 24.3406 52.3462 23.2627 51.9582 22.2613C54.1216 22.5377 56.2396 23.0957 58.2582 23.9213C56.7962 24.707 55.6766 26.0061 55.1153 27.5681C54.554 29.1302 54.5907 30.8447 55.2182 32.3813C55.7182 34.0213 55.5782 34.3813 53.0182 36.3813C51.0182 37.9213 48.1582 40.2213 49.0182 44.3813C50.1782 50.2013 53.8182 50.3813 56.2182 50.3813C65.7982 50.7213 55.8982 57.6013 60.5582 63.0813C62.8382 65.7813 67.7382 63.8213 69.6782 60.8813C71.6182 57.9413 71.3182 54.4813 71.1182 51.6013C70.9182 48.7213 70.5582 47.0213 74.3182 44.7613C74.7781 48.4223 74.4534 52.1394 73.3657 55.6652C72.2781 59.1911 70.4524 62.4451 68.0101 65.211C65.5678 67.9768 62.5647 70.1911 59.2005 71.7067C55.8363 73.2223 52.1881 74.0045 48.4982 74.0013Z" fill="#13277E"/>
<path id="Vector_12" d="M45.4138 56.8398C44.0078 54.644 41.8893 52.9986 39.4138 52.1798C38.2339 51.7995 36.967 51.7829 35.7776 52.1319C34.5881 52.481 33.5311 53.1797 32.744 54.1373C31.9568 55.0949 31.4757 56.2671 31.3633 57.5016C31.251 58.7361 31.5124 59.9759 32.1138 61.0598C32.8536 62.3161 33.9358 63.3358 35.2338 63.9998C39.0338 66.3798 37.2338 66.4798 39.5338 69.8998C39.9072 70.4523 40.441 70.8769 41.0633 71.1165C41.6855 71.3561 42.3663 71.3992 43.0138 71.2398C46.3938 70.4198 44.5138 66.9398 47.0138 66.4198C51.8138 65.3598 53.0138 62.4198 51.5738 59.3598C50.1338 56.2998 46.0738 57.2598 45.4138 56.8398ZM41.9738 65.9998C40.0938 60.9998 36.3538 60.6798 35.6738 59.3398C34.9938 57.9998 35.4338 55.9998 37.2938 55.9998C38.1982 56.1201 39.0681 56.4255 39.8492 56.8969C40.6303 57.3684 41.3059 57.9957 41.8338 58.7398C43.4138 61.8998 47.2138 60.7398 47.8338 61.0998C48.8938 63.1598 44.0538 61.1598 41.9738 65.9998Z" fill="#13277E"/>
<path id="Vector_13" d="M88.4952 47.9983C88.4952 40.087 86.1493 32.3534 81.754 25.7755C77.3588 19.1975 71.1116 14.0706 63.8026 11.0431C56.4935 8.01559 48.4509 7.22345 40.6916 8.76686C32.9324 10.3103 25.8051 14.1199 20.2109 19.714C14.6168 25.3081 10.8072 32.4354 9.26381 40.1947C7.7204 47.9539 8.51253 55.9966 11.54 63.3056C14.5675 70.6147 19.6944 76.8618 26.2724 81.2571C32.8504 85.6523 40.584 87.9983 48.4952 87.9983C59.1039 87.9983 69.278 83.784 76.7795 76.2825C84.281 68.7811 88.4952 58.6069 88.4952 47.9983ZM48.4952 83.9983C41.3751 83.9983 34.4149 81.8869 28.4947 77.9312C22.5745 73.9754 17.9603 68.353 15.2356 61.7749C12.5108 55.1967 11.7979 47.9583 13.1869 40.975C14.576 33.9917 18.0047 27.5771 23.0394 22.5424C28.0741 17.5077 34.4887 14.0791 41.472 12.69C48.4553 11.3009 55.6937 12.0139 62.2718 14.7386C68.85 17.4634 74.4724 22.0776 78.4281 27.9977C82.3839 33.9179 84.4952 40.8781 84.4952 47.9983C84.4952 57.5461 80.7024 66.7028 73.9511 73.4541C67.1998 80.2054 58.043 83.9983 48.4952 83.9983ZM24.1552 11.3383C24.5981 11.0439 24.906 10.5856 25.011 10.0643C25.116 9.5429 25.0096 9.00119 24.7152 8.55827C24.4208 8.11536 23.9626 7.80754 23.4412 7.70252C22.9198 7.5975 22.3781 7.70388 21.9352 7.99827C19.5752 9.59827 16.4952 11.2583 18.1552 13.3583C19.8152 15.4583 21.9152 12.8183 24.1552 11.3383ZM6.13522 29.9983C6.61281 30.225 7.16074 30.2533 7.6592 30.0772C8.15765 29.901 8.56609 29.5347 8.79522 29.0583C10.4752 25.5183 11.2152 25.2983 10.7952 24.0583C10.697 23.6748 10.4872 23.3291 10.1924 23.065C9.89757 22.8008 9.531 22.6301 9.1391 22.5744C8.74719 22.5188 8.34758 22.5806 7.99086 22.7522C7.63414 22.9238 7.33636 23.1973 7.13522 23.5383C5.85522 25.8383 3.71522 28.7783 6.13522 29.9983ZM38.1152 5.17827C38.6552 5.17827 39.5552 4.81827 42.4552 4.41827C42.9857 4.34667 43.4659 4.06728 43.7904 3.64157C44.1148 3.21586 44.2568 2.67871 44.1852 2.14827C44.1136 1.61784 43.8342 1.13758 43.4085 0.813141C42.9828 0.488704 42.4457 0.346665 41.9152 0.418274C37.9152 0.998274 36.9952 1.19827 36.4352 2.07827C36.2362 2.38049 36.1229 2.73104 36.1074 3.09258C36.0919 3.45411 36.1747 3.81308 36.3471 4.13123C36.5196 4.44938 36.7751 4.71479 37.0864 4.89918C37.3978 5.08357 37.7534 5.18003 38.1152 5.17827ZM6.03522 36.3783C6.15288 35.8732 6.06978 35.3422 5.80346 34.8973C5.53713 34.4523 5.1084 34.1282 4.60769 33.9933C4.10698 33.8584 3.57345 33.9233 3.11964 34.1742C2.66582 34.4251 2.32721 34.8425 2.17522 35.3383C2.05755 35.8433 2.14065 36.3743 2.40698 36.8192C2.6733 37.2642 3.10204 37.5883 3.60275 37.7232C4.10345 37.8581 4.63699 37.7933 5.0908 37.5424C5.54461 37.2914 5.88323 36.8741 6.03522 36.3783ZM13.7752 19.8183C14.1858 19.8224 14.5877 19.7001 14.9263 19.468C15.265 19.2358 15.524 18.9051 15.6682 18.5206C15.8123 18.1362 15.8347 17.7167 15.7322 17.3191C15.6297 16.9215 15.4073 16.5651 15.0952 16.2983C14.6946 15.9511 14.1726 15.7771 13.6438 15.8146C13.115 15.8521 12.6228 16.098 12.2752 16.4983C12.0215 16.787 11.8564 17.1428 11.7997 17.5229C11.7429 17.903 11.7969 18.2915 11.9551 18.6417C12.1134 18.992 12.3692 19.2893 12.692 19.4979C13.0148 19.7066 13.3909 19.8178 13.7752 19.8183ZM32.1352 4.93827C31.923 4.45028 31.5257 4.06655 31.0306 3.87151C30.5355 3.67647 29.9832 3.6861 29.4952 3.89827C29.0072 4.11045 28.6235 4.50779 28.4285 5.00288C28.2334 5.49798 28.243 6.05028 28.4552 6.53827C28.6674 7.02627 29.0647 7.41 29.5598 7.60504C30.0549 7.80007 30.6072 7.79045 31.0952 7.57827C31.5832 7.3661 31.9669 6.96876 32.162 6.47366C32.357 5.97857 32.3474 5.42627 32.1352 4.93827ZM52.4952 2.11827C52.5031 1.85563 52.4592 1.59401 52.3659 1.34834C52.2727 1.10267 52.132 0.877775 51.9519 0.686487C51.588 0.300162 51.0857 0.0741869 50.5552 0.0582739C50.0248 0.0423609 49.5098 0.237813 49.1234 0.601634C48.7371 0.965454 48.5111 1.46784 48.4952 1.99827C48.4793 2.52871 48.6748 3.04374 49.0386 3.43006C49.4024 3.81639 49.9048 4.04236 50.4352 4.05827C50.9657 4.07419 51.4807 3.87873 51.867 3.51491C52.2533 3.15109 52.4793 2.64871 52.4952 2.11827ZM87.2352 19.6383C87.0803 19.4255 86.8849 19.2454 86.6603 19.1081C86.4358 18.9709 86.1864 18.8792 85.9264 18.8384C85.6664 18.7975 85.4008 18.8083 85.145 18.87C84.8892 18.9318 84.648 19.0433 84.4352 19.1983C84.2225 19.3532 84.0423 19.5486 83.9051 19.7732C83.7679 19.9977 83.6762 20.2471 83.6353 20.5071C83.5945 20.7671 83.6052 21.0327 83.667 21.2885C83.7287 21.5444 83.8403 21.7855 83.9952 21.9983C84.3082 22.4279 84.779 22.7157 85.3041 22.7982C85.8292 22.8807 86.3656 22.7512 86.7952 22.4383C87.2249 22.1253 87.5126 21.6545 87.5951 21.1294C87.6776 20.6043 87.5482 20.0679 87.2352 19.6383ZM89.6352 32.3783C89.8235 32.8742 90.2011 33.2751 90.685 33.4926C91.1688 33.7102 91.7193 33.7266 92.2152 33.5383C92.7112 33.35 93.112 32.9724 93.3296 32.4885C93.5471 32.0047 93.5635 31.4542 93.3752 30.9583C92.8552 29.5783 92.2752 28.2583 91.6752 26.9583C91.5636 26.7181 91.4055 26.5025 91.2099 26.3239C91.0143 26.1454 90.7852 26.0074 90.5359 25.9181C90.2866 25.8288 90.022 25.7899 89.7575 25.8037C89.493 25.8174 89.2339 25.8836 88.9952 25.9983C86.6952 27.2183 88.4952 29.3183 89.6352 32.3783ZM91.7552 39.9983C91.8507 40.5287 92.153 40.9995 92.5956 41.307C93.0382 41.6146 93.5848 41.7338 94.1152 41.6383C94.6457 41.5428 95.1164 41.2405 95.424 40.7979C95.7316 40.3553 95.8507 39.8087 95.7552 39.2783C95.708 39.0156 95.6094 38.7649 95.4652 38.5403C95.321 38.3158 95.134 38.1218 94.9149 37.9695C94.4723 37.6619 93.9257 37.5428 93.3952 37.6383C92.8648 37.7338 92.394 38.036 92.0865 38.4786C91.7789 38.9212 91.6598 39.4678 91.7552 39.9983Z" fill="#13277E"/>
<path id="Vector_14" d="M70.1516 9.39833C70.591 9.39266 71.0163 9.24242 71.3618 8.97083C71.7073 8.69923 71.9537 8.32141 72.063 7.89575C72.1722 7.47009 72.1383 7.0203 71.9663 6.61588C71.7943 6.21146 71.494 5.87495 71.1116 5.65834C70.8806 5.53163 70.6269 5.4518 70.365 5.42344C70.103 5.39509 69.8381 5.41876 69.5854 5.49309C69.3326 5.56743 69.097 5.69097 68.8922 5.85662C68.6873 6.02226 68.5172 6.22675 68.3916 6.45834C68.2295 6.76268 68.1489 7.10376 68.1576 7.44846C68.1662 7.79316 68.2638 8.12977 68.4409 8.42562C68.618 8.72146 68.8686 8.9665 69.1683 9.13693C69.4681 9.30737 69.8068 9.39742 70.1516 9.39833ZM78.7916 15.9983C79.1831 16.3183 79.6812 16.4781 80.1857 16.4456C80.6903 16.4132 81.1638 16.1908 81.511 15.8233C81.8582 15.4558 82.0534 14.9704 82.0572 14.4649C82.061 13.9593 81.8732 13.471 81.5316 13.0983C80.5116 12.1183 79.4116 11.0983 78.2916 10.2783C78.0858 10.1133 77.8494 9.99065 77.5959 9.91739C77.3425 9.84412 77.0771 9.82172 76.815 9.85146C76.5529 9.88121 76.2992 9.96251 76.0687 10.0907C75.8381 10.2189 75.6352 10.3914 75.4716 10.5983C73.9316 12.6583 76.3316 13.8183 78.7916 15.9983ZM4.4916 47.9983C4.4916 45.1583 5.4316 42.1583 2.8316 41.9983C0.231597 41.8383 0.491597 45.0783 0.491597 47.9983C0.491597 48.5288 0.702311 49.0375 1.07738 49.4125C1.45246 49.7876 1.96116 49.9983 2.4916 49.9983C3.02203 49.9983 3.53074 49.7876 3.90581 49.4125C4.28088 49.0375 4.4916 48.5288 4.4916 47.9983ZM58.1516 5.05834C60.8316 5.67834 62.0316 6.19834 62.5716 6.19834C63.102 6.2779 63.6423 6.14349 64.0737 5.82468C64.505 5.50587 64.792 5.02877 64.8716 4.49834C64.9512 3.9679 64.8168 3.42759 64.4979 2.99625C64.1791 2.56492 63.702 2.2779 63.1716 2.19834C60.4316 1.33834 57.1716 -0.0016641 56.6316 2.59834C56.5635 2.85989 56.5492 3.13252 56.5894 3.39977C56.6297 3.66702 56.7237 3.92335 56.8657 4.15326C57.0078 4.38318 57.195 4.58191 57.416 4.73747C57.637 4.89303 57.8872 5.00218 58.1516 5.05834ZM75.9516 82.3783C72.7916 84.9383 72.1916 84.6983 71.9516 85.9783C71.8915 86.2723 71.8984 86.576 71.9716 86.8669C72.0448 87.1579 72.1826 87.4286 72.3747 87.6591C72.5667 87.8896 72.8082 88.0739 73.0812 88.1984C73.3542 88.3229 73.6516 88.3844 73.9516 88.3783C74.8916 88.3783 76.1716 87.3983 78.5516 85.5183C78.968 85.1735 79.2304 84.6775 79.281 84.1393C79.3316 83.601 79.1664 83.0647 78.8216 82.6483C78.4768 82.2319 77.9807 81.9696 77.4425 81.9189C76.9043 81.8683 76.368 82.0335 75.9516 82.3783ZM81.1516 78.3783C81.1861 78.9088 81.4299 79.4038 81.8293 79.7545C82.2288 80.1052 82.7512 80.2828 83.2816 80.2483C83.812 80.2139 84.307 79.9701 84.6577 79.5706C85.0084 79.1712 85.1861 78.6488 85.1516 78.1183C85.1345 77.8557 85.0659 77.599 84.9496 77.3629C84.8333 77.1267 84.6717 76.9158 84.4739 76.7422C84.2761 76.5686 84.046 76.4356 83.7969 76.3508C83.5477 76.2661 83.2842 76.2313 83.0216 76.2483C82.759 76.2654 82.5022 76.334 82.2661 76.4503C82.03 76.5666 81.8191 76.7283 81.6455 76.926C81.4718 77.1238 81.3388 77.3539 81.2541 77.6031C81.1694 77.8523 81.1345 78.1157 81.1516 78.3783ZM58.3316 90.8983C54.4516 91.7383 53.8316 91.3983 53.1116 92.3783C52.8887 92.6755 52.753 93.0288 52.7197 93.3987C52.6863 93.7686 52.7566 94.1405 52.9227 94.4728C53.0888 94.805 53.3442 95.0844 53.6601 95.2796C53.9761 95.4749 54.3402 95.5783 54.7116 95.5783C56.2244 95.3985 57.7265 95.1381 59.2116 94.7983C59.7147 94.6682 60.1473 94.3474 60.418 93.9038C60.6886 93.4602 60.776 92.9287 60.6616 92.4219C60.5473 91.915 60.2401 91.4725 59.8052 91.1882C59.3703 90.9038 58.8418 90.7998 58.3316 90.8983ZM65.8116 88.4583C65.3686 88.6945 65.0307 89.0886 64.8648 89.5624C64.6989 90.0362 64.7173 90.555 64.9163 91.0159C65.1152 91.4768 65.4802 91.846 65.9388 92.0502C66.3973 92.2544 66.9159 92.2788 67.3916 92.1183C67.8346 91.8822 68.1725 91.4881 68.3384 91.0143C68.5043 90.5405 68.4859 90.0217 68.2869 89.5608C68.088 89.0999 67.723 88.7307 67.2644 88.5265C66.8059 88.3222 66.2873 88.2979 65.8116 88.4583ZM94.4916 45.7983C91.9116 45.7983 92.6116 48.6783 92.3116 51.9383C92.2639 52.4688 92.4288 52.9964 92.7701 53.4053C93.1114 53.8141 93.6012 54.0706 94.1316 54.1183C94.662 54.1661 95.1897 54.0011 95.5985 53.6598C96.0074 53.3185 96.2639 52.8288 96.3116 52.2983C96.4916 49.2583 97.1316 45.7983 94.4916 45.7983ZM93.3716 58.2983C90.4116 57.4983 89.9316 62.2983 92.8516 62.2983C93.382 62.3673 93.9181 62.2227 94.342 61.8964C94.7658 61.5701 95.0426 61.0888 95.1116 60.5583C95.1806 60.0279 95.036 59.4918 94.7097 59.068C94.3834 58.6441 93.902 58.3673 93.3716 58.2983ZM90.8116 66.1383C90.334 65.9116 89.7861 65.8833 89.2876 66.0594C88.7892 66.2356 88.3807 66.6019 88.1516 67.0783C87.5916 68.2383 86.9516 69.4183 86.2716 70.5583C86.0677 71.0095 86.0384 71.5203 86.1894 71.9918C86.3403 72.4634 86.6608 72.8622 87.0889 73.111C87.5169 73.3599 88.022 73.4411 88.5065 73.339C88.991 73.2369 89.4204 72.9588 89.7116 72.5583C91.1116 70.2583 93.2116 67.3383 90.8116 66.1383ZM5.2116 55.9983C5.14337 55.6258 4.97075 55.2802 4.71383 55.0019C4.45691 54.7236 4.12624 54.524 3.7603 54.4263C3.39437 54.3286 3.00821 54.3368 2.64675 54.45C2.28529 54.5631 1.9634 54.7766 1.71852 55.0656C1.47365 55.3545 1.31585 55.7071 1.26351 56.0822C1.21116 56.4573 1.26641 56.8396 1.42282 57.1845C1.57924 57.5295 1.83039 57.8229 2.14706 58.0307C2.46373 58.2385 2.83289 58.3521 3.2116 58.3583C3.50748 58.3632 3.80074 58.3023 4.07025 58.1801C4.33976 58.0579 4.57879 57.8774 4.7701 57.6516C4.96142 57.4259 5.10026 57.1605 5.17661 56.8746C5.25295 56.5887 5.2649 56.2894 5.2116 55.9983ZM12.9316 73.9983C12.6999 73.6761 12.3776 73.4301 12.0057 73.2917C11.6338 73.1532 11.2291 73.1285 10.8431 73.2207C10.4571 73.3129 10.1073 73.5178 9.83811 73.8095C9.56895 74.1011 9.39263 74.4662 9.3316 74.8583C9.26357 75.3947 9.39916 75.9371 9.7116 76.3783C11.4916 78.6383 14.5916 75.4983 12.9316 73.9983ZM18.1316 79.8383C17.747 79.4723 17.2328 79.2741 16.7021 79.2872C16.1714 79.3003 15.6676 79.5238 15.3016 79.9083C14.9356 80.2929 14.7374 80.8071 14.7505 81.3378C14.7636 81.8686 14.987 82.3723 15.3716 82.7383C18.4916 85.6583 19.0316 85.9983 19.8516 85.9983C20.1338 86 20.4132 85.942 20.6714 85.828C20.9296 85.7141 21.1608 85.5467 21.3497 85.337C21.5386 85.1274 21.681 84.8801 21.7675 84.6114C21.854 84.3428 21.8826 84.0588 21.8516 83.7783C21.7116 82.5183 21.0916 82.6583 18.1316 79.8383ZM46.4916 91.9983C45.9612 91.9983 45.4525 92.209 45.0774 92.5841C44.7023 92.9592 44.4916 93.4679 44.4916 93.9983C44.4916 94.5288 44.7023 95.0375 45.0774 95.4125C45.4525 95.7876 45.9612 95.9983 46.4916 95.9983C47.022 95.9983 47.5307 95.7876 47.9058 95.4125C48.2809 95.0375 48.4916 94.5288 48.4916 93.9983C48.4916 93.4679 48.2809 92.9592 47.9058 92.5841C47.5307 92.209 47.022 91.9983 46.4916 91.9983ZM7.3116 63.5383C7.17321 63.1662 6.92721 62.8437 6.60493 62.6119C6.28265 62.3801 5.89866 62.2494 5.50187 62.2365C5.10508 62.2237 4.71343 62.3292 4.37681 62.5396C4.04018 62.7501 3.7738 63.056 3.6116 63.4183C3.0916 64.5583 4.0316 66.3783 5.2716 68.8983C5.5112 69.3607 5.92171 69.7114 6.41586 69.8759C6.91001 70.0403 7.44881 70.0055 7.91771 69.7789C8.3866 69.5523 8.7486 69.1517 8.92673 68.6623C9.10487 68.1729 9.08509 67.6334 8.8716 67.1583C8.2916 65.9983 7.7716 64.7583 7.3116 63.5383ZM38.7516 90.9183C37.4316 90.6183 36.1516 90.2583 34.9516 89.8783C34.4477 89.7143 33.8993 89.7569 33.4268 89.9969C32.9543 90.2369 32.5964 90.6546 32.4316 91.1583C31.6116 93.6983 35.0116 94.1783 37.8716 94.8183C38.3818 94.9168 38.9103 94.8129 39.3452 94.5285C39.7801 94.2441 40.0873 93.8017 40.2016 93.2948C40.316 92.7879 40.2286 92.2564 39.958 91.8129C39.6873 91.3693 39.2547 91.0485 38.7516 90.9183ZM27.7116 86.7983C27.4806 86.6716 27.2269 86.5918 26.965 86.5634C26.703 86.5351 26.4381 86.5588 26.1854 86.6331C25.9326 86.7074 25.697 86.831 25.4922 86.9966C25.2873 87.1623 25.1172 87.3667 24.9916 87.5983C24.8032 87.9457 24.7219 88.3411 24.758 88.7346C24.7942 89.1281 24.946 89.5021 25.1945 89.8093C25.4429 90.1166 25.7768 90.3434 26.1541 90.4611C26.5313 90.5788 26.9349 90.5821 27.314 90.4706C27.6931 90.3591 28.0307 90.1378 28.2841 89.8346C28.5376 89.5314 28.6955 89.16 28.7381 88.7671C28.7806 88.3742 28.7058 87.9776 28.5231 87.6272C28.3404 87.2768 28.058 86.9884 27.7116 86.7983Z" fill="#13277E"/>
</g>
</g>
<defs>
<clipPath id="clip0_5817_35573">
<rect width="96" height="96" fill="white" transform="translate(0.5)"/>
</clipPath>
</defs>
</svg>
