<svg width="97" height="96" viewBox="0 0 97 96" fill="none" xmlns="http://www.w3.org/2000/svg">
<g id="reading-room">
<path id="Vector" d="M94.4998 28.562L94.5018 88.299L91.7773 89.883L91.7734 30.146L94.4998 28.562Z" fill="#13277E"/>
<path id="Vector_2" d="M91.7744 30.1462L91.7783 89.8831L48.3613 64.8175L48.3594 5.08057L91.7744 30.1462Z" fill="#2B8AFC"/>
<path id="Vector_3" d="M48.3633 5.08057L48.3652 64.8175L5.23239 89.8831L5.23047 30.1462L48.3633 5.08057Z" fill="#2B8AFC"/>
<path id="Vector_4" d="M5.22633 30.1461L5.22825 89.8831L2.49801 88.3068L2.49609 28.5698L5.22633 30.1461Z" fill="#13277E"/>
<path id="Vector_5" d="M94.5006 28.5618L91.7742 30.1458L48.3591 5.08024L5.22633 30.1458L2.49609 28.5695L48.3553 1.91992L94.5006 28.5618Z" fill="#13277E"/>
<path id="Vector_6" d="M44.0507 50.1397C44.86 49.6726 45.5195 50.0485 45.5222 50.9782L45.5543 63.3568L14.3407 81.3779L14.3086 68.9993C14.3059 68.0695 14.9612 66.9344 15.7705 66.4672L23.2389 62.1553C24.0564 61.6832 24.7077 62.0641 24.7104 62.9937C24.7077 62.0639 25.363 60.9288 26.1723 60.4616L33.6407 56.1497C34.45 55.6826 35.1095 56.0585 35.1122 56.9882C35.1095 56.0583 35.7648 54.9232 36.5741 54.4561L44.0507 50.1397Z" fill="#4F4D4D"/>
<path id="Vector_7" d="M11.457 67.3398C11.4544 66.41 12.1096 65.2751 12.9191 64.8077L20.3873 60.4958C20.7976 60.2589 21.1661 60.237 21.4318 60.3912L21.9589 60.6974C22.1639 59.9352 22.69 59.1664 23.3207 58.8022L30.7889 54.4904C31.1962 54.2554 31.5654 54.2337 31.8323 54.3887L32.3599 54.6955C32.5642 53.9321 33.0904 53.1616 33.7221 52.7968L41.1988 48.4801C41.606 48.245 41.9752 48.2234 42.2421 48.3785L45.0979 50.0379L45.0951 50.0374C45.0094 49.988 44.8996 49.9882 44.7953 49.9763C44.737 49.9696 44.6903 49.9375 44.6271 49.9431C44.459 49.9581 44.2735 50.0233 44.0803 50.1309C44.0713 50.1359 44.0636 50.1345 44.0546 50.1397L36.5779 54.4562C36.3756 54.573 36.1828 54.7318 36.0077 54.9182C35.8326 55.1048 35.6748 55.3197 35.5425 55.5487C35.2779 56.0072 35.1145 56.5233 35.1159 56.9883C35.1132 56.066 34.4629 55.6931 33.6624 56.1435L33.6603 56.1424C33.6549 56.1455 33.6499 56.1466 33.6444 56.1497L26.1761 60.4614C25.5692 60.8118 25.0489 61.538 24.8277 62.2714C24.754 62.516 24.7135 62.761 24.7143 62.9935C24.7116 62.071 24.0693 61.6935 23.2606 62.1487L23.2587 62.1476C23.2531 62.1506 23.2481 62.1518 23.2428 62.1549L15.7744 66.4666C15.572 66.5833 15.3794 66.7421 15.2043 66.9286C14.8539 67.3018 14.5736 67.7876 14.4261 68.2764C14.3524 68.521 14.3119 68.7662 14.3127 68.9985L14.342 80.31L11.4891 78.6521L11.457 67.3398Z" fill="#929393"/>
<path id="Vector_8" d="M57.8561 73.7012L45.5816 66.5684L45.5547 57.1719L57.8312 64.3047L57.8561 73.7012Z" fill="#929393"/>
<path id="Vector_9" d="M49.7324 52.773C49.2867 52.514 48.6696 52.5501 47.9894 52.943C46.6375 53.7234 45.5464 55.6175 45.5508 57.171L57.8273 64.3053C57.8229 62.7519 58.914 60.858 60.2659 60.0773C60.9461 59.6845 61.5632 59.6484 62.0088 59.9074L49.7324 52.773Z" fill="#929393"/>
<path id="Vector_10" d="M60.2669 60.0777C61.6188 59.2972 62.7207 59.925 62.7251 61.4785C62.7295 63.032 61.6349 64.928 60.2829 65.7085L60.3015 72.2896L57.8548 73.7022L57.8281 64.3055C57.8239 62.7522 58.9151 60.8583 60.2669 60.0777Z" fill="#3D3D3D"/>
<path id="Vector_11" d="M13.4062 82.522L13.4158 85.9261L25.0126 92.6653L25.003 89.2612L13.4062 82.522Z" fill="#BFBFBF"/>
<path id="Vector_12" d="M25 89.2612L25.0096 92.6654L57.855 73.7015L57.8474 70.2974L25 89.2612Z" fill="#3D3D3D"/>
<path id="Vector_13" d="M13.4062 82.5215L25.0031 89.2607L57.8504 70.2968L46.2517 63.5576L13.4062 82.5215Z" fill="#3D3D3D"/>
<path id="Vector_14" d="M47.1562 72.7037L47.1649 76.2167C47.6568 76.2599 48.1662 76.1735 48.5459 75.9577L57.4707 70.8048C57.79 70.6149 57.9453 70.3818 57.9453 70.1403L57.9367 66.6187C57.9367 66.8604 57.7813 67.1019 57.462 67.2834L48.5287 72.4449C48.1573 72.6607 47.6482 72.7469 47.1562 72.7037Z" fill="#3D3D3D"/>
<path id="Vector_15" d="M36.3945 78.9183L36.4032 82.4313C36.8951 82.4745 37.4045 82.3881 37.7842 82.1723L46.7176 77.0108C47.0285 76.8295 47.1838 76.5965 47.1838 76.3547L47.1751 72.8333C47.1751 73.075 47.0198 73.3165 46.7005 73.4978L37.7669 78.6507C37.3958 78.8665 36.8866 78.9527 36.3945 78.9183Z" fill="#3D3D3D"/>
<path id="Vector_16" d="M24.7923 73.2326C25.1671 73.0162 25.6784 72.9304 26.1671 72.9717C26.0972 72.6885 26.2471 72.3926 26.6219 72.1762L35.5549 67.0187C35.9297 66.8023 36.441 66.7165 36.9296 66.7578C36.8597 66.4746 37.0097 66.1787 37.3845 65.9623L46.3175 60.8048C46.9457 60.4421 47.9673 60.4421 48.5971 60.8081L57.4665 65.9625C58.0961 66.3285 58.0928 66.9202 57.4646 67.2829L48.5316 72.4404C48.1568 72.6568 47.6455 72.7426 47.1569 72.7013C47.2268 72.9845 47.0768 73.2804 46.702 73.4968L37.769 78.6543C37.3943 78.8707 36.883 78.9565 36.3943 78.9152C36.4642 79.1984 36.3141 79.4943 35.9395 79.7107L27.0065 84.8682C26.3783 85.2309 25.3566 85.2309 24.7269 84.8649L15.8574 79.7105C15.2279 79.3445 15.2311 78.7528 15.8594 78.3901L24.7923 73.2326ZM46.7038 72.1764C47.0814 72.3959 47.6968 72.3959 48.077 72.1764L57.0099 67.0189C57.3847 66.8025 57.3866 66.4462 57.009 66.2267L48.1395 61.0723C47.7617 60.8528 47.1465 60.8528 46.7717 61.069L37.8387 66.2265C37.4586 66.446 37.4565 66.8023 37.8343 67.022L46.7038 72.1764ZM25.1842 84.6007C25.5619 84.8202 26.1772 84.8202 26.5518 84.604L35.4848 79.4465C35.865 79.227 35.8615 78.8737 35.4839 78.6543L26.6144 73.4999C26.2366 73.2804 25.627 73.2771 25.2468 73.4966L16.3138 78.6541C15.939 78.8705 15.9371 79.2268 16.3148 79.4463L25.1842 84.6007ZM35.9468 78.3868C36.3244 78.6063 36.9342 78.6096 37.3144 78.3901L46.2474 73.2326C46.6222 73.0162 46.6241 72.6599 46.2464 72.4404L37.377 67.286C36.9991 67.0665 36.384 67.0665 36.0094 67.2827L27.0764 72.4402C26.6962 72.6597 26.6997 73.0129 27.0773 73.2324L35.9468 78.3868Z" fill="#4F4D4D"/>
<path id="Vector_17" d="M37.8381 66.227C37.4579 66.4464 37.4558 66.8028 37.8336 67.0224L46.7031 72.1768C47.0809 72.3963 47.6961 72.3963 48.0763 72.1768L57.0093 67.0193C57.384 66.803 57.386 66.4466 57.0083 66.2271L48.1389 61.0727C47.761 60.8533 47.1458 60.8533 46.7712 61.0695L37.8381 66.227ZM27.0755 72.4408C26.6953 72.6603 26.6988 73.0136 27.0765 73.233L35.9459 78.3875C36.3238 78.6069 36.9334 78.6102 37.3135 78.3907L46.2465 73.2332C46.6213 73.0168 46.6232 72.6605 46.2455 72.441L37.3761 67.2866C36.9982 67.0671 36.3831 67.0672 36.0085 67.2833L27.0755 72.4408ZM16.3129 78.6545C15.9382 78.8709 15.9362 79.2273 16.3139 79.4467L25.1833 84.6012C25.5612 84.8206 26.1764 84.8206 26.551 84.6044L35.4839 79.4469C35.8641 79.2275 35.8606 78.8742 35.483 78.6547L26.6135 73.5003C26.2357 73.2808 25.6261 73.2776 25.2459 73.497L16.3129 78.6545Z" fill="#686868"/>
<path id="Vector_18" d="M15.3867 79.0563L15.3954 82.5693C15.404 82.8111 15.5593 83.0439 15.87 83.2254L24.7429 88.3869C25.373 88.7494 26.3914 88.7494 27.0215 88.3869L35.9549 83.2254C36.2656 83.0441 36.4209 82.8111 36.4209 82.5693L36.4123 79.0479C36.4123 79.2896 36.2569 79.5311 35.9376 79.7124L27.0129 84.8653C26.3828 85.2278 25.3557 85.2278 24.7256 84.8653L15.8613 79.7124C15.542 79.5311 15.3867 79.2894 15.3867 79.0563Z" fill="#3D3D3D"/>
<path id="Vector_19" d="M22.5613 94.0798L10.2848 86.9451L10.2656 80.3652L22.5421 87.498L22.5613 94.0798Z" fill="#4F4D4D"/>
<path id="Vector_20" d="M11.9936 74.5641C11.548 74.305 10.9311 74.3411 10.2507 74.734C8.89878 75.5145 7.80419 77.4105 7.80861 78.9639C7.81072 79.7356 8.08374 80.2789 8.52381 80.5347L20.8003 87.669C20.3602 87.4133 20.0874 86.8701 20.0851 86.0983C20.0807 84.5448 21.1753 82.6488 22.5271 81.8683C23.2074 81.4755 23.8245 81.4394 24.2701 81.6984L11.9936 74.5641Z" fill="#929393"/>
<path id="Vector_21" d="M22.5241 81.8684C23.876 81.088 24.9779 81.7158 24.9823 83.2693L25.009 92.6659L22.5588 94.0806L22.5402 87.4994C21.1883 88.2799 20.0865 87.6521 20.082 86.0986C20.0776 84.5449 21.1722 82.6489 22.5241 81.8684Z" fill="#3D3D3D"/>
<path id="Vector_22" d="M48.2492 25.7683L40.5039 21.2678L41.2105 20.8589L48.9538 25.3594L48.2492 25.7683Z" fill="#686868"/>
<path id="Vector_23" d="M48.3394 33.8784L40.5961 29.3798L40.5039 21.2678L48.2492 25.7683L48.3394 33.8784Z" fill="#3D3D3D"/>
<path id="Vector_24" d="M48.9507 25.3594L49.0429 33.4695L48.3325 33.8784L48.2461 25.7683L48.9507 25.3594Z" fill="#4F4D4D"/>
<g id="Group">
<path id="Vector_25" d="M32.6587 42.1259L24.8789 37.61L40.5519 28.5496L48.2971 33.05L32.6587 42.1259Z" fill="#FDC281"/>
<path id="Vector_26" d="M32.6602 42.1259L32.664 42.938L48.2986 33.866V33.05L32.6602 42.1259Z" fill="#CC8B4F"/>
</g>
<g id="Group_2">
<path id="Vector_27" d="M34.2031 31.1624L40.6274 34.8948L46.4834 31.5137L40.0591 27.7812L34.2031 31.1624Z" fill="#F9F9F9"/>
<path id="Vector_28" d="M34.2031 31.1624L34.205 32.7444L40.6294 36.4769L40.6274 34.8948L34.2031 31.1624Z" fill="#B0AFB0"/>
<path id="Vector_29" d="M40.625 34.8948L40.6269 36.4769L46.4829 33.0958L46.481 31.5137L40.625 34.8948Z" fill="#D7D7D7"/>
</g>
<g id="Group_3">
<path id="Vector_30" d="M32.5715 34.8271L24.832 30.3266L40.505 21.2681L48.2503 25.7685L32.5715 34.8271Z" fill="#FDC281"/>
<path id="Vector_31" d="M32.5703 34.829L32.5742 35.6412L48.249 26.5826V25.7686L32.5703 34.829Z" fill="#CC8B4F"/>
</g>
<g id="Group_4">
<path id="Vector_32" d="M31.8645 35.2356L24.1211 30.7351L24.8277 30.3262L32.571 34.8267L31.8645 35.2356Z" fill="#686868"/>
<path id="Vector_33" d="M31.9566 43.3478L24.2133 38.8474L24.1211 30.7354L31.8645 35.2358L31.9566 43.3478Z" fill="#3D3D3D"/>
<path id="Vector_34" d="M32.5698 34.8267L32.662 42.9387L31.9516 43.3476L31.8633 35.2356L32.5698 34.8267Z" fill="#4F4D4D"/>
</g>
<g id="Group_5">
<path id="Vector_35" d="M88.9142 41.52L88.9104 43.0887L81.2266 47.5546L81.2304 45.984L88.9142 41.52Z" fill="#CC8B4F"/>
<path id="Vector_36" d="M81.2287 45.9841L81.2249 47.5546L54.1836 31.9412L54.1874 30.3726L81.2287 45.9841Z" fill="#D89C60"/>
<path id="Vector_37" d="M88.9165 41.5202L81.2327 45.9842L54.1914 30.3727L61.8752 25.9067L88.9165 41.5202Z" fill="#FDC281"/>
</g>
<g id="Group_6">
<path id="Vector_38" d="M57.2969 23.3928L57.3199 30.8405L61.3673 28.5038L61.3442 21.0562L57.2969 23.3928Z" fill="#BC2B3B"/>
<path id="Vector_39" d="M57.2969 23.8728L58.3183 24.4641L62.3657 22.1275L61.3442 21.5361L57.2969 23.8728Z" fill="#F9F9F9"/>
<path id="Vector_40" d="M57.2969 23.3926L57.3199 30.8403L58.3394 31.4335L58.3183 23.9839L57.2969 23.3926Z" fill="#C5C4C4"/>
<path id="Vector_41" d="M58.3242 23.9841L58.3453 31.4337L62.3927 29.0971L62.3716 21.6475L58.3242 23.9841Z" fill="#888888"/>
<path id="Vector_42" d="M58.3164 24.3796L58.3394 31.8292L62.7286 29.2948L62.7055 21.8452L58.3164 24.3796Z" fill="#BC2B3B"/>
<path id="Vector_43" d="M56.6211 23.3926L56.6422 30.8403L58.3414 31.8291L58.3184 24.3795L56.6211 23.3926Z" fill="#DD454D"/>
<path id="Vector_44" d="M61.0102 20.8584L56.6211 23.3928L58.3184 24.3797L62.7075 21.8453L62.3696 21.6475L58.3222 23.9842L57.3008 23.3928L61.3481 21.0562L61.0102 20.8584Z" fill="#EF5A5A"/>
<g id="Group_7">
<path id="Vector_45" d="M59.9961 24.9914L60.0191 32.4391L64.0665 30.1025L64.0435 22.6548L59.9961 24.9914Z" fill="#BC2B3B"/>
<path id="Vector_46" d="M59.9961 25.4714L61.0156 26.0628L65.063 23.7261L64.0435 23.1348L59.9961 25.4714Z" fill="#F9F9F9"/>
<path id="Vector_47" d="M59.9961 24.9912L60.0191 32.4389L61.0387 33.0322L61.0156 25.5826L59.9961 24.9912Z" fill="#C5C4C4"/>
<path id="Vector_48" d="M61.0156 25.5827L61.0387 33.0323L65.086 30.6957L65.063 23.2461L61.0156 25.5827Z" fill="#888888"/>
<path id="Vector_49" d="M61.0117 25.9782L61.0348 33.4259L65.4239 30.8934L65.4008 23.4438L61.0117 25.9782Z" fill="#BC2B3B"/>
<path id="Vector_50" d="M59.3125 24.9915L59.3355 32.4391L61.0347 33.426L61.0117 25.9783L59.3125 24.9915Z" fill="#DD454D"/>
<path id="Vector_51" d="M63.7016 22.4573L59.3125 24.9917L61.0117 25.9786L65.4008 23.4442L65.061 23.2464L61.0136 25.583L59.9941 24.9917L64.0415 22.655L63.7016 22.4573Z" fill="#EF5A5A"/>
</g>
<g id="Group_8">
<path id="Vector_52" d="M62.6875 26.5905L62.7105 34.0382L66.756 31.7016L66.7349 24.2539L62.6875 26.5905Z" fill="#BC2B3B"/>
<path id="Vector_53" d="M62.6875 27.0705L63.707 27.6619L67.7544 25.3252L66.7349 24.7339L62.6875 27.0705Z" fill="#F9F9F9"/>
<path id="Vector_54" d="M62.6875 26.5903L62.7105 34.038L63.7301 34.6313L63.707 27.1817L62.6875 26.5903Z" fill="#C5C4C4"/>
<path id="Vector_55" d="M63.707 27.1819L63.7301 34.6315L67.7774 32.2948L67.7544 24.8452L63.707 27.1819Z" fill="#888888"/>
<path id="Vector_56" d="M63.7031 27.5774L63.7262 35.027L68.1134 32.4926L68.0923 25.043L63.7031 27.5774Z" fill="#BC2B3B"/>
<path id="Vector_57" d="M62.0039 26.5906L62.0269 34.0383L63.7261 35.0271L63.7031 27.5775L62.0039 26.5906Z" fill="#DD454D"/>
<path id="Vector_58" d="M66.393 24.0562L62.0039 26.5906L63.7031 27.5774L68.0922 25.043L67.7524 24.8453L63.705 27.1819L62.6855 26.5906L66.7329 24.2539L66.393 24.0562Z" fill="#EF5A5A"/>
</g>
<g id="Group_9">
<path id="Vector_59" d="M65.3789 28.1897L65.4019 35.6393L69.4493 33.3027L69.4263 25.855L65.3789 28.1897Z" fill="#BC2B3B"/>
<path id="Vector_60" d="M65.3789 28.6716L66.4003 29.263L70.4477 26.9263L69.4263 26.335L65.3789 28.6716Z" fill="#F9F9F9"/>
<path id="Vector_61" d="M65.3789 28.1895L65.4019 35.6391L66.4215 36.2323L66.4003 28.7827L65.3789 28.1895Z" fill="#C5C4C4"/>
<path id="Vector_62" d="M66.4023 28.7829L66.4235 36.2325L70.4708 33.8959L70.4497 26.4463L66.4023 28.7829Z" fill="#888888"/>
<path id="Vector_63" d="M66.3984 29.1789L66.4196 36.6266L70.8087 34.0941L70.7856 26.6445L66.3984 29.1789Z" fill="#BC2B3B"/>
<path id="Vector_64" d="M64.6992 28.1897L64.7223 35.6393L66.4195 36.6262L66.3984 29.1785L64.6992 28.1897Z" fill="#DD454D"/>
<path id="Vector_65" d="M69.0883 25.6572L64.6992 28.1897L66.3984 29.1785L70.7856 26.6441L70.4477 26.4463L66.4003 28.783L65.3789 28.1897L69.4263 25.855L69.0883 25.6572Z" fill="#EF5A5A"/>
</g>
</g>
<g id="Group_10">
<path id="Vector_66" d="M69.6016 31.9118L69.6208 38.0174L72.9385 36.1012L72.9193 29.9956L69.6016 31.9118Z" fill="#589441"/>
<path id="Vector_67" d="M69.6016 32.3053L70.4387 32.7911L73.7564 30.8749L72.9193 30.3892L69.6016 32.3053Z" fill="#F9F9F9"/>
<path id="Vector_68" d="M69.6016 31.9116L69.6208 38.0172L70.4579 38.503L70.4387 32.3974L69.6016 31.9116Z" fill="#C5C4C4"/>
<path id="Vector_69" d="M70.4414 32.3974L70.4606 38.503L73.7764 36.5868L73.7592 30.4812L70.4414 32.3974Z" fill="#888888"/>
<path id="Vector_70" d="M70.4414 32.7203L70.4606 38.8278L74.0568 36.7503L74.0395 30.6428L70.4414 32.7203Z" fill="#589441"/>
<path id="Vector_71" d="M69.0469 31.9116L69.0642 38.0172L70.4581 38.8275L70.4389 32.7199L69.0469 31.9116Z" fill="#80BC41"/>
<path id="Vector_72" d="M72.643 29.8342L69.0469 31.9117L70.4389 32.72L74.037 30.6425L73.7586 30.4813L70.4408 32.3974L69.6037 31.9117L72.9214 29.9955L72.643 29.8342Z" fill="#A9C838"/>
</g>
<g id="Group_11">
<path id="Vector_73" d="M73.5039 32.8755L73.5269 40.3251L77.5743 37.9884L77.5513 30.5388L73.5039 32.8755Z" fill="#3D3D3D"/>
<path id="Vector_74" d="M73.5039 33.3557L74.5234 33.949L78.5708 31.6123L77.5513 31.019L73.5039 33.3557Z" fill="#F9F9F9"/>
<path id="Vector_75" d="M73.5039 32.8755L73.5269 40.3251L74.5465 40.9165L74.5234 33.4688L73.5039 32.8755Z" fill="#C5C4C4"/>
<path id="Vector_76" d="M74.5234 33.4687L74.5465 40.9164L78.5938 38.5798L78.5708 31.1321L74.5234 33.4687Z" fill="#888888"/>
<path id="Vector_77" d="M74.5156 33.8623L74.5387 41.3119L78.9278 38.7775L78.9047 31.3279L74.5156 33.8623Z" fill="#3D3D3D"/>
<path id="Vector_78" d="M72.8203 32.8755L72.8434 40.3251L74.5426 41.312L74.5195 33.8624L72.8203 32.8755Z" fill="#686868"/>
<path id="Vector_79" d="M77.2094 30.3413L72.8203 32.8757L74.5195 33.8626L78.9086 31.3282L78.5688 31.1323L74.5214 33.469L73.5019 32.8757L77.5493 30.5391L77.2094 30.3413Z" fill="#929393"/>
<g id="Group_12">
<path id="Vector_80" d="M76.1953 34.4746L76.2184 41.9242L80.2638 39.5875L80.2427 32.1379L76.1953 34.4746Z" fill="#3D3D3D"/>
<path id="Vector_81" d="M76.1953 34.9546L77.2148 35.5478L81.2622 33.2112L80.2427 32.6179L76.1953 34.9546Z" fill="#F9F9F9"/>
<path id="Vector_82" d="M76.1953 34.4744L76.2184 41.924L77.2379 42.5153L77.2148 35.0676L76.1953 34.4744Z" fill="#C5C4C4"/>
<path id="Vector_83" d="M77.2148 35.0678L77.2379 42.5155L81.2852 40.1789L81.2622 32.7312L77.2148 35.0678Z" fill="#888888"/>
<path id="Vector_84" d="M77.2109 35.4614L77.234 42.911L81.6231 40.3766L81.6001 32.927L77.2109 35.4614Z" fill="#3D3D3D"/>
<path id="Vector_85" d="M75.5117 34.4744L75.5348 41.924L77.234 42.9108L77.2109 35.4612L75.5117 34.4744Z" fill="#686868"/>
<path id="Vector_86" d="M79.9008 31.9402L75.5117 34.4746L77.2109 35.4615L81.6 32.9271L81.2602 32.7312L77.2128 35.0679L76.1933 34.4746L80.2407 32.1379L79.9008 31.9402Z" fill="#929393"/>
</g>
<g id="Group_13">
<path id="Vector_87" d="M78.8867 36.0732L78.9098 43.5228L82.9571 41.1862L82.9341 33.7366L78.8867 36.0732Z" fill="#3D3D3D"/>
<path id="Vector_88" d="M78.8867 36.5532L79.9082 37.1465L83.9555 34.8098L82.9341 34.2166L78.8867 36.5532Z" fill="#F9F9F9"/>
<path id="Vector_89" d="M78.8867 36.0732L78.9098 43.5228L79.9293 44.1142L79.9082 36.6665L78.8867 36.0732Z" fill="#C5C4C4"/>
<path id="Vector_90" d="M79.9141 36.6665L79.9352 44.1142L83.9825 41.7775L83.9614 34.3298L79.9141 36.6665Z" fill="#888888"/>
<path id="Vector_91" d="M79.9102 37.0605L79.9313 44.5101L84.3204 41.9757L84.2993 34.5261L79.9102 37.0605Z" fill="#3D3D3D"/>
<path id="Vector_92" d="M78.2109 36.0732L78.234 43.5228L79.9313 44.5097L79.9101 37.0601L78.2109 36.0732Z" fill="#686868"/>
<path id="Vector_93" d="M82.6001 33.5388L78.2109 36.0732L79.9101 37.0601L84.2993 34.5257L83.9594 34.3299L79.9121 36.6665L78.8906 36.0732L82.938 33.7366L82.6001 33.5388Z" fill="#929393"/>
</g>
</g>
<g id="Group_14">
<path id="Vector_94" d="M51.815 65.9475L47.1149 63.2161C47.1968 63.2639 47.2483 63.3645 47.2487 63.5093C47.2491 63.6531 47.1984 63.8128 47.117 63.9549C47.0346 64.0975 46.9215 64.2216 46.7956 64.2943L51.4957 67.0257C51.6217 66.953 51.7348 66.8289 51.8171 66.6863C51.8985 66.5442 51.9494 66.3845 51.9488 66.2406C51.9485 66.0959 51.897 65.9953 51.815 65.9475ZM43.6172 66.1832C43.6172 66.1978 43.6226 66.2086 43.6318 66.214L48.3319 68.9455C48.3225 68.9402 48.3173 68.9296 48.3173 68.9148C48.3173 68.8854 48.3387 68.8482 48.3653 68.8334L48.4533 68.7814L51.4957 67.0257L46.7956 64.2943L43.7531 66.0498L43.6652 66.1018C43.6387 66.1166 43.6172 66.1539 43.6172 66.1832Z" fill="#EF5A5A"/>
<path id="Vector_95" d="M48.3005 67.6475L43.7539 65.0056L43.7558 66.0501L48.3024 68.6939L48.3005 67.6475Z" fill="#D7D7D7"/>
<path id="Vector_96" d="M51.4953 65.9809L46.7952 63.2488L43.7539 65.0056L48.4541 67.7377L51.4953 65.9809Z" fill="#704E2C"/>
<path id="Vector_97" d="M51.4967 65.8707L51.4022 65.9252L46.7969 63.249C46.9228 63.1762 47.0363 63.1685 47.1192 63.2157L51.6028 65.8214C51.5685 65.8335 51.5331 65.8498 51.4967 65.8707Z" fill="#704E2C"/>
<path id="Vector_98" d="M48.2969 67.6478L48.2998 68.6928L51.3414 66.9366C51.4674 66.8638 51.5805 66.7398 51.6628 66.5971C51.7442 66.4551 51.7951 66.2953 51.7945 66.1515C51.7942 66.0067 51.7427 65.9061 51.6607 65.8583C51.5778 65.8111 51.4645 65.8188 51.3383 65.8915L48.2969 67.6478Z" fill="#F9F9F9"/>
<path id="Vector_99" d="M43.6172 65.0295C43.6172 65.0441 43.6226 65.0548 43.6304 65.0602L48.3306 67.7918C48.3225 67.7864 48.3173 67.7758 48.3173 67.761C48.3173 67.7303 48.3387 67.6931 48.364 67.6783L51.4944 65.871C51.6478 65.7831 51.7851 65.775 51.8851 65.8324L47.1849 63.1008C47.0849 63.0434 46.9474 63.0515 46.7942 63.1394L43.6638 64.9467C43.6385 64.9628 43.6172 64.9987 43.6172 65.0295Z" fill="#EF5A5A"/>
<path id="Vector_100" d="M48.3601 67.6779C48.3338 67.693 48.3125 67.7299 48.3125 67.7602C48.3125 67.7906 48.334 67.8027 48.3603 67.7875L48.4488 67.7364L51.4905 65.9802C51.6164 65.9074 51.7299 65.8997 51.8129 65.947C51.8948 65.9948 51.9463 66.0954 51.9467 66.2402C51.9471 66.384 51.8964 66.5437 51.815 66.6858C51.7326 66.8284 51.6195 66.9525 51.4936 67.0252L48.4519 68.7815L48.3634 68.8325C48.3371 68.8477 48.3158 68.8846 48.3158 68.9139C48.3158 68.9443 48.3373 68.9564 48.3636 68.9412L51.4939 67.1339C51.7971 66.9588 52.0425 66.5341 52.0413 66.1856C52.0404 65.8364 51.7935 65.6956 51.4903 65.8706L48.3601 67.6779Z" fill="#BC2B3B"/>
<path id="Vector_101" d="M46.7933 63.1397C46.9467 63.0517 47.084 63.0437 47.184 63.1011L51.8842 65.8327C51.7841 65.7752 51.6467 65.7833 51.4935 65.8712L51.1728 66.0563L46.4727 63.3248L46.7933 63.1397Z" fill="#3D3D3D"/>
</g>
</g>
</svg>
