<svg width="97" height="96" viewBox="0 0 97 96" fill="none" xmlns="http://www.w3.org/2000/svg">
<g id="shower">
<g id="Icons">
<g id="XMLID_1884_">
<path id="XMLID_1264_" opacity="0.15" d="M67.9004 92.7998C80.6029 92.7998 90.9004 91.4567 90.9004 89.7998C90.9004 88.143 80.6029 86.7998 67.9004 86.7998C55.1978 86.7998 44.9004 88.143 44.9004 89.7998C44.9004 91.4567 55.1978 92.7998 67.9004 92.7998Z" fill="#45413C"/>
<path id="XMLID_2848_" d="M34.9004 46L27.7004 49.2C26.7004 49.6 25.9004 50.6 25.9004 51.8C25.9004 53.4 27.1004 54.8 28.7004 54.8C29.9004 54.8 30.9004 54.2 31.5004 53.2L35.1004 46.2C35.3004 46.2 35.1004 46 34.9004 46Z" fill="#2B8AFC" stroke="#45413C" stroke-miterlimit="10" stroke-linecap="round" stroke-linejoin="round"/>
<path id="XMLID_2847_" d="M19.9 60.5999L13.5 64.9999C12.5 65.5999 12.1 66.7999 12.3 67.9999C12.5 69.5999 14.1 70.7999 15.7 70.3999C16.9 70.1999 17.7 69.3999 18.1 68.3999L20.3 60.9999C20.1 60.5999 19.9 60.3999 19.9 60.5999Z" fill="#2B8AFC" stroke="#45413C" stroke-miterlimit="10" stroke-linecap="round" stroke-linejoin="round"/>
<path id="XMLID_2846_" d="M29.1011 36L21.5011 37.6C20.3011 37.8 19.5011 38.6 19.3011 39.8C18.9011 41.4 19.9011 43 21.5011 43.4C22.7011 43.6 23.7011 43.2 24.5011 42.4L29.5011 36.4C29.3011 36.2 29.3011 36 29.1011 36Z" fill="#2B8AFC" stroke="#45413C" stroke-miterlimit="10" stroke-linecap="round" stroke-linejoin="round"/>
<path id="XMLID_2845_" d="M11.9004 47.3999L4.70039 50.3999C3.70039 50.7999 2.90039 51.7999 2.90039 52.9999C2.90039 54.5999 4.10039 55.9999 5.70039 56.1999C6.90039 56.1999 7.90039 55.5999 8.50039 54.5999L12.1004 47.7999C12.1004 47.5999 12.1004 47.3999 11.9004 47.3999Z" fill="#2B8AFC" stroke="#45413C" stroke-miterlimit="10" stroke-linecap="round" stroke-linejoin="round"/>
<path id="XMLID_2844_" d="M44.0996 54.1998L37.4996 58.3998C36.4996 58.9998 36.0996 60.1998 36.0996 61.1998C36.2996 62.7998 37.6996 63.9998 39.4996 63.7998C40.6996 63.5998 41.4996 62.7998 41.8996 61.7998L44.2996 54.3998C44.2996 54.1998 44.2996 53.9998 44.0996 54.1998Z" fill="#2B8AFC" stroke="#45413C" stroke-miterlimit="10" stroke-linecap="round" stroke-linejoin="round"/>
<path id="XMLID_2843_" d="M32.3011 71.7998L26.7011 77.1998C25.9011 77.9998 25.5011 79.1998 25.9011 80.1998C26.5011 81.7998 28.1011 82.5998 29.7011 81.9998C30.7011 81.5998 31.5011 80.5998 31.7011 79.5998L32.5011 71.7998C32.7011 71.7998 32.5011 71.5998 32.3011 71.7998Z" fill="#2B8AFC" stroke="#45413C" stroke-miterlimit="10" stroke-linecap="round" stroke-linejoin="round"/>
<path id="XMLID_2842_" d="M54.6995 58.5999L49.0995 63.9999C48.2995 64.7999 47.8995 65.9999 48.2995 66.9999C48.8995 68.5999 50.4995 69.3999 52.0995 68.7999C53.0995 68.3999 53.8995 67.3999 54.0995 66.3999L55.0995 58.5999C54.8995 58.5999 54.6995 58.3999 54.6995 58.5999Z" fill="#2B8AFC" stroke="#45413C" stroke-miterlimit="10" stroke-linecap="round" stroke-linejoin="round"/>
<path id="XMLID_2841_" d="M46.7011 78.7998L41.9011 84.9998C41.1011 85.9998 41.1011 87.1998 41.7011 88.1998C42.5011 89.5998 44.3011 90.1998 45.7011 89.3998C46.7011 88.7998 47.3011 87.7998 47.3011 86.5998L47.1011 78.7998C47.1011 78.7998 46.9011 78.5998 46.7011 78.7998Z" fill="#2B8AFC" stroke="#45413C" stroke-miterlimit="10" stroke-linecap="round" stroke-linejoin="round"/>
<g id="XMLID_2828_">
<path id="XMLID_2840_" d="M74.5 21.3999C75.1 20.7999 75.1 19.9999 74.5 19.3999L68.9 13.7999C68.3 13.1999 67.5 13.1999 66.9 13.7999C65.3 15.3999 63.1 16.3999 60.9 16.3999H39.5L72.5 49.3999L72.1 27.7999C72.1 25.3999 72.9 22.9999 74.5 21.3999Z" fill="#C0DCEB"/>
<path id="XMLID_2839_" d="M62.9 20.1999C65.5 19.9999 67.9 18.7999 69.9 16.7999C70.3 16.3999 70.7 16.1999 71.3 16.1999L68.9 13.7999C68.3 13.1999 67.5 13.1999 66.9 13.7999C65.3 15.3999 63.1 16.3999 60.9 16.3999H39.5L45.1 21.9999L62.9 20.1999Z" fill="#DAEDF7"/>
<path id="XMLID_2838_" d="M74.5 21.3999C75.1 20.7999 75.1 19.9999 74.5 19.3999L68.9 13.7999C68.3 13.1999 67.5 13.1999 66.9 13.7999C65.3 15.3999 63.1 16.3999 60.9 16.3999H39.5L72.5 49.3999L72.1 27.7999C72.1 25.3999 72.9 22.9999 74.5 21.3999Z" stroke="#45413C" stroke-miterlimit="10" stroke-linecap="round" stroke-linejoin="round"/>
<path id="XMLID_2837_" d="M68.8988 54L34.6988 19.8C34.4988 19.6 34.4988 19 34.6988 18.8L37.8988 15.6C38.0988 15.4 38.6988 15.4 38.8988 15.6L73.0988 49.7999C73.2988 49.9999 73.2988 50.5999 73.0988 50.7999L69.8988 54C69.6988 54.2 69.0988 54.2 68.8988 54Z" fill="#E8F4FA"/>
<path id="XMLID_2836_" d="M48.0988 24.9999L38.8988 15.7999C38.6988 15.5999 38.0988 15.5999 37.8988 15.7999L34.6988 18.9999C34.4988 19.1999 34.4988 19.7999 34.6988 19.9999L43.8988 29.1999L48.0988 24.9999Z" fill="#F9F9F9"/>
<path id="XMLID_2835_" d="M68.8988 54L34.6988 19.8C34.4988 19.6 34.4988 19 34.6988 18.8L37.8988 15.6C38.0988 15.4 38.6988 15.4 38.8988 15.6L73.0988 49.7999C73.2988 49.9999 73.2988 50.5999 73.0988 50.7999L69.8988 54C69.6988 54.2 69.0988 54.2 68.8988 54Z" stroke="#45413C" stroke-miterlimit="10" stroke-linecap="round" stroke-linejoin="round"/>
<path id="XMLID_2834_" d="M64.2996 54.3998L34.2996 24.3998C33.6996 23.7998 33.6996 22.9998 34.2996 22.3998L35.8996 20.7998L67.8996 52.7998L66.2996 54.3998C65.6996 54.9998 64.6996 54.9998 64.2996 54.3998Z" fill="#ADC4D9"/>
<path id="XMLID_2833_" d="M37.6996 26C37.2996 26.4 37.0996 27.2 37.4996 27.8L34.2996 24.6C33.6996 24 33.6996 23.2 34.2996 22.6L35.8996 21L39.4996 24.6L37.6996 26Z" fill="#C0DCEB"/>
<path id="XMLID_2832_" d="M64.2996 54.3998L34.2996 24.3998C33.6996 23.7998 33.6996 22.9998 34.2996 22.3998L35.8996 20.7998L67.8996 52.7998L66.2996 54.3998C65.6996 54.9998 64.6996 54.9998 64.2996 54.3998Z" stroke="#45413C" stroke-miterlimit="10" stroke-linecap="round" stroke-linejoin="round"/>
<path id="XMLID_2831_" d="M94.0988 7.9999V5.1999C94.0988 4.1999 93.2988 3.3999 92.2988 3.3999H86.0988C82.2988 3.3999 78.6988 4.7999 76.0988 7.5999L69.2988 14.3999L73.8988 18.9999L80.4988 12.1999C82.0988 10.5999 84.0988 9.7999 86.2988 9.7999H92.0988C93.2988 9.7999 94.0988 8.9999 94.0988 7.9999Z" fill="#E8F4FA"/>
<path id="XMLID_2830_" d="M76.0988 10.5999C78.6988 7.9999 82.2988 6.3999 86.0988 6.3999H92.2988C93.2988 6.3999 94.0988 7.1999 94.0988 7.9999V5.1999C94.0988 4.1999 93.2988 3.3999 92.2988 3.3999H86.0988C82.2988 3.3999 78.6988 4.7999 76.0988 7.5999L69.2988 14.3999L70.8988 15.9999L76.0988 10.5999Z" fill="#F9F9F9"/>
<path id="XMLID_2829_" d="M94.0988 7.9999V5.1999C94.0988 4.1999 93.2988 3.3999 92.2988 3.3999H86.0988C82.2988 3.3999 78.6988 4.7999 76.0988 7.5999L69.2988 14.3999L73.8988 18.9999L80.4988 12.1999C82.0988 10.5999 84.0988 9.7999 86.2988 9.7999H92.0988C93.2988 9.7999 94.0988 8.9999 94.0988 7.9999Z" stroke="#45413C" stroke-miterlimit="10" stroke-linecap="round" stroke-linejoin="round"/>
</g>
</g>
</g>
</g>
</svg>
