<svg width="261" height="519" viewBox="0 0 261 519" fill="none" xmlns="http://www.w3.org/2000/svg">
<path fill-rule="evenodd" clip-rule="evenodd" d="M2.4 59.5028C2.4 38.6749 2.4 28.2609 6.45456 20.3057C10.021 13.3081 15.7119 7.61884 22.7116 4.05338C30.6691 0 41.086 0 61.92 0H199.08C219.914 0 230.331 0 238.288 4.05338C245.288 7.61884 250.979 13.3081 254.545 20.3057C258.6 28.2609 258.6 38.6749 258.6 59.5028V119.365H259.8C260.463 119.365 261 119.903 261 120.565V178.748C261 179.411 260.463 179.948 259.8 179.948H258.6V458.747C258.6 479.575 258.6 489.989 254.545 497.944C250.979 504.942 245.288 510.631 238.288 514.197C230.331 518.25 219.914 518.25 199.08 518.25H61.92C41.086 518.25 30.6691 518.25 22.7116 514.197C15.7119 510.631 10.021 504.942 6.45456 497.944C2.4 489.989 2.4 479.575 2.4 458.747V191.345H1.2C0.537258 191.345 0 190.808 0 190.145V155.355C0 154.692 0.537258 154.155 1.2 154.155H2.4V143.958H1.2C0.537258 143.958 0 143.421 0 142.759V107.969C0 107.306 0.537258 106.769 1.2 106.769H2.4V89.974H1.2C0.537258 89.974 0 89.4369 0 88.7743V70.7795C0 70.117 0.537258 69.5799 1.2 69.5799H2.4V59.5028ZM18 50.1455C18 38.0518 18 32.005 20.3543 27.3859C22.4251 23.3228 25.7295 20.0193 29.7938 17.9491C34.4143 15.5955 40.4629 15.5955 52.56 15.5955H64.8C66.1255 15.5955 67.2 16.6697 67.2 17.9948V19.1944C67.2 26.8138 73.3785 32.9905 81 32.9905H180C187.622 32.9905 193.8 26.8138 193.8 19.1944V17.9948C193.8 16.6697 194.875 15.5955 196.2 15.5955H208.44C220.537 15.5955 226.586 15.5955 231.206 17.9491C235.271 20.0193 238.575 23.3228 240.646 27.3859C243 32.005 243 38.0519 243 50.1455V468.105C243 480.198 243 486.245 240.646 490.864C238.575 494.927 235.271 498.231 231.206 500.301C226.586 502.655 220.537 502.655 208.44 502.655H52.56C40.4629 502.655 34.4143 502.655 29.7938 500.301C25.7295 498.231 22.4251 494.927 20.3543 490.864C18 486.245 18 480.198 18 468.105V50.1455Z" fill="#232323"/>
<path d="M149.4 23.3932C151.388 23.3932 153 21.7819 153 19.7943C153 17.8066 151.388 16.1953 149.4 16.1953C147.412 16.1953 145.8 17.8066 145.8 19.7943C145.8 21.7819 147.412 23.3932 149.4 23.3932Z" fill="#DEDEE4"/>
<path d="M110.4 17.395C109.075 17.395 108 18.4692 108 19.7943C108 21.1194 109.075 22.1936 110.4 22.1936H134.4C135.725 22.1936 136.8 21.1194 136.8 19.7943C136.8 18.4692 135.725 17.395 134.4 17.395H110.4Z" fill="#DEDEE4"/>
</svg>
