<svg width="152" height="128" viewBox="0 0 152 128" fill="none" xmlns="http://www.w3.org/2000/svg">
<g id="parent-and-children" clip-path="url(#clip0_5338_8513)">
<path id="Vector" d="M136.153 55.025L132.328 38.75H86.8278L83.0028 55.025C81.9028 59.725 85.4778 64.25 90.3028 64.25H128.878C133.703 64.25 137.278 59.75 136.153 55.025Z" fill="#14294D"/>
<path id="Vector_2" d="M81.3262 126.75H141.076V86.6499C141.076 76.4749 134.226 67.5499 124.401 64.9249L118.201 63.2749H107.201L100.576 64.8499C89.3012 67.5249 81.3262 77.5999 81.3262 89.1749V126.75Z" fill="#2B8AFC"/>
<path id="Vector_3" d="M79.2754 63.25L81.7754 70.75L90.2754 63.25V55.75H79.2754V63.25Z" fill="#FCF1E2"/>
<path id="Vector_4" d="M75.3262 126.75H15.5762V86.6499C15.5762 76.4749 22.4262 67.5499 32.2512 64.9249L38.4512 63.2749H49.4512L56.0762 64.8499C67.3512 67.5249 75.3262 77.5999 75.3262 89.1749V126.75Z" fill="#CFE7F3"/>
<path id="Vector_5" d="M49.4512 63.25C49.4512 68 43.3762 69.975 40.5762 66.15L38.4512 63.25V55.75H49.4512V63.25ZM109.576 26.75H132.326C135.651 26.75 138.326 29.425 138.326 32.75C138.326 36.075 135.651 38.75 132.326 38.75H109.576V26.75ZM109.576 38.75H86.8262C83.5012 38.75 80.8262 36.075 80.8262 32.75C80.8262 29.425 83.5012 26.75 86.8262 26.75H109.576V38.75ZM46.8262 38.75H24.0762C20.7512 38.75 18.0762 36.075 18.0762 32.75C18.0762 29.425 20.7512 26.75 24.0762 26.75H46.8262V38.75ZM46.8262 26.75H69.5762C72.9012 26.75 75.5762 29.425 75.5762 32.75C75.5762 36.075 72.9012 38.75 69.5762 38.75H46.8262V26.75Z" fill="#FCF1E2"/>
<path id="Vector_6" d="M46.8262 58.75C36.0512 58.75 27.3262 50.025 27.3262 39.25V8.75H66.3262V39.25C66.3262 50.025 57.6012 58.75 46.8262 58.75Z" fill="#FCF1E2"/>
<path id="Vector_7" d="M69.576 26.75H66.326V21.75L62.726 23.325C58.726 25.05 54.176 22.55 53.501 18.25C49.926 21.9 44.001 21.675 40.726 17.725L40.326 17.25C39.576 22.05 34.476 24.85 30.001 22.925L27.326 21.75V26.75H24.076L23.126 24.625C20.876 19.6 21.851 13.7 25.576 9.675L26.276 7.75C27.326 4.8 29.876 2.65 32.951 2.05C35.626 1.55 38.401 2.4 40.326 4.325C41.901 2.375 44.276 1.25 46.801 1.25H47.601C51.226 1.25 54.676 2.875 57.001 5.675L58.926 4.8C60.776 3.975 62.876 4 64.701 4.85C67.651 6.25 69.201 9.5 68.451 12.675L68.426 12.825C70.676 15.6 71.501 19.275 70.601 22.75L69.576 26.75Z" fill="#CFE7F3"/>
<path id="Vector_8" d="M109.576 58.75C98.8012 58.75 90.0762 50.025 90.0762 39.25V8.75H129.076V39.25C129.076 50.025 120.351 58.75 109.576 58.75Z" fill="#FCF1E2"/>
<path id="Vector_9" fill-rule="evenodd" clip-rule="evenodd" d="M15.5762 100.75H28.5762V126.75H15.5762V100.75Z" fill="#FCF1E2"/>
<path id="Vector_10" fill-rule="evenodd" clip-rule="evenodd" d="M27.3262 89.75H29.8262V100.75H27.3262V89.75Z" fill="#A5D2E9"/>
<path id="Vector_11" fill-rule="evenodd" clip-rule="evenodd" d="M98.5762 28.5H104.576V31H98.5762V28.5Z" fill="#1F3E75"/>
<path id="Vector_12" d="M105.826 38.25H103.326V34.75H101.576V32.25H104.576C105.276 32.25 105.826 32.8 105.826 33.5V38.25Z" fill="#1F3E75"/>
<path id="Vector_13" fill-rule="evenodd" clip-rule="evenodd" d="M114.576 28.5H120.576V31H114.576V28.5Z" fill="#1F3E75"/>
<path id="Vector_14" d="M115.826 38.25H113.326V33.5C113.326 32.8 113.876 32.25 114.576 32.25H117.576V34.75H115.826V38.25Z" fill="#1F3E75"/>
<path id="Vector_15" d="M109.652 46.9999C109.377 46.9999 109.102 46.8999 108.852 46.7249L105.777 44.2249L107.352 42.2749L109.627 44.1249L111.752 42.2999L113.377 44.1999L110.452 46.6999C110.227 46.8999 109.952 46.9999 109.652 46.9999Z" fill="#F79392"/>
<path id="Vector_16" fill-rule="evenodd" clip-rule="evenodd" d="M98.9004 89.75H101.4V126.75H98.9004V89.75Z" fill="#265E87"/>
<path id="Vector_17" fill-rule="evenodd" clip-rule="evenodd" d="M35.8262 28.5H41.8262V31H35.8262V28.5Z" fill="#1F3E75"/>
<path id="Vector_18" fill-rule="evenodd" clip-rule="evenodd" d="M40.5762 33.5H43.0762V38.25H40.5762V33.5Z" fill="#1F3E75"/>
<path id="Vector_19" fill-rule="evenodd" clip-rule="evenodd" d="M51.8262 28.5H57.8262V31H51.8262V28.5Z" fill="#1F3E75"/>
<path id="Vector_20" fill-rule="evenodd" clip-rule="evenodd" d="M50.5762 33.5H53.0762V38.25H50.5762V33.5Z" fill="#1F3E75"/>
<path id="Vector_21" d="M46.8262 46.575C44.7012 46.575 42.5762 45.775 40.9512 44.15L42.7262 42.375C45.0012 44.65 48.6762 44.65 50.9512 42.375L52.7262 44.15C51.0762 45.75 48.9512 46.575 46.8262 46.575Z" fill="#F79392"/>
<path id="Vector_22" d="M85.4518 20.9L86.8268 26.75H91.0768C95.2268 26.75 98.5768 23.4 98.5768 19.25V15.75L104.327 19.7C111.002 24.3 118.902 26.75 127.002 26.75H132.327L133.702 20.9C136.077 10.875 128.452 1.25 118.127 1.25H101.002C90.7018 1.25 83.0768 10.875 85.4518 20.9Z" fill="#1F3E75"/>
<path id="Vector_23" fill-rule="evenodd" clip-rule="evenodd" d="M15.5762 100.75H28.5762V108.25H15.5762V100.75Z" fill="#FCF1E2"/>
<path id="Vector_24" fill-rule="evenodd" clip-rule="evenodd" d="M5.59961 77.75H45.1996V105.75H5.59961V77.75Z" fill="#14294D"/>
<path id="Vector_25" fill-rule="evenodd" clip-rule="evenodd" d="M106.254 77.9639H145.854V105.964H106.254V77.9639Z" fill="#14294D"/>
<path id="Vector_26" d="M46.4004 126.75H4.40039V123.7C4.40039 118.225 7.95039 113.4 13.1754 111.775L20.4004 109.525H30.4004L37.6254 111.775C42.8504 113.4 46.4004 118.25 46.4004 123.7V126.75Z" fill="#3179AF"/>
<path id="Vector_27" d="M147.6 126.854H105.6V123.804C105.6 118.329 109.15 113.504 114.375 111.879L121.6 109.629H131.6L138.825 111.879C144.05 113.504 147.6 118.354 147.6 123.804V126.854Z" fill="#3179AF"/>
<path id="Vector_28" d="M30.4004 102.5H20.4004V109.5L16.9004 110.6C16.9004 113.85 19.5504 116.5 22.8004 116.5H28.0004C31.2504 116.5 33.9004 113.85 33.9004 110.6L30.4004 109.5V102.5ZM25.4004 88.25H5.60039C2.72539 88.25 0.400391 85.925 0.400391 83.05V82.975C0.400391 80.1 2.72539 77.775 5.60039 77.775H25.4004V88.25ZM25.4004 77.75H45.2004C48.0754 77.75 50.4004 80.075 50.4004 82.95V83.025C50.4004 85.9 48.0754 88.225 45.2004 88.225H25.4004V77.75Z" fill="#FCF1E2"/>
<path id="Vector_29" d="M131.6 102.604H121.6V109.604L118.1 110.704C118.1 113.954 120.75 116.604 124 116.604H129.2C132.45 116.604 135.1 113.954 135.1 110.704L131.6 109.604V102.604ZM126.6 88.3545H106.8C103.925 88.3545 101.6 86.0295 101.6 83.1545V83.0795C101.6 80.2045 103.925 77.8795 106.8 77.8795H126.6V88.3545ZM126.6 77.8545H146.4C149.275 77.8545 151.6 80.1795 151.6 83.0545V83.1295C151.6 86.0045 149.275 88.3295 146.4 88.3295H126.6V77.8545Z" fill="#FCF1E2"/>
<path id="Vector_30" d="M25.4004 105.75C16.0004 105.75 8.40039 98.15 8.40039 88.75V62.25H42.4004V88.75C42.4004 98.15 34.8004 105.75 25.4004 105.75Z" fill="#FCF1E2"/>
<path id="Vector_31" d="M126.6 105.854C117.2 105.854 109.6 98.2545 109.6 88.8545V62.3545H143.6V88.8545C143.6 98.2545 136 105.854 126.6 105.854Z" fill="#FCF1E2"/>
<path id="Vector_32" d="M22.4004 88H19.9004V85H18.6504V82.5H21.1504C21.8504 82.5 22.4004 83.05 22.4004 83.75V88ZM30.9004 88H28.4004V83.75C28.4004 83.05 28.9504 82.5 29.6504 82.5H32.1504V85H30.9004V88Z" fill="#1F3E75"/>
<path id="Vector_33" d="M123.6 88.1045H121.1V85.1045H119.85V82.6045H122.35C123.05 82.6045 123.6 83.1545 123.6 83.8545V88.1045ZM132.1 88.1045H129.6V83.8545C129.6 83.1545 130.15 82.6045 130.85 82.6045H133.35V85.1045H132.1V88.1045Z" fill="#1F3E75"/>
<path id="Vector_34" d="M25.3992 95.4752C23.3992 95.4752 21.4992 94.6002 20.1992 93.0752L22.0992 91.4502C22.9242 92.4252 24.1242 92.9752 25.3992 92.9752C26.6742 92.9752 27.8742 92.4252 28.6992 91.4502L30.5992 93.0752C29.2992 94.6002 27.3992 95.4752 25.3992 95.4752Z" fill="#F79392"/>
<path id="Vector_35" d="M126.6 95.5797C124.6 95.5797 122.7 94.7047 121.4 93.1797L123.3 91.5547C124.125 92.5297 125.325 93.0797 126.6 93.0797C127.875 93.0797 129.075 92.5297 129.9 91.5547L131.8 93.1797C130.5 94.7047 128.6 95.5797 126.6 95.5797Z" fill="#F79392"/>
<path id="Vector_36" d="M5.59961 77.75V70.525C5.59961 62.375 12.2246 55.75 20.3746 55.75H30.4246C38.5746 55.75 45.1996 62.375 45.1996 70.525V77.75H40.0246C37.3246 77.75 35.1496 75.575 35.1496 72.875C35.1496 75.575 32.9746 77.75 30.2746 77.75C27.5746 77.75 25.3996 75.575 25.3996 72.875C25.3996 75.575 23.2246 77.75 20.5246 77.75C17.8246 77.75 15.6496 75.575 15.6496 72.875C15.6496 75.575 13.4746 77.75 10.7746 77.75H5.59961Z" fill="#1F3E75"/>
<path id="Vector_37" d="M106.799 77.8545V70.6295C106.799 62.4795 113.424 55.8545 121.574 55.8545H131.624C139.774 55.8545 146.399 62.4795 146.399 70.6295V77.8545H141.224C138.524 77.8545 136.349 75.6795 136.349 72.9795C136.349 75.6795 134.174 77.8545 131.474 77.8545C128.774 77.8545 126.599 75.6795 126.599 72.9795C126.599 75.6795 124.424 77.8545 121.724 77.8545C119.024 77.8545 116.849 75.6795 116.849 72.9795C116.849 75.6795 114.674 77.8545 111.974 77.8545H106.799Z" fill="#1F3E75"/>
<path id="Vector_38" d="M45.1504 71.725V70.525C45.1504 69.225 45.0004 67.95 44.6754 66.75C44.6254 66.75 44.6004 66.75 44.5504 66.75C43.2754 66.75 42.7254 66.225 41.5754 65.025C40.2504 63.65 38.4504 61.75 34.9754 61.75C31.5004 61.75 29.7004 63.65 28.3754 65.025C27.2254 66.225 26.6754 66.75 25.4004 66.75C24.1254 66.75 23.5754 66.225 22.4254 65.025C21.1004 63.65 19.3004 61.75 15.8254 61.75C12.3504 61.75 10.5504 63.65 9.22539 65.025C8.07539 66.225 7.52539 66.75 6.25039 66.75C6.20039 66.75 6.17539 66.75 6.12539 66.75C5.80039 67.95 5.65039 69.225 5.65039 70.525V71.725C5.90039 71.75 6.05039 71.75 6.25039 71.75C9.72539 71.75 11.5254 69.85 12.8254 68.475C13.9754 67.275 14.5254 66.75 15.8004 66.75C17.0754 66.75 17.6254 67.275 18.7754 68.475C20.1004 69.85 21.9004 71.75 25.3754 71.75C28.8504 71.75 30.6504 69.85 31.9754 68.475C33.1254 67.275 33.6754 66.75 34.9504 66.75C36.2254 66.75 36.8004 67.275 37.9254 68.475C39.2504 69.85 41.0504 71.75 44.5004 71.75C44.7504 71.75 44.9004 71.75 45.1504 71.725Z" fill="#2A539D"/>
<path id="Vector_39" d="M146.35 71.8295V70.6295C146.35 69.3295 146.2 68.0545 145.875 66.8545C145.825 66.8545 145.8 66.8545 145.75 66.8545C144.475 66.8545 143.925 66.3295 142.775 65.1295C141.45 63.7545 139.65 61.8545 136.175 61.8545C132.7 61.8545 130.9 63.7545 129.575 65.1295C128.425 66.3295 127.875 66.8545 126.6 66.8545C125.325 66.8545 124.775 66.3295 123.625 65.1295C122.3 63.7545 120.5 61.8545 117.025 61.8545C113.55 61.8545 111.75 63.7545 110.425 65.1295C109.275 66.3295 108.725 66.8545 107.45 66.8545C107.4 66.8545 107.375 66.8545 107.325 66.8545C107 68.0545 106.85 69.3295 106.85 70.6295V71.8295C107.1 71.8545 107.25 71.8545 107.45 71.8545C110.925 71.8545 112.725 69.9545 114.025 68.5795C115.175 67.3795 115.725 66.8545 117 66.8545C118.275 66.8545 118.825 67.3795 119.975 68.5795C121.3 69.9545 123.1 71.8545 126.575 71.8545C130.05 71.8545 131.85 69.9545 133.175 68.5795C134.325 67.3795 134.875 66.8545 136.15 66.8545C137.425 66.8545 138 67.3795 139.125 68.5795C140.45 69.9545 142.25 71.8545 145.7 71.8545C145.95 71.8545 146.1 71.8545 146.35 71.8295Z" fill="#2A539D"/>
<path id="Vector_40" d="M13.4004 90.125C13.4004 91.3 14.6254 92.25 16.1504 92.25C17.6754 92.25 18.9004 91.3 18.9004 90.125C18.9004 88.95 17.6754 88 16.1504 88C14.6254 88 13.4004 88.95 13.4004 90.125ZM37.4004 90.125C37.4004 91.3 36.1754 92.25 34.6504 92.25C33.1254 92.25 31.9004 91.3 31.9004 90.125C31.9004 88.95 33.1254 88 34.6504 88C36.1754 88 37.4004 88.95 37.4004 90.125ZM75.4004 88.25H55.6004C52.7254 88.25 50.4004 85.925 50.4004 83.05V82.975C50.4004 80.1 52.7254 77.775 55.6004 77.775H75.4004V88.25ZM75.4004 77.75H95.2004C98.0754 77.75 100.4 80.075 100.4 82.95V83.025C100.4 85.9 98.0754 88.225 95.2004 88.225H75.4004V77.75Z" fill="#FCF1E2"/>
<path id="Vector_41" d="M96.4004 126.75H54.4004V123.7C54.4004 118.225 57.9504 113.4 63.1754 111.775L70.4004 109.525H80.4004L87.6254 111.775C92.8504 113.4 96.4004 118.25 96.4004 123.7V126.75Z" fill="#CFE7F3"/>
<path id="Vector_42" d="M80.4004 102.5H70.4004V109.5L66.9004 110.6C72.0004 114.15 78.8004 114.15 83.9004 110.6L80.4004 109.5V102.5Z" fill="#FCF1E2"/>
<path id="Vector_43" d="M75.4004 105.75C66.0004 105.75 58.4004 98.15 58.4004 88.75V62.25H92.4004V88.75C92.4004 98.15 84.8004 105.75 75.4004 105.75Z" fill="#FCF1E2"/>
<path id="Vector_44" fill-rule="evenodd" clip-rule="evenodd" d="M69.9004 83.75H72.4004V88H69.9004V83.75Z" fill="#1F3E75"/>
<path id="Vector_45" fill-rule="evenodd" clip-rule="evenodd" d="M78.4004 83.75H80.9004V88H78.4004V83.75Z" fill="#1F3E75"/>
<path id="Vector_46" d="M75.3992 95.4752C73.3992 95.4752 71.4992 94.6002 70.1992 93.0752L72.0992 91.4502C72.9242 92.4252 74.1242 92.9752 75.3992 92.9752C76.6742 92.9752 77.8742 92.4252 78.6992 91.4502L80.5992 93.0752C79.2992 94.6002 77.3992 95.4752 75.3992 95.4752Z" fill="#F79392"/>
<path id="Vector_47" d="M95.0488 62.25L87.8238 55.75L81.6238 60.075L75.4238 55.75L69.2238 60.075L63.0238 55.75L55.7988 62.25V77.75H58.6238C61.4738 77.75 63.7988 75.425 63.7988 72.575V66.75L75.4488 69.15L87.0988 66.75V72.575C87.0988 75.425 89.4238 77.75 92.2738 77.75H95.0988L95.0488 62.25Z" fill="#EBF5FA"/>
<path id="Vector_48" d="M63.4004 90.125C63.4004 91.3 64.6254 92.25 66.1504 92.25C67.6754 92.25 68.9004 91.3 68.9004 90.125C68.9004 88.95 67.6754 88 66.1504 88C64.6254 88 63.4004 88.95 63.4004 90.125ZM87.4004 90.125C87.4004 91.3 86.1754 92.25 84.6504 92.25C83.1254 92.25 81.9004 91.3 81.9004 90.125C81.9004 88.95 83.1254 88 84.6504 88C86.1754 88 87.4004 88.95 87.4004 90.125Z" fill="#FCF1E2"/>
</g>
<defs>
<clipPath id="clip0_5338_8513">
<rect width="151.273" height="128" fill="white" transform="translate(0.363281)"/>
</clipPath>
</defs>
</svg>
