<svg width="128" height="128" viewBox="0 0 128 128" fill="none" xmlns="http://www.w3.org/2000/svg">
<g id="student">
<path id="Vector" d="M85.818 87.6307L82.1816 85.8125H45.818L42.1816 87.6307L63.9998 122.182L85.818 87.6307Z" fill="#E2E4E5"/>
<path id="Vector_2" d="M91.2724 45.8181C89.4542 45.8181 89.4542 47.8381 89.4542 47.8381V45.8181C89.4572 43.9616 89.4165 42.1054 89.3323 40.2508C81.9833 33.0926 63.9996 33.0908 63.9996 33.0908C63.9996 33.0908 46.016 33.0926 38.6669 40.2508C38.5827 42.1054 38.5421 43.9616 38.5451 45.8181V60.3581L45.8178 78.5399L55.0996 85.8053C55.6113 86.3797 56.2387 86.8392 56.9407 87.1539C57.6426 87.4685 58.4031 87.631 59.1724 87.6308H68.8269C70.3833 87.6308 71.8651 86.9672 72.8996 85.8053L82.1814 78.5399L88.0123 63.9635C93.1669 63.5926 94.9087 55.7745 94.9087 49.8581C94.9087 47.8381 93.0905 45.8181 91.2724 45.8181Z" fill="#F8E1C2"/>
<path id="Vector_3" d="M38.5463 45.8181V47.8381C38.5463 47.8381 38.5463 45.8181 36.7282 45.8181C34.91 45.8181 33.0918 47.8381 33.0918 49.8581C33.0918 55.7726 34.8336 63.5926 39.9882 63.9635L45.8191 78.5399L55.1009 85.8053C55.6126 86.3797 56.24 86.8392 56.9419 87.1539C57.6439 87.4685 58.4044 87.631 59.1736 87.6308H64.0009V33.0908C64.0009 33.0908 46.0173 33.0926 38.6682 40.2508C38.584 42.1054 38.5434 43.9616 38.5463 45.8181Z" fill="#FCF1E2"/>
<path id="Vector_4" d="M54.9082 67.6309H73.09C73.09 67.6309 73.09 73.0854 63.9991 73.0854C54.9082 73.0854 54.9082 67.6309 54.9082 67.6309Z" fill="#F79392"/>
<path id="Vector_5" d="M74.9095 50.0401C77.0749 50.0401 78.9967 50.5237 80.3295 51.2728C80.4586 50.2383 80.0167 49.1746 78.9695 48.3819C77.0967 46.9619 74.0567 46.9619 72.1822 48.3819C71.3386 49.0219 70.8931 49.8383 70.8131 50.6728C72.1353 50.2416 73.5188 50.0279 74.9095 50.0401ZM53.0786 50.0401C50.9131 50.0401 48.9913 50.5237 47.6586 51.2728C47.5295 50.2383 47.9713 49.1746 49.0186 48.3819C50.8913 46.9619 53.9313 46.9619 55.8058 48.3819C56.6495 49.0219 57.0949 49.8383 57.1749 50.6728C55.8527 50.2416 54.4693 50.0279 53.0786 50.0401Z" fill="#3E3E3F"/>
<path id="Vector_6" d="M68.8274 87.6309H59.1729C58.4037 87.6312 57.6431 87.4686 56.9412 87.154C56.2393 86.8394 55.6119 86.3798 55.1002 85.8055L45.8184 78.54V86.7219C45.8184 86.7219 45.8184 100.358 64.0002 100.358C82.182 100.358 82.182 86.7219 82.182 86.7219V78.54L72.9002 85.8055C72.3885 86.3798 71.7611 86.8394 71.0591 87.154C70.3572 87.4686 69.5967 87.6312 68.8274 87.6309Z" fill="#F4D0A1"/>
<g id="Group">
<path id="Vector_7" d="M63.9995 33.0908C63.9995 33.0908 62.6213 33.0908 60.4758 33.2417V43.469C67.2376 43.469 71.334 38.589 73.7013 33.9526C68.3813 33.0926 63.9995 33.0908 63.9995 33.0908ZM47.4886 35.5126C44.0395 36.5854 40.7776 38.1308 38.5449 40.3635C38.5449 46.8035 42.7686 49.909 42.7686 49.909C42.234 44.5345 42.2049 41.0326 47.4886 35.5126ZM49.2086 35.0217V43.4708C54.4177 43.4708 58.5704 36.0999 59.9686 33.2817C57.1231 33.5017 53.1395 33.9817 49.2086 35.0217ZM84.6249 37.0999V49.909C89.1486 49.909 89.4358 41.4345 89.4522 40.3635C88.1413 39.0508 86.474 37.9799 84.6249 37.0999ZM76.5758 34.4926V43.4708C82.674 43.4708 84.4395 37.7054 84.6086 37.0926C82.1231 35.9108 79.3104 35.0781 76.5758 34.4926Z" fill="#3E3E3F"/>
</g>
<path id="Vector_8" d="M55.1002 85.8055L45.8184 78.54V86.7219C45.8184 86.7219 45.8184 100.358 64.0002 100.358V87.6309H59.1729C58.4037 87.6312 57.6431 87.4686 56.9412 87.154C56.2393 86.8394 55.6119 86.3798 55.1002 85.8055Z" fill="#F8E1C2"/>
<path id="Vector_9" d="M26.7108 61.1726V25.4999C25.4959 25.0665 24.2837 24.6252 23.0744 24.1763V61.1726C18.329 64.2999 21.2563 73.6272 21.2563 78.5453H28.529C28.529 73.6272 31.4581 64.2999 26.7108 61.1726Z" fill="#FA5655"/>
<path id="Vector_10" d="M113.09 20.3638C113.09 18.5456 67.6355 5.81836 63.9991 5.81836C60.3627 5.81836 14.9082 18.5456 14.9082 20.3638C14.9082 21.5002 28.4209 26.1947 38.5446 29.5511V40.3638C45.8173 33.0911 63.9991 33.0911 63.9991 33.0911C63.9991 33.0911 82.1809 33.0911 89.4537 40.3638V29.5511C99.5773 26.1947 113.09 21.5002 113.09 20.3638Z" fill="#2B8AFC"/>
<path id="Vector_11" d="M85.7546 87.7438L85.8183 87.6365L82.1819 85.8184L64.0273 94.8747L74.5601 105.467L85.7546 87.7438Z" fill="white"/>
<path id="Vector_12" d="M71.272 122.182L66.1829 103.636L69.4538 100.367L63.9647 94.8691L58.5138 100.32L61.8193 103.624L56.7266 122.182H71.272Z" fill="#DF2C2C"/>
<path id="Vector_13" d="M63.9993 122.182V94.9037L63.9647 94.8691L58.5138 100.32L61.8193 103.624L56.7266 122.182H63.9993Z" fill="#FA5655"/>
<path id="Vector_14" d="M42.2453 87.7438L42.1816 87.6365L45.818 85.8184L63.9725 94.8747L53.4398 105.467L42.2453 87.7438Z" fill="white"/>
<path id="Vector_15" d="M5.81836 122.182L13.0911 102.182C14.2099 99.7579 16.1783 97.8284 18.6238 96.758L42.182 87.6362L64.0002 122.182H5.81836ZM122.182 122.182L114.909 102.182C113.79 99.7579 111.822 97.8284 109.377 96.758L85.8184 87.6362L64.0002 122.182H122.182Z" fill="#2B8AFC"/>
<path id="Vector_16" d="M64.0002 122.182L42.182 87.6362L25.8184 93.0908L56.7275 122.182H64.0002ZM64.0002 122.182L85.8184 87.6362L102.182 93.0908L71.2729 122.182H64.0002Z" fill="#9E9FA0"/>
</g>
</svg>
